SplineFontDB: 1.0
FontName: TlwgMono-Oblique
FullName: Tlwg Mono Oblique
FamilyName: TlwgMono
Weight: Medium
Copyright: TlwgMono, Free Thai Monospace outline font. Copyright (C) 2003 Poonlap Veerathanabutr <poonlap@linux.thai.net>\n\nThis program is free software; you can redistribute it and/or modify it under the terms of the GNU General Public License as published by the Free Software Foundation; either version 1, or (at your option) any later version.\n\nThis program is distributed in the hope that it will be useful, but WITHOUT ANY WARRANTY; without even the implied warranty of MERCHANTABILITY or FITNESS FOR A PARTICULAR PURPOSE. See the GNU General Public License for more details.\n\nYou should have received a copy of the GNU General Public License along with this program; if not, write to the Free Software Foundation, Inc., 675 Mass Ave, Cambridge, MA 02139, USA.
Comments: 2003-11-26: Created. \nPfaEdit 1.0 (http://pfaedit.sf.net).\n\nTLWG is Thai Linux Working Group http://linux.thai.net\n\nThis font was derived from TlwgMono.Most characters have fixed width except some vowels and tone marks.\n\nCreated from PseudoMono-Oblique
Version: 001.000
ItalicAngle: 0
UnderlinePosition: -100
UnderlineWidth: 50
Ascent: 800
Descent: 200
NeedsXUIDChange: 1
XUID: [1021 215 427847090 13822294]
FSType: 0
PfmFamily: 49
TTFWeight: 400
TTFWidth: 5
Panose: 2 0 6 3 0 0 0 0 0 0
LineGap: 90
VLineGap: 0
OS2WinAscent: 0
OS2WinAOffset: 1
OS2WinDescent: 0
OS2WinDOffset: 1
HheadAscent: 0
HheadAOffset: 1
HheadDescent: 0
HheadDOffset: 1
ScriptLang: 3
 1 thai 1 dflt 
 1 latn 1 dflt 
 1 DFLT 1 dflt 
TtfTable: cvt  4
!$MDh
EndTtf

StartChar: exclam
Encoding: 1 33 32767
OldEncoding: 33
Width: 600
Flags: W
HStem: -15 100<300 313>
Fore
458 563 m 2
 370 237 l 1
 365 217 357 209 343 209 c 0
 335 209 328 216 328 224 c 0
 328 228 328 231 329 237 c 2
 380 563 l 2
 386 601 402 618 431 618 c 0
 449 618 463 606 463 589 c 0
 463 584 461 575 458 563 c 2
311 85 m 2
 323 85 l 2
 350 85 368 69 368 45 c 0
 368 13 337 -15 302 -15 c 2
 290 -15 l 2
 264 -15 246 1 246 24 c 0
 246 57 277 85 311 85 c 2
EndSplineSet
EndChar
StartChar: quotedbl
Encoding: 2 34 32767
OldEncoding: 34
Width: 600
Flags: W
HStem: 584 20G<274 402 454 582>
Fore
274 604 m 1
 402 604 l 1
 315 351 l 1
 306 326 295 315 277 315 c 0
 263 315 254 325 254 341 c 2
 254 351 l 1
 274 604 l 1
454 604 m 1
 582 604 l 1
 495 351 l 1
 486 326 474 315 457 315 c 0
 443 315 434 325 434 341 c 2
 434 351 l 1
 454 604 l 1
EndSplineSet
EndChar
StartChar: numbersign
Encoding: 3 35 32767
OldEncoding: 35
Width: 600
Flags: W
HStem: 189 41<158 247 299 378 430 512> 356 41<214 294 346 425 477 568>
Fore
466 356 m 1
 430 230 l 1
 510 230 l 2
 527 230 534 225 534 214 c 0
 534 199 521 189 501 189 c 2
 419 189 l 1
 355 -36 l 2
 350 -54 342 -62 329 -62 c 0
 320 -62 313 -55 313 -46 c 0
 313 -43 314 -39 315 -33 c 1
 378 189 l 1
 287 189 l 1
 224 -36 l 2
 219 -54 210 -62 197 -62 c 0
 188 -62 181 -55 181 -46 c 0
 181 -43 181 -43 184 -33 c 2
 247 189 l 1
 160 189 l 2
 144 189 137 194 137 205 c 0
 137 221 149 230 169 230 c 2
 258 230 l 1
 294 356 l 1
 216 356 l 2
 199 356 192 361 192 372 c 0
 192 388 204 397 225 397 c 2
 305 397 l 1
 369 622 l 2
 374 639 382 647 395 647 c 0
 404 647 411 640 411 632 c 0
 411 629 410 623 409 619 c 2
 346 397 l 1
 437 397 l 1
 500 622 l 2
 505 639 514 647 526 647 c 0
 536 647 543 640 543 632 c 0
 543 629 543 629 540 619 c 2
 477 397 l 1
 566 397 l 2
 583 397 589 392 589 381 c 0
 589 366 577 356 557 356 c 2
 466 356 l 1
425 356 m 1
 334 356 l 1
 299 230 l 1
 390 230 l 1
 425 356 l 1
EndSplineSet
EndChar
StartChar: dollar
Encoding: 4 36 32767
OldEncoding: 36
Width: 600
Flags: W
HStem: 448 115<542 566> 539 116<416 440>
VStem: 225 42<408 420>
Fore
403 576 m 1
 414 628 l 2
 418 646 426 655 440 655 c 0
 449 655 456 648 456 639 c 1
 454 616 448 597 444 576 c 1
 487 572 508 562 539 534 c 1
 544 553 553 563 566 563 c 0
 575 563 582 556 582 548 c 0
 582 545 582 543 580 536 c 1
 567 476 l 1
 564 458 554 448 542 448 c 0
 535 448 530 452 525 461 c 1
 527 485 l 1
 527 490 507 511 493 520 c 0
 475 530 441 539 416 539 c 0
 342 539 267 478 267 418 c 0
 267 401 277 381 291 371 c 0
 308 360 327 354 385 342 c 0
 454 329 480 320 502 301 c 0
 521 286 534 257 534 232 c 0
 534 140 450 66 333 54 c 1
 307 -65 l 2
 303 -83 295 -92 281 -92 c 0
 272 -92 265 -85 265 -76 c 1
 270 -29 285 9 292 54 c 1
 246 56 197 79 177 108 c 1
 172 89 169 65 147 65 c 0
 139 65 131 72 131 80 c 0
 131 82 132 88 133 92 c 2
 149 171 l 1
 153 188 163 199 176 199 c 0
 181 199 187 195 192 187 c 1
 189 155 l 1
 189 151 216 123 229 114 c 0
 247 101 287 92 320 92 c 0
 412 92 492 151 492 220 c 0
 492 239 481 260 466 271 c 0
 448 285 433 289 366 303 c 0
 304 315 277 325 256 341 c 0
 238 356 225 383 225 409 c 0
 225 489 305 565 403 576 c 1
EndSplineSet
EndChar
StartChar: percent
Encoding: 5 37 32767
OldEncoding: 37
Width: 600
Flags: W
HStem: -12 38<356 370> 198 38<401 414> 363 38<312 330> 573 38<356 370>
VStem: 216 39<460 471> 260 39<83 101> 428 39<499 517> 472 39<129 139>
Fore
412 236 m 0
 470 236 511 196 511 137 c 0
 511 61 437 -12 358 -12 c 0
 302 -12 260 30 260 86 c 0
 260 163 334 236 412 236 c 0
403 198 m 0
 350 198 299 147 299 94 c 0
 299 55 327 26 366 26 c 0
 421 26 472 76 472 131 c 0
 472 170 444 198 403 198 c 0
367 611 m 0
 426 611 467 570 467 512 c 0
 467 436 393 363 314 363 c 0
 257 363 216 405 216 462 c 0
 216 538 290 611 367 611 c 0
360 573 m 0
 306 573 255 522 255 469 c 0
 255 430 284 401 322 401 c 0
 377 401 428 451 428 505 c 0
 428 545 400 573 360 573 c 0
569 344 m 2
 163 222 l 2
 159 220 154 220 151 220 c 0
 143 220 137 227 137 235 c 0
 137 245 145 253 159 258 c 2
 565 380 l 2
 570 381 573 382 578 382 c 0
 585 382 591 375 591 367 c 0
 591 356 584 348 569 344 c 2
EndSplineSet
EndChar
StartChar: ampersand
Encoding: 6 38 32767
OldEncoding: 38
Width: 600
Flags: W
HStem: -16 41<243 261> 0 21G<393 451> 478 41<386 405>
VStem: 132 42<106 123> 249 41<377 385>
Fore
393 0 m 1
 372 48 l 1
 334 5 293 -16 247 -16 c 0
 181 -16 132 37 132 108 c 0
 132 189 192 263 277 287 c 1
 253 348 249 359 249 379 c 0
 249 449 324 519 399 519 c 0
 422 519 442 513 461 499 c 1
 468 503 482 510 490 510 c 128
 498 510 505 502 505 494 c 0
 505 483 499 476 483 468 c 2
 448 452 l 1
 431 470 414 478 391 478 c 0
 341 478 290 429 290 381 c 0
 290 364 297 339 314 298 c 2
 388 121 l 1
 417 159 440 200 461 249 c 1
 504 249 l 2
 521 249 527 245 527 233 c 0
 527 217 515 208 495 208 c 2
 483 208 l 1
 457 154 429 110 403 82 c 1
 422 41 l 1
 460 41 l 2
 476 41 483 37 483 25 c 0
 483 10 470 0 451 0 c 2
 393 0 l 1
357 86 m 1
 287 251 l 1
 222 237 174 180 174 116 c 0
 174 65 209 25 255 25 c 0
 290 25 326 47 357 86 c 1
EndSplineSet
EndChar
StartChar: quotesingle
Encoding: 7 39 32767
OldEncoding: 39
Width: 600
Flags: W
HStem: 584 20G<364 492>
Fore
364 604 m 1
 492 604 l 1
 405 351 l 1
 396 326 384 315 367 315 c 0
 353 315 344 325 344 341 c 2
 344 351 l 1
 364 604 l 1
EndSplineSet
EndChar
StartChar: parenleft
Encoding: 8 40 32767
OldEncoding: 40
Width: 600
Flags: W
VStem: 335 59<115 149>
Fore
566 604 m 0
 576 604 583 597 583 588 c 0
 583 581 583 581 572 567 c 0
 449 406 394 270 394 124 c 0
 394 56 406 -9 435 -93 c 0
 436 -96 437 -99 437 -101 c 0
 437 -112 424 -124 411 -124 c 0
 406 -124 401 -121 398 -115 c 0
 383 -90 370 -54 354 4 c 0
 340 54 335 89 335 138 c 0
 335 268 381 383 493 530 c 0
 536 586 553 604 566 604 c 0
EndSplineSet
EndChar
StartChar: parenright
Encoding: 9 41 32767
OldEncoding: 41
Width: 600
Flags: W
VStem: 313 59<323 358>
Fore
296 604 m 0
 301 604 306 601 309 595 c 0
 345 533 372 422 372 342 c 0
 372 212 326 97 214 -50 c 0
 172 -106 154 -124 141 -124 c 0
 131 -124 124 -117 124 -108 c 0
 124 -103 125 -99 130 -93 c 0
 256 69 313 208 313 356 c 0
 313 424 301 489 272 573 c 0
 271 576 270 579 270 581 c 0
 270 592 283 604 296 604 c 0
EndSplineSet
EndChar
StartChar: asterisk
Encoding: 10 42 32767
OldEncoding: 42
Width: 600
Flags: W
Fore
372 438 m 1
 402 577 l 2
 406 595 414 604 428 604 c 0
 437 604 444 597 444 589 c 1
 438 534 421 490 413 438 c 1
 556 481 l 2
 561 483 568 484 571 484 c 0
 579 484 586 476 586 468 c 0
 586 455 578 448 560 442 c 2
 417 400 l 1
 475 288 l 2
 477 284 479 276 479 273 c 0
 479 262 466 250 454 250 c 0
 446 250 443 253 437 264 c 2
 379 376 l 1
 274 264 l 2
 264 254 258 250 251 250 c 0
 241 250 234 257 234 266 c 0
 234 274 236 276 246 288 c 1
 351 400 l 1
 227 442 l 1
 219 445 211 448 211 458 c 0
 211 471 223 483 236 483 c 0
 240 483 241 483 249 480 c 2
 372 438 l 1
EndSplineSet
EndChar
StartChar: plus
Encoding: 11 43 32767
OldEncoding: 43
Width: 600
Flags: W
HStem: 261 41<152 334 384 566>
Fore
375 261 m 1
 332 59 l 2
 328 41 320 32 306 32 c 0
 297 32 290 39 290 47 c 1
 291 59 l 1
 334 261 l 1
 154 261 l 2
 138 261 131 266 131 277 c 0
 131 292 143 302 162 302 c 2
 343 302 l 1
 386 503 l 1
 389 521 398 530 412 530 c 0
 421 530 428 523 428 514 c 1
 427 503 l 1
 384 302 l 1
 564 302 l 2
 581 302 588 298 588 286 c 0
 588 271 575 261 556 261 c 2
 375 261 l 1
EndSplineSet
EndChar
StartChar: comma
Encoding: 12 44 32767
OldEncoding: 44
Width: 600
Flags: W
Fore
238 145 m 1
 371 145 l 1
 170 -120 l 2
 155 -139 147 -145 133 -145 c 0
 120 -145 110 -135 110 -122 c 0
 110 -117 112 -111 115 -105 c 2
 238 145 l 1
EndSplineSet
EndChar
StartChar: hyphen
Encoding: 13 45 32767
OldEncoding: 45
Width: 600
Flags: W
HStem: 258 41<152 566>
Fore
556 258 m 2
 154 258 l 2
 138 258 131 263 131 274 c 0
 131 290 143 299 163 299 c 2
 565 299 l 2
 581 299 588 294 588 283 c 0
 588 268 576 258 556 258 c 2
EndSplineSet
EndChar
StartChar: period
Encoding: 14 46 32767
OldEncoding: 46
Width: 600
Flags: W
HStem: -15 21G<291 302>
Fore
319 116 m 2
 330 116 l 2
 363 116 386 95 386 64 c 0
 386 22 346 -15 302 -15 c 2
 291 -15 l 2
 258 -15 235 6 235 37 c 0
 235 79 275 116 319 116 c 2
EndSplineSet
EndChar
StartChar: slash
Encoding: 15 47 32767
OldEncoding: 47
Width: 600
Flags: W
Fore
617 633 m 1
 141 -63 l 2
 131 -77 125 -81 115 -81 c 0
 107 -81 99 -74 99 -65 c 0
 99 -60 101 -55 107 -46 c 2
 583 650 l 2
 592 664 599 668 608 668 c 0
 618 668 625 661 625 652 c 0
 625 647 623 643 617 633 c 1
EndSplineSet
EndChar
StartChar: zero
Encoding: 16 48 32767
OldEncoding: 48
Width: 600
Flags: W
HStem: -15 41<296 317> 577 41<411 433>
VStem: 156 44<160 180> 527 44<416 450>
Fore
571 441 m 0
 571 375 552 309 540 251 c 1
 506 94 408 -15 298 -15 c 0
 208 -15 156 50 156 162 c 0
 156 191 159 221 166 251 c 1
 187 351 l 2
 220 509 320 618 430 618 c 0
 519 618 571 553 571 441 c 0
227 346 m 1
 216 292 200 242 200 178 c 0
 200 77 235 26 305 26 c 0
 346 26 385 44 414 79 c 0
 453 124 486 193 500 257 c 2
 519 346 l 2
 524 370 527 398 527 425 c 0
 527 526 492 577 422 577 c 0
 380 577 342 559 313 524 c 0
 273 478 240 410 227 346 c 1
EndSplineSet
EndChar
StartChar: one
Encoding: 17 49 32767
OldEncoding: 49
Width: 600
Flags: W
HStem: 0 41<139 289 330 471>
Fore
451 612 m 1
 330 41 l 1
 469 41 l 2
 486 41 492 37 492 25 c 0
 492 10 480 0 461 0 c 2
 141 0 l 2
 124 0 117 5 117 16 c 0
 117 32 129 41 149 41 c 2
 289 41 l 1
 398 557 l 1
 258 515 l 2
 247 512 246 512 243 512 c 0
 235 512 228 520 228 528 c 0
 228 541 236 548 254 554 c 2
 451 612 l 1
EndSplineSet
EndChar
StartChar: two
Encoding: 18 50 32767
OldEncoding: 50
Width: 600
Flags: W
HStem: 0 41<132 446> 0 104<476 478> 577 41<403 426>
VStem: 530 42<463 481>
Fore
132 41 m 1
 446 41 l 1
 450 64 452 104 480 104 c 0
 489 104 496 97 496 89 c 0
 496 86 496 85 494 77 c 1
 478 0 l 1
 84 0 l 1
 97 60 l 1
 380 282 l 1
 507 385 530 414 530 471 c 0
 530 529 478 577 414 577 c 0
 344 577 273 533 244 472 c 0
 237 458 230 452 219 452 c 0
 211 452 203 459 203 466 c 0
 203 481 225 516 250 542 c 0
 299 591 360 618 424 618 c 0
 505 618 572 555 572 479 c 0
 572 427 552 388 496 334 c 0
 450 290 239 122 133 44 c 1
 132 41 l 1
EndSplineSet
EndChar
StartChar: three
Encoding: 19 51 32767
OldEncoding: 51
Width: 600
Flags: W
HStem: -15 41<275 303> 577 41<413 435>
VStem: 496 42<191 199> 537 42<480 498>
Fore
444 328 m 1
 505 301 538 254 538 197 c 0
 538 89 415 -15 287 -15 c 0
 238 -15 194 -2 148 26 c 0
 122 41 110 53 110 64 c 0
 110 76 122 88 133 88 c 0
 139 88 143 86 149 81 c 0
 190 44 240 26 297 26 c 0
 400 26 496 107 496 193 c 0
 496 260 428 313 345 312 c 0
 329 312 322 317 322 328 c 0
 322 335 326 342 332 347 c 0
 339 353 339 353 380 353 c 0
 466 353 537 413 537 485 c 0
 537 539 491 577 424 577 c 0
 367 577 315 558 277 523 c 0
 264 511 261 509 253 509 c 0
 244 509 237 515 237 525 c 0
 237 534 246 545 267 561 c 0
 313 597 374 618 433 618 c 0
 520 618 579 567 579 493 c 0
 579 422 528 361 444 328 c 1
EndSplineSet
EndChar
StartChar: four
Encoding: 20 52 32767
OldEncoding: 52
Width: 600
Flags: W
HStem: 0 41<298 385 425 461> 169 41<189 412 461 498> 543 20G<472 495> 584 20G<461 545>
Fore
412 169 m 1
 141 169 l 1
 151 216 l 1
 461 604 l 1
 545 604 l 1
 461 210 l 1
 495 210 l 2
 512 210 518 206 518 194 c 0
 518 178 506 169 487 169 c 2
 453 169 l 1
 425 41 l 1
 459 41 l 2
 476 41 483 36 483 25 c 0
 483 10 470 0 451 0 c 2
 300 0 l 2
 284 0 277 5 277 16 c 0
 277 32 289 41 309 41 c 2
 385 41 l 1
 412 169 l 1
420 210 m 1
 495 563 l 1
 472 563 l 1
 189 210 l 1
 420 210 l 1
EndSplineSet
EndChar
StartChar: five
Encoding: 21 53 32767
OldEncoding: 53
Width: 600
Flags: W
HStem: -15 41<278 312> 354 41<384 407> 563 41<309 562>
VStem: 506 42<240 258>
Fore
310 563 m 1
 268 365 l 1
 324 386 363 395 405 395 c 0
 491 395 548 338 548 250 c 0
 548 108 429 -15 292 -15 c 0
 245 -15 202 -2 165 23 c 0
 133 45 113 65 113 78 c 0
 113 90 125 102 138 102 c 0
 143 102 147 100 153 93 c 0
 192 49 242 26 299 26 c 0
 367 26 427 59 466 118 c 0
 491 157 506 202 506 242 c 0
 506 311 462 354 392 354 c 0
 352 354 305 342 259 321 c 0
 246 315 241 313 235 313 c 0
 227 313 221 319 220 328 c 0
 220 330 220 333 221 335 c 1
 278 604 l 1
 560 604 l 2
 577 604 584 599 584 588 c 0
 584 572 572 563 552 563 c 2
 310 563 l 1
EndSplineSet
EndChar
StartChar: six
Encoding: 22 54 32767
OldEncoding: 54
Width: 600
Flags: W
HStem: -15 41<327 345> 323 41<407 425> 577 41<544 562>
VStem: 510 42<208 226>
Fore
228 242 m 1
 287 324 349 364 420 364 c 0
 497 364 552 304 552 219 c 0
 552 99 445 -15 333 -15 c 0
 242 -15 184 60 184 179 c 0
 184 308 235 434 319 513 c 0
 390 580 478 618 560 618 c 0
 598 618 631 604 631 587 c 0
 631 575 620 563 608 563 c 0
 603 563 599 564 591 569 c 0
 582 574 565 577 546 577 c 0
 458 577 349 510 290 420 c 0
 257 369 239 318 228 242 c 1
222 188 m 1
 224 148 225 145 230 123 c 0
 246 58 283 26 343 26 c 0
 429 26 510 116 510 212 c 0
 510 275 468 323 412 323 c 0
 373 323 329 303 289 266 c 0
 271 250 256 232 222 188 c 1
EndSplineSet
EndChar
StartChar: seven
Encoding: 23 55 32767
OldEncoding: 55
Width: 600
Flags: W
HStem: 563 41<264 556>
Fore
553 545 m 1
 557 563 l 1
 265 563 l 1
 260 540 259 500 231 500 c 0
 223 500 215 507 215 515 c 0
 215 518 216 523 217 528 c 2
 233 604 l 1
 606 604 l 1
 592 539 l 1
 319 20 l 2
 311 4 305 -1 294 -1 c 0
 285 -1 278 6 278 14 c 0
 278 19 280 24 284 32 c 2
 553 545 l 1
EndSplineSet
EndChar
StartChar: eight
Encoding: 24 56 32767
OldEncoding: 56
Width: 600
Flags: W
HStem: -15 41<289 308> 293 40<359 372> 577 41<414 434>
VStem: 143 42<126 146> 216 41<416 434> 482 42<176 194> 534 42<471 486>
Fore
441 313 m 1
 496 285 524 244 524 192 c 0
 524 87 412 -15 296 -15 c 0
 207 -15 143 45 143 128 c 0
 143 206 197 274 291 313 c 1
 237 344 216 376 216 424 c 0
 216 522 323 618 432 618 c 0
 515 618 576 561 576 483 c 0
 576 436 552 388 510 353 c 0
 491 338 475 328 441 313 c 1
422 577 m 0
 338 577 257 504 257 429 c 0
 257 374 305 333 370 333 c 0
 457 333 534 399 534 473 c 0
 534 535 489 577 422 577 c 0
361 293 m 0
 268 293 185 219 185 135 c 0
 185 71 235 26 305 26 c 0
 396 26 482 103 482 184 c 0
 482 250 434 293 361 293 c 0
EndSplineSet
EndChar
StartChar: nine
Encoding: 25 57 32767
OldEncoding: 57
Width: 600
Flags: W
HStem: -15 41<211 229> 239 41<349 367> 577 41<428 447>
VStem: 221 42<382 402>
Fore
545 361 m 1
 487 279 424 239 353 239 c 0
 276 239 221 299 221 384 c 0
 221 504 328 618 440 618 c 0
 531 618 589 543 589 424 c 0
 589 295 538 169 454 90 c 0
 383 23 295 -15 213 -15 c 0
 175 -15 142 -1 142 16 c 0
 142 28 153 40 165 40 c 0
 170 40 174 39 182 34 c 0
 191 29 208 26 227 26 c 0
 315 26 424 93 483 183 c 0
 510 225 532 282 541 334 c 0
 542 340 542 340 545 361 c 1
551 415 m 1
 549 454 548 459 543 480 c 0
 527 545 490 577 430 577 c 0
 344 577 263 487 263 391 c 0
 263 328 305 280 361 280 c 0
 400 280 444 300 484 337 c 0
 502 353 517 371 551 415 c 1
EndSplineSet
EndChar
StartChar: colon
Encoding: 26 58 32767
OldEncoding: 58
Width: 600
Flags: W
HStem: -15 131<302 319> 285 132<366 383>
Fore
319 116 m 2
 330 116 l 2
 363 116 386 95 386 65 c 0
 386 22 346 -15 302 -15 c 2
 291 -15 l 2
 258 -15 235 6 235 37 c 0
 235 79 275 116 319 116 c 2
383 417 m 2
 394 417 l 2
 427 417 450 396 450 365 c 0
 450 323 410 285 366 285 c 2
 355 285 l 2
 322 285 299 306 299 337 c 0
 299 379 339 417 383 417 c 2
EndSplineSet
EndChar
StartChar: semicolon
Encoding: 27 59 32767
OldEncoding: 59
Width: 600
Flags: W
HStem: 285 132<341 359>
Fore
242 145 m 1
 375 145 l 1
 174 -120 l 2
 159 -139 151 -145 138 -145 c 0
 124 -145 114 -135 114 -122 c 0
 114 -117 116 -111 119 -105 c 2
 242 145 l 1
359 417 m 2
 370 417 l 2
 403 417 426 396 426 365 c 0
 426 323 386 285 342 285 c 2
 331 285 l 2
 298 285 275 306 275 337 c 0
 275 379 315 417 359 417 c 2
EndSplineSet
EndChar
StartChar: less
Encoding: 28 60 32767
OldEncoding: 60
Width: 600
Flags: W
Fore
131 281 m 1
 598 513 l 2
 604 516 609 518 611 518 c 0
 618 518 623 514 625 508 c 2
 626 505 l 2
 627 503 627 502 627 499 c 0
 627 491 621 484 610 478 c 2
 213 281 l 1
 526 84 l 2
 533 79 535 76 535 70 c 0
 535 66 533 61 530 57 c 2
 528 54 l 2
 524 48 516 44 511 44 c 0
 508 44 503 46 498 49 c 2
 131 281 l 1
EndSplineSet
EndChar
StartChar: equal
Encoding: 29 61 32767
OldEncoding: 61
Width: 600
Flags: W
HStem: 190 41<116 573> 334 41<147 604>
Fore
593 334 m 2
 149 334 l 2
 133 334 126 339 126 350 c 0
 126 366 138 375 158 375 c 2
 602 375 l 2
 618 375 625 370 625 359 c 0
 625 344 613 334 593 334 c 2
562 190 m 2
 118 190 l 2
 102 190 95 195 95 206 c 0
 95 222 107 231 127 231 c 2
 571 231 l 2
 587 231 594 226 594 215 c 0
 594 200 582 190 562 190 c 2
EndSplineSet
EndChar
StartChar: greater
Encoding: 30 62 32767
OldEncoding: 62
Width: 600
Flags: W
Fore
588 281 m 1
 121 49 l 2
 115 46 110 44 108 44 c 0
 101 44 96 48 94 54 c 2
 93 57 l 2
 92 59 92 61 92 63 c 0
 92 71 98 78 109 84 c 2
 506 281 l 1
 193 478 l 2
 186 483 184 486 184 492 c 0
 184 496 186 502 189 505 c 2
 191 508 l 2
 196 514 203 518 208 518 c 0
 211 518 216 516 221 513 c 2
 588 281 l 1
EndSplineSet
EndChar
StartChar: question
Encoding: 31 63 32767
OldEncoding: 63
Width: 600
Flags: W
HStem: -15 100<294 324> 536 41<406 440>
VStem: 539 42<442 457>
Fore
375 247 m 1
 366 206 l 1
 363 188 354 179 340 179 c 0
 331 179 324 186 324 194 c 1
 326 224 335 247 340 274 c 1
 482 328 539 377 539 444 c 0
 539 500 492 536 419 536 c 0
 374 536 340 528 282 502 c 1
 278 479 276 434 248 434 c 0
 238 434 231 441 231 450 c 0
 231 452 232 456 233 461 c 2
 247 529 l 1
 259 533 264 535 279 541 c 0
 348 569 381 577 433 577 c 0
 525 577 581 531 581 455 c 0
 581 406 556 356 515 323 c 0
 481 297 444 277 375 247 c 1
305 85 m 2
 333 85 l 2
 363 85 380 70 380 45 c 0
 380 12 349 -15 312 -15 c 2
 284 -15 l 2
 255 -15 237 0 237 24 c 0
 237 58 268 85 305 85 c 2
EndSplineSet
EndChar
StartChar: at
Encoding: 32 64 32767
OldEncoding: 64
Width: 600
Flags: W
HStem: -62 41<282 303> 147 41<406 427> 583 41<418 441>
VStem: 139 42<113 147> 297 42<243 259> 519 42<481 501>
Fore
449 145 m 1
 450 150 l 1
 430 148 419 147 408 147 c 0
 343 147 297 187 297 245 c 0
 297 316 356 384 438 408 c 0
 461 414 477 416 506 416 c 1
 511 440 519 462 519 490 c 0
 519 547 483 583 425 583 c 0
 334 583 250 490 222 358 c 2
 188 198 l 1
 184 176 181 152 181 131 c 0
 181 82 195 35 218 9 c 0
 236 -11 264 -21 301 -21 c 0
 344 -21 388 -9 412 9 c 0
 425 19 427 20 434 20 c 0
 443 20 450 13 450 5 c 0
 450 -27 364 -62 286 -62 c 0
 238 -62 202 -46 178 -13 c 128
 154 20 139 70 139 121 c 0
 139 146 142 172 147 198 c 1
 182 361 l 1
 214 513 320 624 433 624 c 0
 510 624 561 574 561 499 c 0
 561 487 560 475 557 463 c 1
 498 186 l 1
 509 184 514 180 514 170 c 0
 514 154 502 145 482 145 c 2
 449 145 l 1
459 192 m 1
 498 376 l 1
 410 376 339 322 339 255 c 0
 339 214 371 188 420 188 c 0
 432 188 446 189 459 192 c 1
EndSplineSet
EndChar
StartChar: A
Encoding: 33 65 32767
OldEncoding: 65
Width: 600
Flags: W
HStem: 0 41<34 76 117 196 406 493 535 575> 188 41<227 462> 522 41<235 357 396 412>
VStem: 13 206<16 25> 385 211<16 25>
Fore
468 188 m 1
 203 188 l 1
 117 41 l 1
 196 41 l 2
 213 41 219 37 219 25 c 0
 219 10 206 0 187 0 c 2
 36 0 l 2
 20 0 13 5 13 17 c 0
 13 32 25 41 45 41 c 2
 76 41 l 1
 357 522 l 1
 237 522 l 2
 221 522 214 527 214 538 c 0
 214 554 226 563 246 563 c 2
 449 563 l 1
 536 41 l 1
 573 41 l 2
 590 41 596 37 596 25 c 0
 596 10 584 0 564 0 c 2
 408 0 l 2
 392 0 385 5 385 16 c 0
 385 32 397 41 417 41 c 2
 493 41 l 1
 468 188 l 1
462 229 m 1
 412 522 l 1
 397 522 l 1
 227 229 l 1
 462 229 l 1
EndSplineSet
EndChar
StartChar: B
Encoding: 34 66 32767
OldEncoding: 66
Width: 600
Flags: W
HStem: 0 41<68 133 174 385> 272 41<232 400> 522 41<179 234 275 450>
VStem: 535 42<173 183> 549 42<431 447>
Fore
133 41 m 1
 235 522 l 1
 181 522 l 2
 165 522 158 527 158 539 c 0
 158 554 170 563 190 563 c 2
 448 563 l 2
 533 563 591 515 591 445 c 0
 591 383 554 335 477 298 c 1
 544 273 577 234 577 181 c 0
 577 88 479 0 377 0 c 2
 70 0 l 2
 54 0 47 5 47 17 c 0
 47 32 59 41 79 41 c 2
 133 41 l 1
232 313 m 1
 379 313 l 2
 474 313 549 368 549 437 c 0
 549 457 538 480 521 496 c 0
 501 514 476 522 440 522 c 2
 276 522 l 1
 232 313 l 1
174 41 m 1
 382 41 l 2
 463 41 535 104 535 175 c 0
 535 201 518 229 493 246 c 0
 465 265 433 272 372 272 c 2
 223 272 l 1
 174 41 l 1
EndSplineSet
EndChar
StartChar: C
Encoding: 35 67 32767
OldEncoding: 67
Width: 600
Flags: W
HStem: -16 41<317 335> 536 40<413 430>
VStem: 110 42<191 209>
Fore
586 507 m 1
 591 529 593 563 618 563 c 0
 628 563 635 557 635 548 c 0
 635 546 634 541 633 536 c 2
 609 424 l 1
 606 406 596 396 583 396 c 0
 577 396 572 399 566 408 c 1
 570 446 l 1
 570 449 546 486 538 494 c 0
 515 518 464 536 419 536 c 0
 309 536 197 438 172 319 c 2
 157 248 l 2
 154 233 152 217 152 203 c 0
 152 101 227 25 328 25 c 0
 397 25 454 51 522 115 c 0
 530 123 534 125 542 125 c 0
 552 125 558 119 558 111 c 0
 558 100 551 91 524 67 c 0
 461 14 389 -16 319 -16 c 0
 201 -16 110 76 110 196 c 0
 110 212 112 227 115 242 c 2
 132 325 l 1
 157 442 280 576 428 576 c 0
 494 576 549 552 586 507 c 1
EndSplineSet
EndChar
StartChar: D
Encoding: 36 68 32767
OldEncoding: 68
Width: 600
Flags: W
HStem: 0 41<68 114 154 305> 522 41<179 215 255 416>
VStem: 551 41<351 370>
Fore
113 41 m 1
 215 522 l 1
 181 522 l 2
 165 522 158 527 158 538 c 0
 158 554 170 563 190 563 c 2
 410 563 l 2
 519 563 592 484 592 368 c 0
 592 348 590 329 586 310 c 2
 574 254 l 2
 544 112 419 0 290 0 c 2
 70 0 l 2
 54 0 47 5 47 16 c 0
 47 32 59 41 79 41 c 2
 113 41 l 1
154 41 m 1
 303 41 l 2
 399 41 508 139 531 245 c 2
 547 318 l 1
 549 332 551 346 551 357 c 0
 551 399 538 440 514 472 c 0
 488 507 453 522 399 522 c 2
 256 522 l 1
 154 41 l 1
EndSplineSet
EndChar
StartChar: E
Encoding: 37 69 32767
OldEncoding: 69
Width: 600
Flags: W
HStem: 0 41<68 133 174 488> 272 41<232 368> 522 41<179 234 275 569>
Fore
223 272 m 1
 174 41 l 1
 488 41 l 1
 513 160 l 2
 517 178 526 187 540 187 c 0
 549 187 556 180 556 172 c 0
 556 169 555 165 554 160 c 2
 520 0 l 1
 70 0 l 2
 54 0 47 5 47 17 c 0
 47 32 59 41 79 41 c 2
 133 41 l 1
 235 522 l 1
 181 522 l 2
 165 522 158 527 158 539 c 0
 158 554 170 563 190 563 c 2
 619 563 l 1
 589 424 l 1
 586 406 577 397 563 397 c 0
 554 397 547 404 547 412 c 1
 550 453 563 484 569 522 c 1
 276 522 l 1
 232 313 l 1
 377 313 l 1
 386 358 l 1
 390 376 399 385 412 385 c 0
 422 385 429 378 429 370 c 0
 429 368 428 362 427 358 c 2
 399 227 l 1
 396 209 387 200 373 200 c 0
 364 200 357 207 357 215 c 1
 358 236 365 253 368 272 c 1
 223 272 l 1
EndSplineSet
EndChar
StartChar: F
Encoding: 38 70 32767
OldEncoding: 70
Width: 600
Flags: W
HStem: 0 41<68 133 174 314> 272 41<232 368> 522 41<179 234 275 590>
Fore
223 272 m 1
 174 41 l 1
 312 41 l 2
 329 41 336 36 336 25 c 0
 336 10 323 0 304 0 c 2
 70 0 l 2
 54 0 47 5 47 16 c 0
 47 32 59 41 79 41 c 2
 133 41 l 1
 235 522 l 1
 181 522 l 2
 165 522 158 527 158 538 c 0
 158 554 170 563 190 563 c 2
 640 563 l 1
 610 424 l 1
 607 406 598 397 584 397 c 0
 576 397 568 404 568 412 c 1
 571 453 584 484 590 522 c 1
 276 522 l 1
 232 313 l 1
 377 313 l 1
 386 358 l 1
 390 376 399 385 412 385 c 0
 422 385 429 379 429 370 c 0
 429 368 428 362 427 358 c 2
 399 227 l 1
 396 209 387 200 373 200 c 0
 364 200 357 207 357 215 c 1
 358 236 365 253 368 272 c 1
 223 272 l 1
EndSplineSet
EndChar
StartChar: G
Encoding: 39 71 32767
OldEncoding: 71
Width: 600
Flags: W
HStem: -16 41<315 349> 209 41<383 524 564 590> 536 40<426 445>
VStem: 108 42<175 193>
Fore
565 209 m 1
 528 36 l 1
 462 2 392 -16 330 -16 c 0
 193 -16 108 59 108 179 c 0
 108 200 110 222 115 244 c 2
 131 318 l 2
 162 463 295 576 436 576 c 0
 502 576 553 558 590 522 c 1
 594 542 599 563 619 563 c 0
 629 563 636 556 636 548 c 0
 636 545 636 544 634 536 c 1
 615 445 l 2
 611 427 601 417 588 417 c 0
 583 417 578 421 572 429 c 1
 575 465 l 1
 576 471 552 499 537 508 c 1
 513 525 468 536 428 536 c 0
 313 536 197 438 172 317 c 1
 163 277 150 233 150 187 c 0
 150 86 222 25 341 25 c 0
 393 25 430 33 492 59 c 1
 524 209 l 1
 385 209 l 2
 369 209 362 214 362 225 c 0
 362 241 374 250 394 250 c 2
 588 250 l 2
 605 250 612 245 612 234 c 0
 612 219 599 209 579 209 c 2
 565 209 l 1
EndSplineSet
EndChar
StartChar: H
Encoding: 40 72 32767
OldEncoding: 72
Width: 600
Flags: W
HStem: 0 41<79 135 176 230 381 446 487 534> 272 41<234 494> 522 41<210 236 277 343 492 548 588 625>
VStem: 57 196<16 25> 189 175<538 547> 360 196<16 25> 471 175<538 547>
Fore
495 272 m 1
 225 272 l 1
 176 41 l 1
 230 41 l 2
 247 41 253 37 253 25 c 0
 253 10 240 0 221 0 c 2
 81 0 l 2
 64 0 57 5 57 16 c 0
 57 32 69 41 89 41 c 2
 135 41 l 1
 237 522 l 1
 212 522 l 2
 196 522 189 527 189 538 c 0
 189 554 201 563 221 563 c 2
 341 563 l 2
 358 563 364 559 364 547 c 0
 364 532 352 522 332 522 c 2
 278 522 l 1
 234 313 l 1
 504 313 l 1
 548 522 l 1
 494 522 l 2
 478 522 471 527 471 538 c 0
 471 554 483 563 503 563 c 2
 623 563 l 2
 640 563 646 559 646 547 c 0
 646 532 634 522 614 522 c 2
 589 522 l 1
 487 41 l 1
 532 41 l 2
 550 41 556 37 556 25 c 0
 556 10 543 0 524 0 c 2
 383 0 l 2
 367 0 360 5 360 16 c 0
 360 32 372 41 392 41 c 2
 446 41 l 1
 495 272 l 1
EndSplineSet
EndChar
StartChar: I
Encoding: 41 73 32767
OldEncoding: 73
Width: 600
Flags: W
HStem: 0 41<138 288 329 470> 522 41<249 390 430 581>
Fore
431 522 m 1
 329 41 l 1
 468 41 l 2
 486 41 492 37 492 25 c 0
 492 10 479 0 460 0 c 2
 140 0 l 2
 124 0 117 5 117 16 c 0
 117 32 129 41 148 41 c 2
 288 41 l 1
 390 522 l 1
 251 522 l 2
 235 522 228 527 228 538 c 0
 228 554 240 563 259 563 c 2
 579 563 l 2
 597 563 603 559 603 547 c 0
 603 532 590 522 571 522 c 2
 431 522 l 1
EndSplineSet
EndChar
StartChar: J
Encoding: 42 74 32767
OldEncoding: 74
Width: 600
Flags: W
HStem: -16 41<259 281> 522 41<370 530 570 678>
Fore
571 522 m 1
 495 165 l 2
 474 67 371 -16 269 -16 c 0
 205 -16 158 9 100 74 c 1
 132 223 l 2
 136 241 144 250 158 250 c 0
 167 250 174 243 174 235 c 1
 169 183 153 142 145 93 c 1
 186 47 228 25 278 25 c 0
 360 25 438 87 454 165 c 1
 530 522 l 1
 372 522 l 2
 355 522 348 527 348 538 c 0
 348 554 360 563 380 563 c 2
 676 563 l 2
 693 563 699 559 699 547 c 0
 699 532 687 522 667 522 c 2
 571 522 l 1
EndSplineSet
EndChar
StartChar: K
Encoding: 43 75 32767
OldEncoding: 75
Width: 600
Flags: W
HStem: 0 41<68 133 174 250 497 554> 522 41<179 235 275 361 509 556 612 640>
VStem: 47 225<16 25> 158 225<539 547> 487 175<538 547>
Fore
212 221 m 1
 174 41 l 1
 248 41 l 2
 265 41 272 36 272 25 c 0
 272 10 259 0 240 0 c 2
 70 0 l 2
 54 0 47 5 47 17 c 0
 47 32 59 41 79 41 c 2
 133 41 l 1
 235 522 l 1
 181 522 l 2
 165 522 158 527 158 539 c 0
 158 554 170 563 190 563 c 2
 359 563 l 2
 377 563 383 559 383 547 c 0
 383 532 371 522 351 522 c 2
 276 522 l 1
 223 273 l 1
 556 522 l 1
 511 522 l 2
 494 522 487 527 487 538 c 0
 487 554 499 563 519 563 c 2
 638 563 l 2
 656 563 662 559 662 547 c 0
 662 532 650 522 630 522 c 2
 613 522 l 1
 349 324 l 1
 437 284 464 233 498 41 c 1
 554 41 l 2
 570 41 577 36 577 25 c 0
 577 10 564 0 545 0 c 2
 459 0 l 1
 428 204 397 263 309 294 c 1
 212 221 l 1
EndSplineSet
EndChar
StartChar: L
Encoding: 44 76 32767
OldEncoding: 76
Width: 600
Flags: W
HStem: 0 41<88 195 236 508> 522 41<199 297 337 445>
Fore
338 522 m 1
 236 41 l 1
 508 41 l 1
 542 201 l 2
 546 219 555 228 568 228 c 0
 578 228 585 222 585 214 c 0
 585 211 584 206 583 201 c 2
 541 0 l 1
 90 0 l 2
 74 0 67 5 67 16 c 0
 67 32 79 41 99 41 c 2
 195 41 l 1
 297 522 l 1
 201 522 l 2
 184 522 178 527 178 539 c 0
 178 554 190 563 209 563 c 2
 443 563 l 2
 460 563 466 559 466 547 c 0
 466 532 454 522 434 522 c 2
 338 522 l 1
EndSplineSet
EndChar
StartChar: M
Encoding: 45 77 32767
OldEncoding: 77
Width: 600
Flags: W
HStem: 0 41<36 82 122 198 414 500 541 575> 522 41<156 183 223 232 593 601 642 679>
VStem: 15 205<16 25> 394 204<16 25>
Fore
362 169 m 1
 316 169 l 1
 232 522 l 1
 224 522 l 1
 122 41 l 1
 196 41 l 2
 213 41 220 36 220 25 c 0
 220 10 207 0 188 0 c 2
 38 0 l 2
 22 0 15 5 15 17 c 0
 15 32 27 41 47 41 c 2
 81 41 l 1
 183 522 l 1
 158 522 l 2
 141 522 135 527 135 539 c 0
 135 554 147 563 167 563 c 2
 266 563 l 1
 349 215 l 1
 577 563 l 1
 677 563 l 2
 694 563 700 559 700 547 c 0
 700 532 688 522 668 522 c 2
 643 522 l 1
 541 41 l 1
 575 41 l 2
 591 41 598 36 598 25 c 0
 598 10 585 0 566 0 c 2
 417 0 l 2
 401 0 394 5 394 17 c 0
 394 32 406 41 425 41 c 2
 500 41 l 1
 602 522 l 1
 594 522 l 1
 362 169 l 1
EndSplineSet
EndChar
StartChar: N
Encoding: 46 78 32767
OldEncoding: 78
Width: 600
Flags: W
HStem: 0 41<67 113 153 229> 522 41<158 214 495 571 611 657>
VStem: 46 205<16 25> 473 205<538 547>
Fore
501 0 m 1
 449 0 l 1
 251 504 l 1
 153 41 l 1
 227 41 l 2
 244 41 251 37 251 25 c 0
 251 10 238 0 219 0 c 2
 69 0 l 2
 53 0 46 5 46 17 c 0
 46 32 58 41 78 41 c 2
 112 41 l 1
 214 522 l 1
 160 522 l 2
 143 522 137 527 137 539 c 0
 137 554 149 563 169 563 c 2
 275 563 l 1
 473 59 l 1
 571 522 l 1
 497 522 l 2
 480 522 473 527 473 538 c 0
 473 554 485 563 505 563 c 2
 655 563 l 2
 672 563 678 559 678 547 c 0
 678 532 666 522 646 522 c 2
 612 522 l 1
 501 0 l 1
EndSplineSet
EndChar
StartChar: O
Encoding: 47 79 32767
OldEncoding: 79
Width: 600
Flags: W
HStem: -16 41<293 311> 535 41<405 424>
VStem: 102 42<205 225> 574 42<335 359>
Fore
422 576 m 0
 536 576 616 486 616 357 c 0
 616 164 461 -16 296 -16 c 0
 181 -16 102 74 102 207 c 0
 102 396 258 576 422 576 c 0
415 535 m 0
 277 535 144 378 144 216 c 0
 144 106 211 25 302 25 c 0
 441 25 574 181 574 345 c 0
 574 455 507 535 415 535 c 0
EndSplineSet
EndChar
StartChar: P
Encoding: 48 80 32767
OldEncoding: 80
Width: 600
Flags: W
HStem: 0 41<68 133 174 314> 231 41<223 368> 522 41<179 235 275 432>
VStem: 545 42<415 433>
Fore
214 231 m 1
 174 41 l 1
 312 41 l 2
 329 41 336 36 336 25 c 0
 336 10 323 0 303 0 c 2
 70 0 l 2
 54 0 47 5 47 17 c 0
 47 32 59 41 79 41 c 2
 133 41 l 1
 235 522 l 1
 181 522 l 2
 164 522 158 527 158 539 c 0
 158 554 170 563 190 563 c 2
 430 563 l 2
 522 563 587 508 587 431 c 0
 587 324 474 231 346 231 c 2
 214 231 l 1
223 272 m 1
 357 272 l 2
 455 272 545 343 545 421 c 0
 545 479 494 522 425 522 c 2
 276 522 l 1
 223 272 l 1
EndSplineSet
EndChar
StartChar: Q
Encoding: 49 81 32767
OldEncoding: 81
Width: 600
Flags: W
HStem: -115 41<416 431> -89 41<293 311> 535 41<405 431>
VStem: 102 42<204 222> 574 42<332 366>
Fore
301 -16 m 1
 238 -56 l 1
 270 -50 286 -48 307 -48 c 0
 337 -48 359 -52 386 -63 c 0
 409 -72 416 -74 429 -74 c 0
 450 -74 468 -67 504 -47 c 0
 509 -44 513 -43 517 -43 c 0
 526 -43 533 -49 533 -59 c 0
 533 -70 527 -76 510 -86 c 0
 478 -104 443 -115 418 -115 c 0
 402 -115 391 -112 364 -102 c 0
 339 -92 323 -89 298 -89 c 0
 269 -89 200 -100 153 -112 c 0
 149 -113 145 -114 143 -114 c 0
 133 -114 127 -107 127 -97 c 0
 127 -89 132 -81 142 -75 c 2
 246 -10 l 1
 160 10 102 97 102 206 c 0
 102 396 258 576 422 576 c 0
 537 576 616 486 616 354 c 0
 616 166 465 -11 301 -16 c 1
415 535 m 0
 277 535 144 379 144 216 c 0
 144 106 211 25 302 25 c 0
 441 25 574 181 574 346 c 0
 574 455 507 535 415 535 c 0
EndSplineSet
EndChar
StartChar: R
Encoding: 50 82 32767
OldEncoding: 82
Width: 600
Flags: W
HStem: 0 41<68 133 174 250 539 572> 251 41<227 351> 522 41<179 235 275 440>
VStem: 545 42<423 437>
Fore
218 251 m 1
 174 41 l 1
 248 41 l 2
 265 41 272 37 272 25 c 0
 272 10 259 0 240 0 c 2
 70 0 l 2
 54 0 47 5 47 17 c 0
 47 32 59 41 79 41 c 2
 133 41 l 1
 235 522 l 1
 181 522 l 2
 164 522 158 527 158 539 c 0
 158 554 170 563 189 563 c 2
 438 563 l 2
 522 563 587 507 587 434 c 0
 587 357 528 299 414 262 c 1
 468 218 489 183 540 41 c 1
 570 41 l 2
 587 41 594 36 594 25 c 0
 594 10 581 0 562 0 c 2
 505 0 l 1
 452 162 419 216 351 251 c 1
 218 251 l 1
227 292 m 1
 341 292 l 2
 448 292 545 355 545 425 c 0
 545 479 493 522 429 522 c 2
 276 522 l 1
 227 292 l 1
EndSplineSet
EndChar
StartChar: S
Encoding: 51 83 32767
OldEncoding: 83
Width: 600
Flags: W
HStem: -17 41<287 321> 536 41<399 433>
VStem: 201 45<390 407> 500 45<168 187>
Fore
555 517 m 1
 559 538 563 563 586 563 c 0
 595 563 602 556 602 548 c 0
 602 545 602 543 600 536 c 1
 578 433 l 1
 575 416 565 405 553 405 c 0
 547 405 542 408 536 417 c 1
 539 459 l 1
 539 464 517 497 508 506 c 0
 491 523 451 536 416 536 c 0
 326 536 246 471 246 399 c 0
 246 340 305 321 378 309 c 0
 453 296 480 287 505 269 c 0
 528 252 545 217 545 185 c 0
 545 137 520 84 482 50 c 0
 437 10 364 -17 301 -17 c 0
 231 -17 176 9 145 56 c 1
 140 34 138 0 112 0 c 0
 103 0 96 7 96 15 c 0
 96 17 97 23 98 27 c 2
 121 139 l 1
 125 157 135 167 148 167 c 0
 154 167 159 163 164 155 c 1
 160 109 l 1
 160 103 188 65 201 55 c 0
 222 37 268 24 307 24 c 0
 410 24 500 95 500 177 c 0
 500 199 487 224 470 237 c 0
 450 253 430 259 361 271 c 0
 293 283 259 295 234 317 c 0
 214 334 201 364 201 392 c 0
 201 489 305 577 420 577 c 0
 479 577 523 558 555 517 c 1
EndSplineSet
EndChar
StartChar: T
Encoding: 52 84 32767
OldEncoding: 84
Width: 600
Flags: W
HStem: 0 41<173 289 330 436> 522 41<223 391 431 598>
Fore
330 41 m 1
 435 41 l 2
 451 41 458 36 458 25 c 0
 458 10 445 0 426 0 c 2
 175 0 l 2
 159 0 152 5 152 17 c 0
 152 32 164 41 184 41 c 2
 289 41 l 1
 391 522 l 1
 224 522 l 1
 209 449 l 1
 205 431 196 422 182 422 c 0
 173 422 166 429 166 437 c 1
 170 483 185 519 192 563 c 1
 648 563 l 1
 624 449 l 2
 620 431 611 421 598 421 c 0
 592 421 583 428 582 435 c 0
 582 436 582 447 583 449 c 1
 598 522 l 1
 432 522 l 1
 330 41 l 1
EndSplineSet
EndChar
StartChar: U
Encoding: 53 85 32767
OldEncoding: 85
Width: 600
Flags: W
HStem: -16 41<295 313> 522 41<176 212 252 337 493 569 609 655>
VStem: 136 42<138 153> 155 204<538 547> 472 204<539 547>
Fore
610 522 m 1
 539 185 l 2
 515 72 409 -16 297 -16 c 0
 201 -16 136 47 136 140 c 0
 136 154 138 170 141 185 c 2
 212 522 l 1
 179 522 l 2
 162 522 155 527 155 538 c 0
 155 554 167 563 187 563 c 2
 337 563 l 2
 353 563 359 559 359 547 c 0
 359 532 347 522 328 522 c 2
 253 522 l 1
 182 185 l 1
 179 173 178 161 178 151 c 0
 178 76 230 25 305 25 c 0
 394 25 479 95 498 185 c 2
 569 522 l 1
 495 522 l 2
 478 522 472 527 472 539 c 0
 472 554 484 563 504 563 c 2
 653 563 l 2
 670 563 676 559 676 547 c 0
 676 532 664 522 644 522 c 2
 610 522 l 1
EndSplineSet
EndChar
StartChar: V
Encoding: 54 86 32767
OldEncoding: 86
Width: 600
Flags: W
HStem: 0 21G<268 324> 522 41<145 178 222 309 523 604 643 686>
VStem: 124 206<538 547> 502 205<538 547>
Fore
268 0 m 1
 178 522 l 1
 147 522 l 2
 130 522 124 527 124 538 c 0
 124 554 136 563 156 563 c 2
 306 563 l 2
 324 563 330 559 330 547 c 0
 330 531 318 522 298 522 c 2
 222 522 l 1
 305 41 l 1
 307 41 l 1
 604 522 l 1
 525 522 l 2
 508 522 502 527 502 538 c 0
 502 554 514 563 533 563 c 2
 684 563 l 2
 701 563 707 559 707 547 c 0
 707 531 695 522 675 522 c 2
 644 522 l 1
 324 0 l 1
 268 0 l 1
EndSplineSet
EndChar
StartChar: W
Encoding: 55 87 32767
OldEncoding: 87
Width: 600
Flags: W
HStem: 0 21G<122 185 412 476> 522 41<156 173 213 319 512 610 648 675>
VStem: 135 205<538 547> 491 205<538 547>
Fore
122 0 m 1
 173 522 l 1
 158 522 l 2
 142 522 135 527 135 538 c 0
 135 554 147 563 167 563 c 2
 316 563 l 2
 334 563 340 559 340 547 c 0
 340 532 328 522 308 522 c 2
 214 522 l 1
 169 46 l 1
 364 438 l 1
 426 438 l 1
 452 46 l 1
 610 522 l 1
 514 522 l 2
 498 522 491 527 491 538 c 0
 491 554 503 563 523 563 c 2
 673 563 l 2
 690 563 696 559 696 547 c 0
 696 532 684 522 664 522 c 2
 649 522 l 1
 476 0 l 1
 412 0 l 1
 385 400 l 1
 185 0 l 1
 122 0 l 1
EndSplineSet
EndChar
StartChar: X
Encoding: 56 88 32767
OldEncoding: 88
Width: 600
Flags: W
HStem: 0 41<65 93 142 208 399 472 524 543> 522 41<187 204 256 310 517 565 614 641>
VStem: 44 186<16 25> 166 165<538 547> 378 187<16 25> 496 166<538 547>
Fore
386 288 m 1
 525 41 l 1
 542 41 l 2
 559 41 565 37 565 25 c 0
 565 10 552 0 533 0 c 2
 401 0 l 2
 385 0 378 5 378 16 c 0
 378 32 390 41 410 41 c 2
 472 41 l 1
 352 255 l 1
 142 41 l 1
 207 41 l 2
 224 41 230 37 230 25 c 0
 230 10 218 0 198 0 c 2
 67 0 l 2
 51 0 44 5 44 16 c 0
 44 32 56 41 76 41 c 2
 93 41 l 1
 334 288 l 1
 204 522 l 1
 189 522 l 2
 173 522 166 527 166 538 c 0
 166 554 178 563 197 563 c 2
 308 563 l 2
 325 563 331 559 331 547 c 0
 331 532 319 522 299 522 c 2
 256 522 l 1
 368 321 l 1
 565 522 l 1
 519 522 l 2
 503 522 496 527 496 538 c 0
 496 554 508 563 528 563 c 2
 639 563 l 2
 656 563 662 559 662 547 c 0
 662 532 650 522 630 522 c 2
 615 522 l 1
 386 288 l 1
EndSplineSet
EndChar
StartChar: Y
Encoding: 57 89 32767
OldEncoding: 89
Width: 600
Flags: W
HStem: 0 41<174 290 331 438> 522 41<187 213 262 311 520 564 609 642>
VStem: 166 166<538 547> 499 166<538 546>
Fore
376 254 m 1
 331 41 l 1
 436 41 l 2
 453 41 459 36 459 25 c 0
 459 10 447 0 427 0 c 2
 176 0 l 2
 160 0 153 5 153 16 c 0
 153 32 165 41 185 41 c 2
 290 41 l 1
 335 254 l 1
 213 522 l 1
 189 522 l 2
 173 522 166 527 166 538 c 0
 166 554 178 563 198 563 c 2
 309 563 l 2
 326 563 332 559 332 547 c 0
 332 532 320 522 300 522 c 2
 262 522 l 1
 366 295 l 1
 564 522 l 1
 523 522 l 2
 506 522 499 527 499 538 c 0
 499 554 511 563 532 563 c 2
 642 563 l 2
 658 563 665 558 665 546 c 0
 665 532 652 522 633 522 c 2
 610 522 l 1
 376 254 l 1
EndSplineSet
EndChar
StartChar: Z
Encoding: 58 90 32767
OldEncoding: 90
Width: 600
Flags: W
HStem: 0 41<150 465> 522 41<272 542>
Fore
497 0 m 1
 103 0 l 1
 116 59 l 1
 541 519 l 1
 542 522 l 1
 273 522 l 1
 248 404 l 2
 244 385 235 376 221 376 c 0
 212 376 205 383 205 392 c 0
 205 395 205 396 207 404 c 1
 241 563 l 1
 590 563 l 1
 578 505 l 1
 151 45 l 1
 150 41 l 1
 465 41 l 1
 495 182 l 2
 499 200 507 209 521 209 c 0
 531 209 538 202 538 194 c 0
 538 191 537 185 536 182 c 1
 497 0 l 1
EndSplineSet
EndChar
StartChar: bracketleft
Encoding: 59 91 32767
OldEncoding: 91
Width: 600
Flags: W
HStem: -124 41<304 403> 563 41<440 549>
Fore
441 563 m 1
 304 -83 l 1
 401 -83 l 2
 418 -83 424 -87 424 -99 c 0
 424 -114 412 -124 392 -124 c 2
 254 -124 l 1
 409 604 l 1
 547 604 l 2
 564 604 570 600 570 588 c 0
 570 572 558 563 538 563 c 2
 441 563 l 1
EndSplineSet
EndChar
StartChar: backslash
Encoding: 60 92 32767
OldEncoding: 92
Width: 600
Flags: W
Fore
292 650 m 1
 472 -46 l 2
 473 -50 474 -55 474 -57 c 0
 474 -69 462 -81 449 -81 c 0
 439 -81 435 -77 432 -63 c 1
 252 633 l 2
 251 637 250 642 250 644 c 0
 250 656 262 668 275 668 c 0
 285 668 289 664 292 650 c 1
EndSplineSet
EndChar
StartChar: bracketright
Encoding: 61 93 32767
OldEncoding: 93
Width: 600
Flags: W
HStem: -124 41<153 261> 563 41<299 398>
Fore
261 -83 m 1
 398 563 l 1
 301 563 l 2
 284 563 278 567 278 579 c 0
 278 594 290 604 310 604 c 2
 448 604 l 1
 293 -124 l 1
 155 -124 l 2
 138 -124 132 -120 132 -108 c 0
 132 -92 144 -83 164 -83 c 2
 261 -83 l 1
EndSplineSet
EndChar
StartChar: asciicircum
Encoding: 62 94 32767
OldEncoding: 94
Width: 600
Flags: W
Fore
430 615 m 1
 562 392 l 2
 565 387 567 381 567 378 c 0
 567 366 554 354 542 354 c 0
 534 354 530 357 524 367 c 2
 417 552 l 1
 231 367 l 2
 221 357 216 354 208 354 c 0
 199 354 192 361 192 370 c 0
 192 377 195 382 205 392 c 2
 430 615 l 1
EndSplineSet
EndChar
StartChar: underscore
Encoding: 63 95 32767
OldEncoding: 95
Width: 600
Flags: W
HStem: -125 50<-61 564>
Fore
564 -75 m 1
 564 -125 l 1
 -61 -125 l 1
 -61 -75 l 1
 564 -75 l 1
EndSplineSet
EndChar
StartChar: grave
Encoding: 64 96 32767
OldEncoding: 96
Width: 600
Flags: W
Fore
328 630 m 2
 420 530 l 1
 423 528 429 516 429 514 c 0
 429 502 415 490 403 490 c 0
 398 490 393 493 387 499 c 2
 294 599 l 2
 289 605 286 610 286 614 c 0
 286 627 298 639 312 639 c 0
 317 639 321 637 328 630 c 2
EndSplineSet
EndChar
StartChar: a
Encoding: 65 97 32767
OldEncoding: 97
Width: 600
Flags: W
HStem: -16 41<218 238> 0 41<469 525> 217 41<316 366> 390 41<377 398>
VStem: 93 42<85 98> 486 42<319 333>
Fore
419 0 m 1
 433 67 l 1
 360 10 295 -16 225 -16 c 0
 143 -16 93 23 93 87 c 0
 93 184 200 258 338 258 c 0
 384 258 414 253 470 237 c 1
 485 308 l 2
 486 313 486 316 486 322 c 0
 486 363 444 390 379 390 c 0
 345 390 304 382 231 360 c 0
 226 359 223 358 220 358 c 0
 212 358 205 365 205 374 c 0
 205 384 211 392 223 397 c 0
 259 412 353 431 391 431 c 0
 472 431 528 390 528 331 c 0
 528 322 527 316 526 308 c 1
 469 41 l 1
 523 41 l 2
 540 41 546 37 546 25 c 0
 546 10 534 0 514 0 c 2
 419 0 l 1
443 112 m 1
 462 202 l 1
 427 211 382 217 337 217 c 0
 222 217 135 165 135 96 c 0
 135 51 170 25 231 25 c 0
 304 25 361 49 443 112 c 1
EndSplineSet
EndChar
StartChar: b
Encoding: 66 98 32767
OldEncoding: 98
Width: 600
Flags: W
HStem: -16 41<313 331> 0 41<47 112> 390 41<393 418> 563 41<167 223>
VStem: 549 42<239 261>
Fore
272 604 m 1
 214 328 l 1
 279 399 342 431 416 431 c 0
 519 431 591 360 591 258 c 0
 591 117 459 -16 319 -16 c 0
 247 -16 195 19 163 88 c 1
 144 0 l 1
 49 0 l 2
 33 0 26 5 26 17 c 0
 26 32 38 41 58 41 c 2
 112 41 l 1
 223 563 l 1
 169 563 l 2
 152 563 146 567 146 580 c 0
 146 595 158 604 177 604 c 2
 272 604 l 1
404 390 m 0
 290 390 184 282 184 167 c 0
 184 86 245 25 326 25 c 0
 441 25 549 132 549 247 c 0
 549 330 488 390 404 390 c 0
EndSplineSet
EndChar
StartChar: c
Encoding: 67 99 32767
OldEncoding: 99
Width: 600
Flags: W
HStem: -17 41<296 314> 391 41<391 410>
VStem: 121 42<150 164>
Fore
551 376 m 1
 555 395 559 417 580 417 c 0
 589 417 596 410 596 402 c 0
 596 399 595 395 594 389 c 1
 575 298 l 2
 571 280 562 270 549 270 c 0
 542 270 537 273 532 282 c 1
 535 318 l 1
 535 323 510 353 498 362 c 0
 477 379 433 391 393 391 c 0
 323 391 258 360 216 306 c 0
 183 264 163 210 163 162 c 0
 163 81 225 24 312 24 c 0
 387 24 460 50 519 97 c 0
 527 104 534 108 539 108 c 0
 546 108 555 99 555 91 c 0
 555 79 534 59 501 39 c 0
 442 3 369 -17 301 -17 c 0
 196 -17 121 53 121 152 c 0
 121 301 253 432 403 432 c 0
 465 432 516 413 551 376 c 1
EndSplineSet
EndChar
StartChar: d
Encoding: 68 100 32767
OldEncoding: 100
Width: 600
Flags: W
HStem: -16 41<272 295> 0 41<510 565> 390 41<357 375> 563 41<524 580>
VStem: 102 42<155 177>
Fore
630 604 m 1
 510 41 l 1
 565 41 l 2
 581 41 587 37 587 25 c 0
 587 10 575 0 556 0 c 2
 461 0 l 1
 480 89 l 1
 417 18 350 -16 274 -16 c 0
 176 -16 102 58 102 157 c 0
 102 299 232 431 371 431 c 0
 446 431 496 398 530 327 c 1
 580 563 l 1
 526 563 l 2
 509 563 503 567 503 580 c 0
 503 595 515 604 535 604 c 2
 630 604 l 1
365 390 m 0
 251 390 144 284 144 169 c 0
 144 84 203 25 287 25 c 0
 403 25 509 132 509 248 c 0
 509 331 450 390 365 390 c 0
EndSplineSet
EndChar
StartChar: e
Encoding: 69 101 32767
OldEncoding: 101
Width: 600
Flags: W
HStem: -16 41<295 312> 199 41<155 529> 390 41<359 393>
VStem: 104 41<159 179> 530 40<250 264>
Fore
562 199 m 1
 146 199 l 1
 145 189 145 181 145 177 c 0
 145 87 213 25 310 25 c 0
 373 25 450 47 498 79 c 0
 507 84 511 86 516 86 c 0
 525 86 531 79 531 70 c 0
 531 58 521 48 491 32 c 0
 437 2 364 -16 300 -16 c 0
 184 -16 104 60 104 171 c 0
 104 309 235 431 383 431 c 0
 492 431 570 361 570 262 c 0
 570 248 567 224 562 199 c 1
155 240 m 1
 529 240 l 1
 530 245 530 250 530 252 c 0
 530 333 466 390 375 390 c 0
 277 390 192 332 155 240 c 1
EndSplineSet
EndChar
StartChar: f
Encoding: 70 102 32767
OldEncoding: 102
Width: 600
Flags: W
HStem: 0 41<130 240 280 459> 376 41<220 310 360 551> 563 41<492 526>
Fore
351 376 m 1
 280 41 l 1
 457 41 l 2
 474 41 481 37 481 25 c 0
 481 10 468 0 449 0 c 2
 132 0 l 2
 116 0 109 5 109 17 c 0
 109 32 121 41 141 41 c 2
 239 41 l 1
 310 376 l 1
 222 376 l 2
 206 376 199 381 199 393 c 0
 199 408 211 417 231 417 c 2
 319 417 l 1
 332 478 l 1
 347 551 423 604 512 604 c 0
 551 604 617 597 649 591 c 0
 658 589 663 583 663 576 c 0
 663 562 651 551 637 551 c 0
 635 551 635 551 589 557 c 0
 566 560 525 563 502 563 c 0
 436 563 383 529 373 478 c 1
 360 417 l 1
 549 417 l 2
 566 417 572 413 572 401 c 0
 572 386 560 376 540 376 c 2
 351 376 l 1
EndSplineSet
EndChar
StartChar: g
Encoding: 71 103 32767
OldEncoding: 103
Width: 600
Flags: W
HStem: -186 41<160 298> 10 41<264 289> 376 41<560 626> 390 41<344 363>
VStem: 105 42<175 188>
Fore
511 334 m 1
 529 417 l 1
 624 417 l 2
 641 417 647 413 647 401 c 0
 647 386 635 376 615 376 c 2
 561 376 l 1
 475 -28 l 1
 466 -69 447 -100 410 -132 c 0
 367 -170 326 -186 277 -186 c 2
 162 -186 l 2
 146 -186 139 -181 139 -170 c 0
 139 -154 151 -145 171 -145 c 2
 287 -145 l 2
 355 -145 421 -90 435 -22 c 1
 463 107 l 1
 403 40 344 10 271 10 c 0
 174 10 105 79 105 177 c 0
 105 307 230 431 361 431 c 0
 433 431 480 401 511 334 c 1
354 390 m 0
 247 390 147 291 147 186 c 0
 147 106 202 51 282 51 c 0
 392 51 491 150 491 258 c 0
 491 336 435 390 354 390 c 0
EndSplineSet
EndChar
StartChar: h
Encoding: 72 104 32767
OldEncoding: 104
Width: 600
Flags: W
HStem: 0 41<76 133 174 221 390 446 487 534> 390 41<390 413> 563 41<187 243>
VStem: 55 188<16 25> 369 187<16 25> 501 42<303 321>
Fore
293 604 m 1
 239 347 l 1
 303 408 350 431 411 431 c 0
 491 431 543 387 543 319 c 0
 543 310 542 301 540 291 c 2
 487 41 l 1
 532 41 l 2
 549 41 556 36 556 25 c 0
 556 10 543 0 524 0 c 2
 392 0 l 2
 376 0 369 5 369 17 c 0
 369 32 381 41 400 41 c 2
 446 41 l 1
 498 288 l 1
 500 295 501 304 501 309 c 0
 501 330 493 349 477 364 c 0
 457 384 438 390 396 390 c 0
 341 390 309 373 241 309 c 2
 228 296 l 1
 174 41 l 1
 219 41 l 2
 236 41 243 36 243 25 c 0
 243 10 230 0 210 0 c 2
 78 0 l 2
 62 0 55 5 55 17 c 0
 55 32 67 41 87 41 c 2
 133 41 l 1
 244 563 l 1
 189 563 l 2
 173 563 167 567 167 580 c 0
 167 595 179 604 198 604 c 2
 293 604 l 1
EndSplineSet
EndChar
StartChar: i
Encoding: 73 105 32767
OldEncoding: 105
Width: 600
Flags: W
HStem: 0 41<117 288 329 491> 376 41<239 359>
Fore
444 624 m 1
 422 520 l 1
 363 520 l 1
 385 624 l 1
 444 624 l 1
409 417 m 1
 329 41 l 1
 489 41 l 2
 506 41 513 36 513 25 c 0
 513 10 500 0 481 0 c 2
 119 0 l 2
 103 0 96 5 96 16 c 0
 96 32 108 41 127 41 c 2
 288 41 l 1
 359 376 l 1
 241 376 l 2
 225 376 218 381 218 393 c 0
 218 408 230 417 250 417 c 2
 409 417 l 1
EndSplineSet
EndChar
StartChar: j
Encoding: 74 106 32767
OldEncoding: 106
Width: 600
Flags: W
HStem: -186 41<133 274> 376 41<255 497>
Fore
497 376 m 1
 257 376 l 2
 240 376 233 381 233 392 c 0
 233 408 245 417 266 417 c 2
 547 417 l 1
 452 -28 l 1
 433 -121 355 -186 264 -186 c 2
 135 -186 l 2
 119 -186 112 -181 112 -170 c 0
 112 -154 124 -145 144 -145 c 2
 272 -145 l 2
 338 -145 397 -96 411 -28 c 1
 497 376 l 1
547 624 m 1
 525 520 l 1
 466 520 l 1
 488 624 l 1
 547 624 l 1
EndSplineSet
EndChar
StartChar: k
Encoding: 75 107 32767
OldEncoding: 107
Width: 600
Flags: W
HStem: 0 41<88 153 381 420 477 523> 376 41<414 438 498 556> 563 41<208 264>
VStem: 360 186<16 25> 393 185<393 400>
Fore
223 180 m 1
 185 0 l 1
 90 0 l 2
 74 0 67 5 67 17 c 0
 67 32 79 41 99 41 c 2
 153 41 l 1
 264 563 l 1
 210 563 l 2
 193 563 187 567 187 580 c 0
 187 595 199 604 218 604 c 2
 314 604 l 1
 234 229 l 1
 438 376 l 1
 416 376 l 2
 400 376 393 381 393 393 c 0
 393 408 405 417 425 417 c 2
 554 417 l 2
 572 417 578 413 578 400 c 0
 578 386 565 376 546 376 c 2
 499 376 l 1
 314 245 l 1
 478 41 l 1
 523 41 l 2
 539 41 546 37 546 25 c 0
 546 10 533 0 514 0 c 2
 383 0 l 2
 367 0 360 5 360 17 c 0
 360 32 372 41 392 41 c 2
 420 41 l 1
 278 219 l 1
 223 180 l 1
EndSplineSet
EndChar
StartChar: l
Encoding: 76 108 32767
OldEncoding: 108
Width: 600
Flags: W
HStem: 0 41<117 288 329 491> 563 41<280 399>
Fore
449 604 m 1
 329 41 l 1
 489 41 l 2
 506 41 513 36 513 25 c 0
 513 10 500 0 481 0 c 2
 119 0 l 2
 103 0 96 5 96 16 c 0
 96 32 108 41 127 41 c 2
 288 41 l 1
 399 563 l 1
 282 563 l 2
 265 563 259 567 259 579 c 0
 259 595 271 604 291 604 c 2
 449 604 l 1
EndSplineSet
EndChar
StartChar: m
Encoding: 77 109 32767
OldEncoding: 109
Width: 600
Flags: W
HStem: 0 41<36 82 121 156 331 367 541 575> 376 41<116 152> 390 41<298 309 507 519>
VStem: 15 163<16 25> 561 42<332 345>
Fore
201 417 m 1
 190 365 l 1
 233 412 267 431 309 431 c 0
 352 431 379 408 391 360 c 1
 440 410 477 431 519 431 c 0
 568 431 603 395 603 345 c 0
 603 338 602 331 600 323 c 1
 541 41 l 1
 575 41 l 2
 592 41 598 37 598 25 c 0
 598 10 585 0 566 0 c 2
 492 0 l 1
 560 319 l 2
 561 324 561 327 561 333 c 0
 561 365 539 390 509 390 c 0
 473 390 437 366 387 308 c 1
 331 41 l 1
 365 41 l 2
 382 41 388 37 388 25 c 0
 388 10 376 0 356 0 c 2
 282 0 l 1
 349 316 l 1
 350 322 351 327 351 332 c 0
 351 364 328 390 300 390 c 0
 265 390 228 366 178 308 c 1
 121 41 l 1
 155 41 l 2
 171 41 178 36 178 25 c 0
 178 10 165 0 146 0 c 2
 37 0 l 2
 22 0 15 5 15 16 c 0
 15 32 27 41 47 41 c 2
 81 41 l 1
 152 376 l 1
 118 376 l 2
 102 376 95 381 95 392 c 0
 95 408 107 417 127 417 c 2
 201 417 l 1
EndSplineSet
EndChar
StartChar: n
Encoding: 78 110 32767
OldEncoding: 110
Width: 600
Flags: W
HStem: 0 41<79 135 176 223 403 448 489 524> 376 41<170 206> 390 41<392 426>
VStem: 57 187<16 25> 382 164<16 25> 502 43<303 321>
Fore
256 417 m 1
 241 348 l 1
 313 412 353 431 414 431 c 0
 493 431 545 387 545 319 c 0
 545 309 544 303 543 295 c 1
 489 41 l 1
 523 41 l 2
 540 41 546 37 546 25 c 0
 546 10 533 0 514 0 c 2
 405 0 l 2
 389 0 382 5 382 16 c 0
 382 32 394 41 414 41 c 2
 448 41 l 1
 500 288 l 1
 502 295 502 298 502 308 c 0
 502 329 493 349 478 364 c 0
 458 384 440 390 403 390 c 0
 339 390 309 373 230 294 c 1
 176 41 l 1
 221 41 l 2
 238 41 244 37 244 25 c 0
 244 10 232 0 212 0 c 2
 81 0 l 2
 64 0 57 5 57 16 c 0
 57 32 69 41 89 41 c 2
 135 41 l 1
 206 376 l 1
 172 376 l 2
 156 376 149 381 149 392 c 0
 149 408 161 417 181 417 c 2
 256 417 l 1
EndSplineSet
EndChar
StartChar: o
Encoding: 79 111 32767
OldEncoding: 111
Width: 600
Flags: W
HStem: -16 41<286 308> 390 41<380 400>
VStem: 111 42<159 177> 535 42<239 257>
Fore
391 431 m 0
 501 431 577 358 577 252 c 0
 577 113 441 -16 296 -16 c 0
 187 -16 111 58 111 162 c 0
 111 301 247 431 391 431 c 0
382 390 m 0
 264 390 153 284 153 171 c 0
 153 85 216 25 305 25 c 0
 424 25 535 130 535 244 c 0
 535 331 473 390 382 390 c 0
EndSplineSet
EndChar
StartChar: p
Encoding: 80 112 32767
OldEncoding: 112
Width: 600
Flags: W
HStem: -186 41<8 73 114 213> 10 41<322 340> 376 41<127 183> 390 41<402 420>
VStem: 551 42<245 267>
Fore
233 417 m 1
 216 335 l 1
 283 404 339 431 415 431 c 0
 523 431 593 365 593 264 c 0
 593 131 466 10 326 10 c 0
 249 10 199 40 167 106 c 1
 114 -145 l 1
 211 -145 l 2
 229 -145 235 -149 235 -161 c 0
 235 -177 223 -186 203 -186 c 2
 10 -186 l 2
 -6 -186 -13 -181 -13 -170 c 0
 -13 -154 -1 -145 19 -145 c 2
 73 -145 l 1
 183 376 l 1
 129 376 l 2
 113 376 106 381 106 392 c 0
 106 408 118 417 138 417 c 2
 233 417 l 1
405 390 m 0
 292 390 188 292 188 187 c 0
 188 107 248 51 333 51 c 0
 447 51 551 149 551 255 c 0
 551 335 491 390 405 390 c 0
EndSplineSet
EndChar
StartChar: q
Encoding: 81 113 32767
OldEncoding: 113
Width: 600
Flags: W
HStem: -186 41<322 430 471 527> 10 41<280 302> 376 41<581 647> 390 41<360 378>
VStem: 105 42<176 199>
Fore
532 335 m 1
 550 417 l 1
 645 417 l 2
 662 417 668 413 668 401 c 0
 668 386 656 376 636 376 c 2
 582 376 l 1
 471 -145 l 1
 525 -145 l 2
 542 -145 549 -149 549 -161 c 0
 549 -176 536 -186 517 -186 c 2
 324 -186 l 2
 307 -186 300 -181 300 -170 c 0
 300 -154 312 -145 332 -145 c 2
 430 -145 l 1
 484 106 l 1
 423 40 361 10 284 10 c 0
 177 10 105 78 105 178 c 0
 105 311 233 431 374 431 c 0
 450 431 500 401 532 335 c 1
365 390 m 0
 251 390 147 293 147 186 c 0
 147 107 207 51 293 51 c 0
 407 51 512 148 512 254 c 0
 512 335 452 390 365 390 c 0
EndSplineSet
EndChar
StartChar: r
Encoding: 82 114 32767
OldEncoding: 114
Width: 600
Flags: W
HStem: 0 41<110 217 257 436> 376 41<211 287> 386 41<518 532>
Fore
337 417 m 1
 315 315 l 1
 427 400 480 427 532 427 c 0
 558 427 575 420 595 403 c 0
 610 389 619 377 619 369 c 0
 619 357 606 344 592 344 c 0
 586 344 584 345 578 352 c 0
 559 376 542 386 520 386 c 0
 475 386 435 363 304 262 c 1
 257 41 l 1
 436 41 l 2
 451 41 459 36 459 24 c 0
 459 10 446 0 427 0 c 2
 111 0 l 2
 96 0 88 5 88 17 c 0
 88 31 101 41 120 41 c 2
 216 41 l 1
 287 376 l 1
 213 376 l 2
 197 376 190 381 190 393 c 0
 190 407 203 417 221 417 c 2
 337 417 l 1
EndSplineSet
EndChar
StartChar: s
Encoding: 83 115 32767
OldEncoding: 115
Width: 600
Flags: W
HStem: -17 42<283 317> 292 125<515 542> 391 40<363 397>
VStem: 190 45<299 310> 479 46<123 139>
Fore
110 27 m 1
 127 110 l 1
 131 128 140 137 154 137 c 0
 163 137 170 130 170 122 c 0
 170 115 167 103 167 99 c 0
 167 56 225 25 305 25 c 0
 401 25 479 72 479 130 c 0
 479 147 465 168 447 180 c 0
 424 194 399 201 344 207 c 0
 272 215 245 222 221 239 c 0
 203 252 190 276 190 298 c 0
 190 372 277 431 386 431 c 0
 444 431 486 416 515 385 c 1
 519 406 529 417 542 417 c 0
 551 417 558 410 558 402 c 0
 558 399 557 394 556 389 c 2
 542 320 l 1
 538 302 528 292 515 292 c 0
 509 292 504 296 499 304 c 1
 502 335 l 1
 502 339 482 363 472 370 c 0
 453 382 416 391 382 391 c 0
 305 391 235 351 235 307 c 0
 235 291 252 271 273 262 c 0
 293 253 293 253 370 245 c 0
 430 238 465 227 491 206 c 0
 511 190 525 162 525 138 c 0
 525 54 423 -17 300 -17 c 0
 235 -17 187 1 153 38 c 1
 148 20 144 0 124 0 c 0
 116 0 108 7 108 15 c 0
 108 17 109 24 110 27 c 1
EndSplineSet
EndChar
StartChar: t
Encoding: 84 116 32767
OldEncoding: 116
Width: 600
Flags: W
HStem: -16 41<283 320> 376 41<149 224 275 495>
VStem: 165 42<80 93>
Fore
275 417 m 1
 495 417 l 2
 512 417 518 413 518 401 c 0
 518 386 505 376 486 376 c 2
 266 376 l 1
 209 109 l 1
 208 102 207 95 207 91 c 0
 207 51 245 25 303 25 c 0
 359 25 435 42 478 65 c 0
 488 70 491 71 496 71 c 0
 504 71 511 64 511 54 c 0
 511 42 500 33 471 20 c 0
 423 -1 349 -16 296 -16 c 0
 217 -16 165 22 165 79 c 0
 165 89 166 97 168 107 c 2
 225 376 l 1
 151 376 l 2
 134 376 127 381 127 392 c 0
 127 408 139 417 159 417 c 2
 234 417 l 1
 259 536 l 2
 263 554 272 563 285 563 c 0
 295 563 302 556 302 548 c 0
 302 545 302 544 300 536 c 1
 275 417 l 1
EndSplineSet
EndChar
StartChar: u
Encoding: 85 117 32767
OldEncoding: 117
Width: 600
Flags: W
HStem: -16 41<251 272> 0 21G<439 514> 376 41<148 204 443 519>
VStem: 145 43<81 99>
Fore
439 0 m 1
 453 66 l 1
 387 11 320 -16 253 -16 c 0
 187 -16 145 22 145 82 c 0
 145 93 146 104 149 115 c 1
 204 376 l 1
 150 376 l 2
 134 376 127 381 127 392 c 0
 127 408 139 417 159 417 c 2
 254 417 l 1
 190 115 l 1
 188 109 188 105 188 97 c 0
 188 55 218 25 261 25 c 0
 329 25 395 54 464 115 c 1
 519 376 l 1
 445 376 l 2
 428 376 421 381 421 392 c 0
 421 408 433 417 454 417 c 2
 569 417 l 1
 489 41 l 1
 523 41 l 2
 540 41 546 37 546 25 c 0
 546 10 534 0 514 0 c 2
 439 0 l 1
EndSplineSet
EndChar
StartChar: v
Encoding: 86 118 32767
OldEncoding: 118
Width: 600
Flags: W
HStem: 0 21G<266 336> 376 41<135 178 223 299 469 540 581 634>
VStem: 114 207<392 401> 448 207<392 401>
Fore
336 0 m 1
 266 0 l 1
 178 376 l 1
 137 376 l 2
 121 376 114 381 114 392 c 0
 114 408 126 417 146 417 c 2
 297 417 l 2
 315 417 321 413 321 401 c 0
 321 386 309 376 289 376 c 2
 223 376 l 1
 302 41 l 1
 321 41 l 1
 540 376 l 1
 471 376 l 2
 455 376 448 381 448 392 c 0
 448 408 460 417 480 417 c 2
 632 417 l 2
 649 417 655 413 655 401 c 0
 655 386 643 376 623 376 c 2
 582 376 l 1
 336 0 l 1
EndSplineSet
EndChar
StartChar: w
Encoding: 87 119 32767
OldEncoding: 119
Width: 600
Flags: W
HStem: 0 21G<160 211 391 442> 376 41<135 156 195 259 510 562 603 634>
VStem: 156 39<56 207.922 208.023 376> 489 166<392 401>
Fore
442 0 m 1
 391 0 l 1
 356 259 l 1
 211 0 l 1
 160 0 l 1
 156 376 l 1
 137 376 l 2
 121 376 114 381 114 392 c 0
 114 408 126 417 146 417 c 2
 257 417 l 2
 274 417 280 413 280 401 c 0
 280 386 268 376 248 376 c 2
 195 376 l 1
 199 56 l 1
 339 311 l 1
 391 311 l 1
 425 56 l 1
 562 376 l 1
 512 376 l 2
 496 376 489 381 489 392 c 0
 489 408 501 417 521 417 c 2
 632 417 l 2
 649 417 655 413 655 401 c 0
 655 386 643 376 623 376 c 2
 604 376 l 1
 442 0 l 1
EndSplineSet
EndChar
StartChar: x
Encoding: 88 120 32767
OldEncoding: 120
Width: 600
Flags: W
HStem: 0 41<76 96 152 220 388 463 520 531> 376 41<179 188 246 303 467 517 572 590>
VStem: 55 188<16 25> 158 166<392 401> 367 187<16 25> 446 165<392 401>
Fore
375 219 m 1
 521 41 l 1
 531 41 l 2
 548 41 554 37 554 25 c 0
 554 10 541 0 522 0 c 2
 390 0 l 2
 374 0 367 5 367 16 c 0
 367 32 379 41 399 41 c 2
 463 41 l 1
 340 190 l 1
 152 41 l 1
 220 41 l 2
 237 41 243 37 243 25 c 0
 243 10 230 0 211 0 c 2
 78 0 l 2
 62 0 55 5 55 16 c 0
 55 32 67 41 87 41 c 2
 96 41 l 1
 318 219 l 1
 188 376 l 1
 181 376 l 2
 165 376 158 381 158 392 c 0
 158 408 170 417 190 417 c 2
 301 417 l 2
 318 417 324 413 324 401 c 0
 324 386 312 376 292 376 c 2
 246 376 l 1
 352 246 l 1
 517 376 l 1
 469 376 l 2
 453 376 446 381 446 392 c 0
 446 408 458 417 478 417 c 2
 588 417 l 2
 605 417 611 413 611 401 c 0
 611 386 599 376 579 376 c 2
 573 376 l 1
 375 219 l 1
EndSplineSet
EndChar
StartChar: y
Encoding: 89 121 32767
OldEncoding: 121
Width: 600
Flags: W
HStem: -186 41<43 180 222 288> 376 41<157 175 221 284 490 546 588 613>
VStem: 135 170<392 401>
Fore
282 0 m 1
 175 376 l 1
 159 376 l 2
 142 376 135 381 135 392 c 0
 135 408 147 417 167 417 c 2
 282 417 l 2
 298 417 305 412 305 401 c 0
 305 386 293 376 273 376 c 2
 221 376 l 1
 315 45 l 1
 546 376 l 1
 492 376 l 2
 476 376 469 381 469 393 c 0
 469 407 481 417 501 417 c 2
 611 417 l 2
 627 417 634 412 634 401 c 0
 634 386 622 376 602 376 c 2
 589 376 l 1
 222 -145 l 1
 286 -145 l 2
 304 -145 310 -149 310 -161 c 0
 310 -176 297 -186 278 -186 c 2
 45 -186 l 2
 29 -186 22 -181 22 -170 c 0
 22 -154 34 -145 54 -145 c 2
 180 -145 l 1
 282 0 l 1
EndSplineSet
EndChar
StartChar: z
Encoding: 90 122 32767
OldEncoding: 122
Width: 600
Flags: W
HStem: 0 41<180 457> 376 41<244 496>
Fore
563 417 m 1
 555 381 l 1
 180 41 l 1
 457 41 l 1
 469 97 l 2
 473 115 482 124 496 124 c 0
 505 124 512 117 512 109 c 0
 512 105 511 101 510 97 c 1
 489 0 l 1
 115 0 l 1
 123 36 l 1
 497 376 l 1
 245 376 l 1
 233 321 l 2
 229 303 221 294 207 294 c 0
 199 294 191 301 191 309 c 1
 194 349 207 380 213 417 c 1
 563 417 l 1
EndSplineSet
EndChar
StartChar: braceleft
Encoding: 91 123 32767
OldEncoding: 123
Width: 600
Flags: W
VStem: 275 42<-45 -33>
Fore
428 499 m 1
 392 326 l 1
 383 285 366 262 329 240 c 1
 351 222 359 207 359 184 c 0
 359 177 358 165 355 154 c 1
 319 -19 l 1
 317 -24 317 -28 317 -35 c 0
 317 -61 335 -81 360 -83 c 0
 377 -85 382 -88 382 -100 c 0
 382 -114 369 -124 353 -124 c 0
 308 -124 275 -90 275 -43 c 0
 275 -35 276 -27 278 -19 c 1
 314 154 l 2
 315 159 316 165 316 170 c 0
 316 198 298 217 268 219 c 0
 253 219 248 224 248 235 c 0
 248 250 258 260 277 261 c 0
 313 263 343 289 351 326 c 2
 388 499 l 1
 400 558 453 604 509 604 c 0
 521 604 528 598 528 588 c 0
 528 573 519 565 497 563 c 0
 463 559 436 533 428 499 c 1
EndSplineSet
EndChar
StartChar: bar
Encoding: 92 124 32767
OldEncoding: 124
Width: 600
Flags: W
Fore
442 577 m 1
 299 -97 l 2
 295 -115 286 -124 273 -124 c 0
 264 -124 257 -117 257 -109 c 0
 257 -107 258 -101 259 -97 c 2
 402 577 l 1
 406 594 415 604 428 604 c 0
 437 604 444 597 444 589 c 0
 444 586 444 585 442 577 c 1
EndSplineSet
EndChar
StartChar: braceright
Encoding: 93 125 32767
OldEncoding: 125
Width: 600
Flags: W
VStem: 344 43<295 311> 386 42<513 526>
Fore
275 -19 m 1
 311 154 l 1
 320 195 337 218 374 240 c 1
 352 258 344 274 344 296 c 0
 344 304 345 315 348 326 c 1
 384 499 l 1
 386 504 386 508 386 515 c 0
 386 541 368 561 343 563 c 0
 326 565 321 568 321 580 c 0
 321 594 334 604 350 604 c 0
 395 604 428 570 428 524 c 0
 428 515 427 507 425 499 c 1
 389 326 l 2
 388 321 387 315 387 311 c 0
 387 282 405 263 435 261 c 0
 450 261 455 256 455 245 c 0
 455 230 445 220 426 219 c 0
 390 217 360 191 352 154 c 2
 315 -19 l 1
 303 -78 250 -124 194 -124 c 0
 182 -124 175 -118 175 -108 c 0
 175 -93 184 -85 206 -83 c 0
 240 -79 267 -53 275 -19 c 1
EndSplineSet
EndChar
StartChar: asciitilde
Encoding: 94 126 32767
OldEncoding: 126
Width: 600
Flags: W
HStem: 212 41<431 442> 307 41<272 287>
Fore
558 330 m 0
 567 330 575 323 575 315 c 0
 575 306 566 294 541 271 c 0
 498 230 465 212 433 212 c 0
 402 212 383 224 332 277 c 0
 312 297 295 307 278 307 c 0
 251 307 239 299 183 242 c 1
 174 234 168 230 161 230 c 0
 152 230 145 237 145 245 c 0
 145 255 155 267 183 294 c 0
 226 333 254 348 287 348 c 0
 308 348 327 340 349 323 c 1
 391 282 l 2
 417 258 425 253 440 253 c 0
 464 253 491 269 524 305 c 0
 544 327 549 330 558 330 c 0
EndSplineSet
EndChar
StartChar: exclamdown
Encoding: 96 161 32767
OldEncoding: 161
Width: 600
Flags: W
HStem: 317 100<372 385>
Fore
227 -161 m 2
 315 165 l 1
 320 185 328 193 342 193 c 0
 350 193 357 186 357 178 c 0
 357 174 357 171 356 165 c 2
 305 -161 l 1
 299 -198 283 -216 254 -216 c 0
 236 -216 222 -203 222 -187 c 0
 222 -182 224 -173 227 -161 c 2
374 317 m 2
 362 317 l 2
 335 317 316 333 316 357 c 0
 316 389 347 417 383 417 c 2
 395 417 l 2
 421 417 439 401 439 378 c 0
 439 345 408 317 374 317 c 2
EndSplineSet
EndChar
StartChar: cent
Encoding: 97 162 32767
OldEncoding: 162
Width: 600
Flags: W
HStem: 363 115<523 546>
VStem: 175 41<271 292>
Fore
512 202 m 0
 512 160 385 129 348 127 c 1
 324 14 l 2
 320 -4 311 -13 297 -13 c 0
 289 -13 281 -6 281 2 c 0
 281 5 282 11 283 14 c 1
 307 127 l 1
 227 137 175 194 175 273 c 0
 175 332 206 395 256 437 c 0
 292 468 326 483 385 496 c 1
 408 603 l 2
 412 621 421 630 434 630 c 0
 444 630 451 623 451 614 c 0
 451 611 451 611 449 603 c 1
 427 497 l 1
 465 497 503 483 523 461 c 1
 529 472 537 478 546 478 c 0
 557 478 563 472 563 461 c 0
 563 458 563 456 562 453 c 1
 549 392 l 2
 545 373 536 363 523 363 c 0
 518 363 507 371 507 375 c 1
 509 404 l 1
 509 409 494 431 484 438 c 0
 468 451 438 459 407 459 c 0
 305 459 216 375 216 277 c 0
 216 213 269 164 339 164 c 0
 386 164 440 181 477 207 c 0
 484 212 492 216 496 216 c 0
 503 216 512 208 512 202 c 0
EndSplineSet
EndChar
StartChar: sterling
Encoding: 98 163 32767
OldEncoding: 163
Width: 600
Flags: W
HStem: 0 40<111 125 191 445> 273 41<146 251 291 393> 537 41<409 427>
VStem: 245 42<383 401>
Fore
191 41 m 1
 443 41 l 2
 469 41 489 60 499 92 c 0
 504 108 512 115 525 115 c 0
 534 115 541 108 541 100 c 0
 541 86 529 59 514 41 c 0
 493 15 465 0 436 0 c 2
 113 0 l 2
 97 0 90 5 90 17 c 0
 90 30 101 40 117 40 c 0
 175 41 248 166 252 273 c 1
 148 273 l 2
 132 273 125 278 125 290 c 0
 125 305 137 314 157 314 c 2
 251 314 l 1
 246 353 245 373 245 393 c 0
 245 493 326 578 421 578 c 0
 457 578 487 565 511 539 c 0
 524 525 533 508 533 499 c 0
 533 488 520 476 508 476 c 0
 502 476 498 479 493 488 c 0
 473 522 448 537 413 537 c 0
 381 537 348 521 323 495 c 0
 297 466 287 439 287 396 c 0
 287 392 290 344 292 314 c 1
 391 314 l 2
 408 314 414 310 414 298 c 0
 414 283 402 273 382 273 c 2
 292 273 l 1
 289 189 248 94 191 41 c 1
EndSplineSet
EndChar
StartChar: currency
Encoding: 99 164 32767
OldEncoding: 164
Width: 600
Flags: W
HStem: 127 41<324 336> 417 41<382 401>
VStem: 193 42<254 272> 489 43<316 329>
Fore
233 162 m 1
 165 106 l 2
 155 98 150 95 144 95 c 0
 134 95 127 102 127 111 c 0
 127 119 131 125 142 135 c 2
 210 191 l 1
 199 214 193 236 193 259 c 0
 193 305 217 358 253 394 c 1
 209 450 l 2
 204 456 202 461 202 465 c 0
 202 477 215 489 227 489 c 0
 234 489 238 487 244 478 c 1
 288 423 l 1
 323 446 360 458 399 458 c 0
 435 458 468 446 492 423 c 1
 559 478 l 2
 569 487 574 489 580 489 c 0
 590 489 597 482 597 473 c 128
 597 464 594 459 582 450 c 2
 515 394 l 1
 527 373 532 351 532 327 c 0
 532 280 510 230 471 191 c 1
 515 135 l 2
 516 134 516 134 521 119 c 1
 521 108 508 95 495 95 c 0
 490 95 485 98 479 106 c 2
 436 162 l 1
 400 138 364 127 326 127 c 0
 290 127 259 139 233 162 c 1
388 417 m 0
 310 417 235 344 235 267 c 0
 235 210 277 168 334 168 c 0
 414 168 489 241 489 318 c 0
 489 376 447 417 388 417 c 0
EndSplineSet
EndChar
StartChar: yen
Encoding: 100 165 32767
OldEncoding: 165
Width: 600
Flags: W
HStem: 0 41<192 289 330 416> 141 37<178 310 359 490> 238 37<198 324 392 512> 522 41<187 213 260 310 521 562 608 644>
VStem: 166 165<538 547> 500 165<539 547>
Fore
372 238 m 1
 359 178 l 1
 490 178 l 2
 502 178 508 174 508 167 c 0
 508 150 499 141 482 141 c 2
 351 141 l 1
 330 41 l 1
 416 41 l 2
 433 41 439 37 439 25 c 0
 439 10 426 0 407 0 c 2
 194 0 l 2
 178 0 171 5 171 16 c 0
 171 32 183 41 203 41 c 2
 289 41 l 1
 310 141 l 1
 180 141 l 2
 167 141 161 145 161 153 c 0
 161 170 170 178 187 178 c 2
 318 178 l 1
 331 238 l 1
 200 238 l 2
 187 238 182 241 182 250 c 0
 182 267 190 275 208 275 c 2
 324 275 l 1
 213 522 l 1
 189 522 l 2
 172 522 166 527 166 538 c 0
 166 554 178 563 198 563 c 2
 308 563 l 2
 325 563 331 559 331 547 c 0
 331 532 319 522 299 522 c 2
 260 522 l 1
 363 295 l 1
 562 522 l 1
 523 522 l 2
 506 522 500 527 500 539 c 0
 500 554 512 563 532 563 c 2
 642 563 l 2
 659 563 665 559 665 546 c 0
 665 532 653 522 633 522 c 2
 609 522 l 1
 392 275 l 1
 510 275 l 2
 523 275 529 272 529 264 c 0
 529 246 520 238 503 238 c 2
 372 238 l 1
EndSplineSet
EndChar
StartChar: brokenbar
Encoding: 101 166 32767
OldEncoding: 166
Width: 600
Flags: W
Fore
442 577 m 1
 385 310 l 2
 381 292 373 283 360 283 c 0
 351 283 344 290 344 298 c 1
 345 310 l 1
 402 577 l 1
 406 594 415 604 428 604 c 0
 437 604 444 597 444 589 c 0
 444 586 444 585 442 577 c 1
356 170 m 1
 299 -97 l 2
 295 -115 286 -124 273 -124 c 0
 264 -124 257 -117 257 -109 c 0
 257 -107 258 -101 259 -97 c 2
 315 170 l 1
 319 188 328 197 341 197 c 0
 350 197 357 190 357 182 c 1
 356 170 l 1
EndSplineSet
EndChar
StartChar: section
Encoding: 102 167 32767
OldEncoding: 167
Width: 600
Flags: W
HStem: -62 40<141 316> -62 135<138 142> 563 40<404 574>
VStem: 140 44<343 355> 257 41<465 476> 416 42<63 75>
Fore
624 603 m 1
 601 494 l 1
 597 478 588 469 575 469 c 0
 565 469 557 476 558 484 c 0
 558 486 559 489 560 494 c 2
 574 563 l 1
 406 563 l 2
 351 563 298 519 298 474 c 0
 298 444 326 417 421 358 c 2
 470 327 l 2
 545 281 575 245 575 202 c 0
 575 175 562 150 538 132 c 0
 515 113 495 106 453 101 c 1
 457 91 458 84 458 75 c 0
 458 1 384 -62 298 -62 c 2
 91 -62 l 1
 115 49 l 1
 118 64 127 73 140 73 c 0
 150 73 157 67 157 58 c 1
 154 29 146 5 141 -22 c 1
 306 -22 l 2
 364 -22 416 19 416 65 c 0
 416 95 385 127 309 175 c 2
 252 211 l 2
 174 260 140 301 140 345 c 0
 140 394 193 436 262 441 c 1
 258 451 257 458 257 468 c 0
 257 536 334 603 412 603 c 2
 624 603 l 1
445 290 m 2
 388 326 l 2
 332 361 308 379 286 403 c 1
 282 402 280 402 275 402 c 2
 268 402 l 2
 221 402 184 379 184 350 c 0
 184 322 219 285 285 243 c 2
 340 208 l 2
 389 177 414 157 429 139 c 1
 433 141 434 141 447 142 c 0
 497 143 531 163 531 192 c 0
 531 220 498 258 445 290 c 2
EndSplineSet
EndChar
StartChar: dieresis
Encoding: 103 168 32767
OldEncoding: 168
Width: 600
Flags: W
VStem: 258 102<551 571> 479 102<551 571>
Fore
319 611 m 0
 343 611 360 594 360 571 c 0
 360 540 330 511 298 511 c 0
 275 511 258 528 258 551 c 0
 258 581 288 611 319 611 c 0
540 611 m 0
 564 611 581 594 581 571 c 0
 581 540 551 511 519 511 c 0
 496 511 479 528 479 551 c 0
 479 581 509 611 540 611 c 0
EndSplineSet
EndChar
StartChar: copyright
Encoding: 104 169 32767
OldEncoding: 169
Width: 600
Flags: W
HStem: -15 41<292 314> 111 36<324 336> 337 106<472 494> 415 35<376 394> 537 41<408 436>
VStem: 57 42<208 241> 206 37<224 241> 621 42<320 354>
Fore
206 232 m 0
 206 259 214 282 219 305 c 1
 235 385 312 450 389 450 c 0
 420 450 441 443 471 421 c 1
 475 435 483 443 494 443 c 0
 502 443 508 437 508 429 c 0
 508 426 508 425 507 423 c 1
 494 358 l 1
 491 347 481 337 472 337 c 0
 466 337 461 341 457 348 c 1
 459 369 l 1
 459 370 446 389 443 393 c 0
 431 405 403 415 381 415 c 0
 325 415 267 364 254 302 c 2
 246 263 l 1
 244 255 243 247 243 239 c 0
 243 186 282 147 334 147 c 0
 370 147 400 161 434 194 c 0
 440 200 445 202 451 202 c 0
 459 202 465 197 465 189 c 0
 465 180 460 173 443 159 c 0
 408 128 366 111 326 111 c 0
 258 111 206 164 206 232 c 0
426 578 m 0
 563 578 663 479 663 343 c 0
 663 158 485 -15 294 -15 c 0
 157 -15 57 85 57 220 c 0
 57 405 235 578 426 578 c 0
416 537 m 0
 252 537 99 388 99 229 c 0
 99 112 185 26 303 26 c 0
 468 26 621 175 621 334 c 0
 621 451 534 537 416 537 c 0
EndSplineSet
EndChar
StartChar: ordfeminine
Encoding: 105 170 32767
OldEncoding: 170
Width: 600
Flags: W
HStem: 279 37<308 331> 420 35<372 390> 537 37<408 422>
VStem: 229 37<341 352> 466 38<498 508>
Fore
421 282 m 1
 426 308 l 1
 381 286 352 279 313 279 c 0
 261 279 229 303 229 343 c 0
 229 404 300 455 385 455 c 0
 407 455 427 452 456 446 c 1
 465 490 l 2
 466 494 466 495 466 500 c 0
 466 522 443 537 410 537 c 0
 392 537 364 530 329 518 c 0
 319 514 318 514 315 514 c 0
 307 514 301 521 301 528 c 0
 301 538 306 545 317 550 c 0
 340 561 394 574 420 574 c 0
 470 574 504 547 504 506 c 0
 504 501 503 496 502 490 c 1
 466 319 l 1
 492 319 l 2
 505 319 511 314 511 305 c 0
 511 291 500 282 484 282 c 2
 421 282 l 1
435 350 m 1
 448 409 l 1
 434 415 402 420 379 420 c 0
 318 420 266 387 266 348 c 0
 266 329 287 316 320 316 c 0
 359 316 394 326 435 350 c 1
EndSplineSet
EndChar
StartChar: guillemotleft
Encoding: 106 171 32767
OldEncoding: 171
Width: 600
Flags: W
Fore
108 209 m 1
 358 406 l 2
 368 414 374 417 381 417 c 0
 390 417 397 410 397 401 c 0
 397 393 395 389 382 377 c 2
 203 209 l 1
 310 40 l 1
 316 32 317 29 317 25 c 0
 317 12 305 0 292 0 c 0
 286 0 280 4 274 11 c 2
 108 209 l 1
337 209 m 1
 586 406 l 2
 597 414 603 417 610 417 c 0
 619 417 626 410 626 401 c 0
 626 393 624 389 611 377 c 2
 432 209 l 1
 539 40 l 1
 545 32 546 29 546 25 c 0
 546 12 534 0 521 0 c 0
 515 0 509 4 503 11 c 2
 337 209 l 1
EndSplineSet
EndChar
StartChar: logicalnot
Encoding: 107 172 32767
OldEncoding: 172
Width: 600
Flags: W
HStem: 397 41<181 571>
Fore
526 183 m 0
 526 185 528 193 528 195 c 1
 571 397 l 1
 183 397 l 2
 167 397 160 402 160 413 c 0
 160 429 172 438 192 438 c 2
 621 438 l 1
 569 195 l 1
 566 178 556 168 542 168 c 0
 534 168 526 175 526 183 c 0
EndSplineSet
EndChar
StartChar: registered
Encoding: 109 174 32767
OldEncoding: 174
Width: 600
Flags: W
HStem: -15 41<282 319> 120 36<198 231 267 302 464 480> 258 36<296 352> 407 36<260 284 319 410> 537 41<402 435>
VStem: 57 42<208 242> 182 137<133 142> 456 37<360 371> 621 42<320 354>
Fore
288 258 m 1
 267 156 l 1
 302 156 l 2
 313 156 319 151 319 142 c 0
 319 130 308 120 295 120 c 2
 199 120 l 2
 188 120 182 125 182 134 c 0
 182 146 193 156 206 156 c 2
 231 156 l 1
 284 407 l 1
 260 407 l 2
 249 407 243 412 243 421 c 0
 243 434 254 443 268 443 c 2
 405 443 l 2
 458 443 493 414 493 369 c 0
 493 323 457 283 404 269 c 1
 431 242 438 230 465 156 c 1
 480 156 l 2
 490 156 496 151 496 142 c 0
 496 130 485 120 472 120 c 2
 433 120 l 1
 413 198 385 246 352 258 c 1
 288 258 l 1
296 294 m 1
 352 294 l 2
 413 294 456 322 456 362 c 0
 456 390 433 407 397 407 c 2
 320 407 l 1
 296 294 l 1
426 578 m 0
 563 578 663 479 663 343 c 0
 663 158 485 -15 294 -15 c 0
 157 -15 57 85 57 220 c 0
 57 405 235 578 426 578 c 0
416 537 m 0
 252 537 99 388 99 229 c 0
 99 112 185 26 303 26 c 0
 468 26 621 175 621 334 c 0
 621 451 534 537 416 537 c 0
EndSplineSet
EndChar
StartChar: macron
Encoding: 110 175 32767
OldEncoding: 175
Width: 600
Flags: W
HStem: 536 40<294 543>
Fore
532 536 m 2
 296 536 l 2
 280 536 273 541 273 552 c 0
 273 567 285 576 305 576 c 2
 541 576 l 2
 557 576 564 571 564 560 c 0
 564 545 552 536 532 536 c 2
EndSplineSet
EndChar
StartChar: degree
Encoding: 111 176 32767
OldEncoding: 176
Width: 600
Flags: W
HStem: 346 41<368 385> 595 41<426 439>
VStem: 257 42<457 475> 511 42<505 523>
Fore
437 636 m 0
 504 636 553 587 553 521 c 0
 553 432 466 346 375 346 c 0
 306 346 257 394 257 462 c 0
 257 552 344 636 437 636 c 0
428 595 m 0
 361 595 299 535 299 470 c 0
 299 421 334 387 383 387 c 0
 449 387 511 448 511 513 c 0
 511 560 476 595 428 595 c 0
EndSplineSet
EndChar
StartChar: plusminus
Encoding: 112 177 32767
OldEncoding: 177
Width: 600
Flags: W
HStem: 0 40<97 511> 301 40<161 343 393 575>
Fore
384 301 m 1
 350 139 l 2
 346 121 337 112 324 112 c 0
 315 112 307 119 307 127 c 0
 307 130 307 131 309 139 c 1
 343 301 l 1
 163 301 l 2
 147 301 140 306 140 317 c 0
 140 332 152 341 171 341 c 2
 352 341 l 1
 386 502 l 2
 390 520 399 529 413 529 c 0
 421 529 429 522 429 514 c 0
 429 511 428 505 427 502 c 1
 393 341 l 1
 573 341 l 2
 591 341 597 337 597 325 c 0
 597 310 585 301 565 301 c 2
 384 301 l 1
108 40 m 2
 510 40 l 2
 526 40 533 35 533 24 c 0
 533 9 521 0 501 0 c 2
 99 0 l 2
 83 0 76 5 76 16 c 0
 76 31 88 40 108 40 c 2
EndSplineSet
EndChar
StartChar: twosuperior
Encoding: 113 178 32767
OldEncoding: 178
Width: 600
Flags: W
HStem: 259 36<282 432> 259 59<453 460> 576 36<416 429>
VStem: 477 37<514 532>
Fore
282 295 m 1
 432 295 l 1
 436 307 441 318 455 318 c 0
 463 318 468 313 469 305 c 1
 469 286 462 275 460 259 c 1
 230 259 l 1
 239 302 l 1
 397 425 l 1
 466 481 477 495 477 523 c 0
 477 552 450 576 418 576 c 0
 383 576 349 555 332 524 c 0
 327 513 320 508 311 508 c 0
 304 508 297 514 297 521 c 0
 297 531 309 551 326 568 c 0
 354 596 390 612 427 612 c 0
 475 612 514 575 514 530 c 0
 514 477 498 461 282 295 c 1
EndSplineSet
EndChar
StartChar: threesuperior
Encoding: 114 179 32767
OldEncoding: 179
Width: 600
Flags: W
HStem: 251 36<340 364> 431 36<379 389> 576 36<420 432>
VStem: 457 37<362 380> 479 37<529 540>
Fore
458 450 m 2
 452 446 l 1
 482 426 494 405 494 376 c 0
 494 312 422 251 348 251 c 0
 302 251 245 278 245 300 c 0
 245 311 255 321 266 321 c 0
 271 321 274 320 278 316 c 0
 303 295 326 287 356 287 c 0
 408 287 457 328 457 371 c 0
 457 405 425 430 380 431 c 0
 368 432 362 436 362 446 c 0
 362 458 373 467 387 467 c 2
 402 467 l 2
 444 467 479 496 479 531 c 0
 479 558 456 576 422 576 c 0
 393 576 367 566 348 549 c 0
 339 541 336 539 329 539 c 0
 321 539 315 545 315 553 c 0
 315 578 381 612 430 612 c 0
 481 612 516 582 516 538 c 0
 516 503 496 472 458 450 c 2
EndSplineSet
EndChar
StartChar: acute
Encoding: 115 180 32767
OldEncoding: 180
Width: 600
Flags: W
Fore
560 599 m 2
 425 499 l 2
 416 493 410 490 405 490 c 0
 395 490 388 497 388 506 c 128
 388 515 392 520 405 530 c 2
 540 630 l 2
 550 637 555 639 561 639 c 0
 570 639 577 632 577 623 c 128
 577 614 573 608 560 599 c 2
EndSplineSet
EndChar
StartChar: mu
Encoding: 116 181 7
OldEncoding: 181
Width: 600
Flags: W
HStem: -16 40<245 262> 0 21G<439 514> 377 40<148 205 443 519>
Fore
169 16 m 1
 129 -173 l 2
 125 -191 116 -200 102 -200 c 0
 93 -200 86 -193 86 -185 c 0
 86 -183 87 -178 88 -173 c 2
 205 377 l 1
 150 377 l 2
 134 377 127 382 127 393 c 0
 127 408 139 417 159 417 c 2
 254 417 l 1
 190 115 l 1
 188 107 187 98 187 94 c 0
 187 50 214 24 260 24 c 0
 329 24 395 53 464 115 c 1
 520 377 l 1
 445 377 l 2
 428 377 421 382 421 393 c 0
 421 408 433 417 454 417 c 2
 569 417 l 1
 489 40 l 1
 523 40 l 2
 539 40 546 36 546 24 c 0
 546 10 534 0 514 0 c 2
 439 0 l 1
 452 59 l 1
 389 10 320 -16 254 -16 c 0
 214 -16 191 -7 169 16 c 1
EndSplineSet
EndChar
StartChar: paragraph
Encoding: 117 182 32767
OldEncoding: 182
Width: 600
Flags: W
HStem: -62 41<172 280 433 497> 563 41<444 517 556 627>
VStem: 152 186<-47 -37>
Fore
557 563 m 1
 433 -21 l 1
 495 -21 l 2
 510 -21 517 -26 517 -37 c 0
 517 -52 505 -62 487 -62 c 2
 388 -62 l 2
 374 -62 367 -57 367 -45 c 128
 367 -33 378 -22 393 -21 c 1
 517 563 l 1
 445 563 l 1
 321 -21 l 1
 332 -22 338 -27 338 -37 c 0
 338 -52 326 -62 308 -62 c 2
 174 -62 l 2
 159 -62 152 -56 152 -46 c 0
 152 -31 164 -21 182 -21 c 2
 280 -21 l 1
 340 260 l 1
 294 263 261 271 234 284 c 0
 189 307 163 343 163 386 c 0
 163 391 164 399 166 406 c 1
 176 453 l 2
 195 543 297 604 427 604 c 2
 627 604 l 2
 641 604 648 599 648 588 c 0
 648 573 636 563 618 563 c 2
 557 563 l 1
350 307 m 1
 403 558 l 1
 328 553 258 505 245 451 c 1
 242 436 235 416 235 400 c 0
 232 354 282 314 350 307 c 1
EndSplineSet
EndChar
StartChar: periodcentered
Encoding: 118 183 32767
OldEncoding: 183
Width: 600
Flags: W
Fore
369 348 m 2
 380 348 l 2
 413 348 436 327 436 296 c 0
 436 254 396 217 352 217 c 2
 341 217 l 2
 308 217 285 238 285 269 c 0
 285 311 325 348 369 348 c 2
EndSplineSet
EndChar
StartChar: cedilla
Encoding: 119 184 32767
OldEncoding: 184
Width: 600
Flags: W
HStem: -173 38<255 278> -20 20G<274 312>
Fore
274 0 m 1
 312 0 l 1
 302 -47 l 1
 338 -48 356 -63 356 -93 c 0
 356 -138 315 -173 262 -173 c 0
 225 -173 181 -154 181 -138 c 0
 181 -125 192 -114 205 -114 c 0
 210 -114 213 -115 220 -119 c 0
 240 -131 253 -135 268 -135 c 0
 297 -135 319 -121 319 -101 c 0
 319 -88 305 -81 278 -81 c 2
 257 -81 l 1
 274 0 l 1
EndSplineSet
EndChar
StartChar: onesuperior
Encoding: 120 185 32767
OldEncoding: 185
Width: 600
Flags: W
HStem: 259 36<280 345 381 453>
Fore
449 612 m 1
 381 295 l 1
 452 295 l 2
 463 295 469 290 469 281 c 0
 469 269 458 259 445 259 c 2
 266 259 l 2
 255 259 249 264 249 273 c 0
 249 289 260 295 285 295 c 2
 345 295 l 1
 402 563 l 1
 333 542 l 2
 330 541 326 541 323 541 c 0
 316 541 310 548 310 555 c 0
 310 560 313 566 317 570 c 0
 322 575 339 580 449 612 c 1
EndSplineSet
EndChar
StartChar: ordmasculine
Encoding: 121 186 32767
OldEncoding: 186
Width: 600
Flags: W
HStem: 284 37<354 371> 540 37<414 426>
VStem: 243 38<395 413> 505 38<443 462>
Fore
424 577 m 0
 494 577 543 529 543 460 c 0
 543 369 454 284 360 284 c 0
 293 284 243 333 243 400 c 0
 243 491 331 577 424 577 c 0
416 540 m 0
 347 540 281 476 281 408 c 0
 281 358 318 321 369 321 c 0
 439 321 505 385 505 453 c 0
 505 504 468 540 416 540 c 0
EndSplineSet
EndChar
StartChar: guillemotright
Encoding: 122 187 32767
OldEncoding: 187
Width: 600
Flags: W
Fore
355 208 m 1
 107 11 l 2
 97 3 90 0 83 0 c 0
 74 0 67 6 67 16 c 0
 67 24 69 28 82 40 c 2
 260 208 l 1
 154 377 l 2
 148 386 147 388 147 392 c 0
 147 405 159 417 172 417 c 0
 178 417 184 413 190 406 c 2
 355 208 l 1
585 208 m 1
 336 11 l 2
 326 3 320 0 313 0 c 0
 304 0 297 7 297 16 c 0
 297 24 300 28 312 40 c 2
 490 208 l 1
 384 377 l 1
 378 385 377 388 377 392 c 0
 377 405 389 417 402 417 c 0
 408 417 414 413 420 406 c 2
 585 208 l 1
EndSplineSet
EndChar
StartChar: onequarter
Encoding: 123 188 32767
OldEncoding: 188
Width: 600
Flags: W
HStem: 0 36<489 517 553 567> 93 36<429 529 573 577> 259 37<105 170 206 278>
VStem: 456 128<14 22>
Fore
274 612 m 1
 206 295 l 1
 277 295 l 2
 289 295 295 290 295 281 c 0
 295 269 284 259 270 259 c 2
 91 259 l 2
 80 259 74 264 74 273 c 0
 74 288 87 296 109 296 c 0
 126 296 147 296 170 295 c 1
 227 563 l 1
 158 542 l 2
 154 541 151 541 148 541 c 0
 141 541 135 548 135 555 c 0
 135 572 135 572 274 612 c 1
593 477 m 2
 154 63 l 2
 144 53 140 51 133 51 c 0
 124 51 117 58 117 67 c 0
 117 73 120 79 130 88 c 2
 569 502 l 2
 580 512 583 514 589 514 c 0
 598 514 605 507 605 498 c 0
 605 492 601 484 593 477 c 2
529 93 m 1
 380 93 l 1
 388 127 l 1
 562 345 l 1
 619 345 l 1
 573 129 l 1
 586 129 l 2
 598 129 604 124 604 115 c 0
 604 99 593 93 565 93 c 1
 553 36 l 1
 567 36 l 2
 578 36 584 31 584 22 c 0
 584 10 573 0 559 0 c 2
 473 0 l 2
 462 0 456 5 456 14 c 0
 456 40 488 36 517 36 c 1
 529 93 l 1
537 129 m 1
 575 309 l 1
 574 309 l 1
 429 129 l 1
 537 129 l 1
EndSplineSet
Ligature: 8 2 'frac' one slash four
Ligature: 8 2 'frac' one fraction four
EndChar
StartChar: onehalf
Encoding: 124 189 32767
OldEncoding: 189
Width: 600
Flags: W
HStem: 0 36<395 545> 0 59<561 573> 259 37<109 178 214 286> 317 36<529 542>
VStem: 590 37<255 273>
Fore
587 477 m 2
 148 63 l 2
 138 53 134 51 127 51 c 0
 118 51 111 58 111 67 c 0
 111 73 114 79 124 88 c 2
 562 502 l 1
 574 512 577 514 583 514 c 0
 592 514 599 507 599 498 c 0
 599 492 595 485 587 477 c 2
281 612 m 1
 214 295 l 1
 285 295 l 2
 296 295 302 290 302 281 c 0
 302 269 291 259 278 259 c 2
 99 259 l 2
 88 259 82 264 82 273 c 0
 82 288 95 296 117 296 c 0
 134 296 155 296 178 295 c 1
 235 563 l 1
 166 542 l 2
 162 541 159 541 156 541 c 0
 149 541 143 548 143 555 c 0
 143 572 143 572 281 612 c 1
395 36 m 1
 545 36 l 1
 549 48 555 59 568 59 c 0
 576 59 584 53 583 46 c 2
 583 46 582 43 582 39 c 1
 573 0 l 1
 343 0 l 1
 353 43 l 1
 510 166 l 1
 579 222 590 236 590 264 c 0
 590 293 563 317 531 317 c 0
 496 317 462 296 445 265 c 0
 440 254 433 249 424 249 c 0
 417 249 410 255 410 262 c 0
 410 273 422 292 438 309 c 1
 467 337 503 353 540 353 c 0
 588 353 627 316 627 271 c 0
 627 218 611 202 395 36 c 1
EndSplineSet
Ligature: 8 2 'frac' one slash two
Ligature: 8 2 'frac' one fraction two
EndChar
StartChar: threequarters
Encoding: 125 190 32767
OldEncoding: 190
Width: 600
Flags: W
HStem: 0 36<485 517 553 567> 93 36<429 530 573 583> 251 36<165 189> 431 36<204 214> 576 36<245 257>
VStem: 282 37<367 378> 304 37<527 540> 456 128<14 22>
Fore
212 467 m 2
 228 467 l 2
 269 467 304 496 304 531 c 0
 304 558 281 576 247 576 c 0
 218 576 192 566 173 549 c 0
 164 541 161 539 154 539 c 0
 146 539 140 545 140 553 c 0
 140 578 206 612 255 612 c 0
 306 612 341 582 341 538 c 0
 341 501 321 472 277 446 c 1
 307 426 319 405 319 376 c 0
 319 312 247 251 173 251 c 0
 127 251 70 278 70 300 c 0
 70 311 80 321 91 321 c 0
 96 321 99 320 103 316 c 0
 128 295 151 287 181 287 c 0
 233 287 282 328 282 371 c 0
 282 405 250 430 205 431 c 0
 193 432 187 436 187 446 c 0
 187 458 198 467 212 467 c 2
592 477 m 2
 153 63 l 2
 144 54 138 51 132 51 c 0
 123 51 116 58 116 67 c 0
 116 73 119 78 129 88 c 2
 568 502 l 2
 579 512 582 514 588 514 c 0
 597 514 604 507 604 498 c 0
 604 492 600 484 592 477 c 2
530 93 m 1
 381 93 l 1
 388 127 l 1
 562 345 l 1
 619 345 l 1
 573 129 l 1
 586 129 l 2
 598 129 604 124 604 115 c 0
 604 99 594 93 565 93 c 1
 553 36 l 1
 567 36 l 2
 578 36 584 31 584 22 c 0
 584 10 573 0 559 0 c 2
 473 0 l 2
 462 0 456 5 456 14 c 0
 456 40 488 36 517 36 c 1
 530 93 l 1
537 129 m 1
 575 309 l 1
 574 309 l 1
 429 129 l 1
 537 129 l 1
EndSplineSet
Ligature: 8 2 'frac' three slash four
Ligature: 8 2 'frac' three fraction four
EndChar
StartChar: questiondown
Encoding: 126 191 32767
OldEncoding: 191
Width: 600
Flags: W
HStem: -175 41<248 282> 317 100<361 394>
VStem: 105 42<-55 -40>
Fore
311 155 m 1
 320 196 l 2
 324 214 332 223 346 223 c 0
 355 223 362 216 362 208 c 1
 360 178 351 155 346 128 c 1
 204 73 147 25 147 -42 c 0
 147 -98 194 -134 267 -134 c 0
 313 -134 345 -126 404 -100 c 1
 408 -77 410 -32 438 -32 c 0
 448 -32 455 -39 455 -48 c 0
 455 -50 454 -54 453 -59 c 2
 439 -126 l 1
 425 -132 418 -135 407 -139 c 0
 338 -167 305 -175 253 -175 c 0
 161 -175 105 -129 105 -53 c 0
 105 -4 130 46 171 79 c 0
 205 105 242 125 311 155 c 1
381 317 m 2
 353 317 l 2
 323 317 306 332 306 357 c 0
 306 390 337 417 374 417 c 2
 402 417 l 2
 431 417 449 402 449 377 c 0
 449 344 418 317 381 317 c 2
EndSplineSet
EndChar
StartChar: Agrave
Encoding: 127 192 32767
OldEncoding: 192
Width: 600
Flags: W
HStem: 0 41<34 76 117 196 406 493 535 575> 188 41<227 462> 522 41<235 356 396 412>
VStem: 13 206<16 25> 385 211<16 25>
Fore
468 188 m 1
 203 188 l 1
 117 41 l 1
 196 41 l 2
 213 41 219 37 219 25 c 0
 219 10 206 0 187 0 c 2
 36 0 l 2
 20 0 13 5 13 17 c 0
 13 32 25 41 45 41 c 2
 76 41 l 1
 357 522 l 1
 237 522 l 2
 221 522 214 527 214 538 c 0
 214 554 226 563 246 563 c 2
 449 563 l 1
 536 41 l 1
 573 41 l 2
 590 41 596 37 596 25 c 0
 596 10 584 0 564 0 c 2
 408 0 l 2
 392 0 385 5 385 16 c 0
 385 32 397 41 417 41 c 2
 493 41 l 1
 468 188 l 1
462 229 m 1
 412 522 l 1
 397 522 l 1
 227 229 l 1
 462 229 l 1
371 780 m 2
 463 680 l 2
 468 674 473 668 472 666 c 0
 469 656 467 650 466 650 c 1
 462 644 453 640 447 640 c 0
 440 640 435 643 431 649 c 1
 338 749 l 2
 333 754 328 761 329 763 c 0
 334 782 341 789 354 789 c 0
 360 789 365 786 371 780 c 2
EndSplineSet
EndChar
StartChar: Aacute
Encoding: 128 193 32767
OldEncoding: 193
Width: 600
Flags: W
HStem: 0 41<34 76 117 196 406 493 535 575> 188 41<227 462> 522 41<235 357 396 412>
VStem: 13 206<16 25> 385 211<16 25>
Fore
468 188 m 1
 203 188 l 1
 117 41 l 1
 196 41 l 2
 213 41 219 37 219 25 c 0
 219 10 206 0 187 0 c 2
 36 0 l 2
 20 0 13 5 13 17 c 0
 13 32 25 41 45 41 c 2
 76 41 l 1
 357 522 l 1
 237 522 l 2
 221 522 214 527 214 538 c 0
 214 554 226 563 246 563 c 2
 449 563 l 1
 536 41 l 1
 573 41 l 2
 590 41 596 37 596 25 c 0
 596 10 584 0 564 0 c 2
 408 0 l 2
 392 0 385 5 385 16 c 0
 385 32 397 41 417 41 c 2
 493 41 l 1
 468 188 l 1
462 229 m 1
 412 522 l 1
 397 522 l 1
 227 229 l 1
 462 229 l 1
530 749 m 2
 396 649 l 2
 390 644 380 640 376 640 c 0
 365 640 358 647 358 657 c 0
 358 664 363 671 375 680 c 2
 510 780 l 2
 519 787 524 789 531 789 c 0
 540 789 547 781 547 772 c 0
 547 765 542 758 530 749 c 2
EndSplineSet
EndChar
StartChar: Acircumflex
Encoding: 129 194 32767
OldEncoding: 194
Width: 600
Flags: W
HStem: 0 41<34 76 117 196 406 493 535 575> 188 41<227 462> 522 41<235 357 396 412>
VStem: 13 206<16 25> 385 211<16 25>
Fore
468 188 m 1
 203 188 l 1
 117 41 l 1
 196 41 l 2
 213 41 219 37 219 25 c 0
 219 10 206 0 187 0 c 2
 36 0 l 2
 20 0 13 5 13 17 c 0
 13 32 25 41 45 41 c 2
 76 41 l 1
 357 522 l 1
 237 522 l 2
 221 522 214 527 214 538 c 0
 214 554 226 563 246 563 c 2
 449 563 l 1
 536 41 l 1
 573 41 l 2
 590 41 596 37 596 25 c 0
 596 10 584 0 564 0 c 2
 408 0 l 2
 392 0 385 5 385 16 c 0
 385 32 397 41 417 41 c 2
 493 41 l 1
 468 188 l 1
462 229 m 1
 412 522 l 1
 397 522 l 1
 227 229 l 1
 462 229 l 1
439 789 m 1
 549 680 l 2
 558 672 559 670 559 664 c 0
 559 652 546 640 532 640 c 0
 528 640 524 642 518 648 c 2
 429 739 l 1
 304 648 l 2
 300 645 288 640 285 640 c 0
 276 640 268 647 268 656 c 0
 268 666 277 675 287 680 c 1
 439 789 l 1
EndSplineSet
EndChar
StartChar: Atilde
Encoding: 130 195 32767
OldEncoding: 195
Width: 600
Flags: W
HStem: 0 41<34 76 117 196 406 493 535 575> 188 41<227 462> 522 41<235 357 396 413> 666 41<476 488> 714 41<358 374>
VStem: 13 206<16 25> 385 211<16 25>
Fore
468 188 m 1
 203 188 l 1
 117 41 l 1
 196 41 l 2
 213 41 219 37 219 25 c 0
 219 10 206 0 187 0 c 2
 36 0 l 2
 20 0 13 5 13 17 c 0
 13 32 25 41 45 41 c 2
 76 41 l 1
 357 522 l 1
 237 522 l 2
 221 522 214 527 214 538 c 0
 214 554 226 563 246 563 c 2
 449 563 l 1
 536 41 l 1
 573 41 l 2
 590 41 596 37 596 25 c 0
 596 10 584 0 564 0 c 2
 408 0 l 2
 392 0 385 5 385 16 c 0
 385 32 397 41 417 41 c 2
 493 41 l 1
 468 188 l 1
462 229 m 1
 412 522 l 1
 397 522 l 1
 227 229 l 1
 462 229 l 1
568 753 m 0
 577 753 585 746 585 738 c 0
 585 728 581 723 563 708 c 0
 529 678 504 666 479 666 c 0
 457 666 440 673 405 697 c 0
 388 709 377 714 365 714 c 0
 345 714 334 707 299 677 c 0
 294 672 286 669 280 669 c 0
 271 669 264 676 264 684 c 0
 264 693 271 703 290 718 c 0
 324 745 347 755 372 755 c 0
 393 755 404 751 432 732 c 0
 463 712 473 707 486 707 c 0
 502 707 515 714 551 745 c 0
 558 751 563 753 568 753 c 0
EndSplineSet
EndChar
StartChar: Adieresis
Encoding: 131 196 32767
OldEncoding: 196
Width: 600
Flags: W
HStem: 0 41<34 76 117 196 406 493 535 575> 188 41<227 462> 522 41<235 357 396 412> 661 101<301 323 522 544>
VStem: 13 206<16 25> 262 101<702 721> 385 211<16 25> 483 101<702 721>
Fore
468 188 m 1
 203 188 l 1
 117 41 l 1
 196 41 l 2
 213 41 219 37 219 25 c 0
 219 10 206 0 187 0 c 2
 36 0 l 2
 20 0 13 5 13 17 c 0
 13 32 25 41 45 41 c 2
 76 41 l 1
 357 522 l 1
 237 522 l 2
 221 522 214 527 214 538 c 0
 214 554 226 563 246 563 c 2
 449 563 l 1
 536 41 l 1
 573 41 l 2
 590 41 596 37 596 25 c 0
 596 10 584 0 564 0 c 2
 408 0 l 2
 392 0 385 5 385 16 c 0
 385 32 397 41 417 41 c 2
 493 41 l 1
 468 188 l 1
462 229 m 1
 412 522 l 1
 397 522 l 1
 227 229 l 1
 462 229 l 1
323 762 m 0
 346 762 363 745 363 721 c 0
 363 691 332 661 301 661 c 0
 280 661 262 680 262 702 c 0
 262 731 293 762 323 762 c 0
544 762 m 0
 567 762 584 745 584 721 c 0
 584 690 554 661 522 661 c 0
 501 661 483 680 483 702 c 0
 483 731 514 762 544 762 c 0
EndSplineSet
EndChar
StartChar: Aring
Encoding: 132 197 32767
OldEncoding: 197
Width: 600
Flags: W
HStem: 0 41<34 76 117 196 406 493 535 575> 188 41<227 462> 522 41<235 357 396 412> 630 33<406 419> 778 33<440 451>
VStem: 13 206<16 25> 335 34<701 711> 385 211<16 25> 491 34<730 741>
Fore
468 188 m 1
 203 188 l 1
 117 41 l 1
 196 41 l 2
 213 41 219 37 219 25 c 0
 219 10 206 0 187 0 c 2
 36 0 l 2
 20 0 13 5 13 17 c 0
 13 32 25 41 45 41 c 2
 76 41 l 1
 357 522 l 1
 237 522 l 2
 221 522 214 527 214 538 c 0
 214 554 226 563 246 563 c 2
 449 563 l 1
 536 41 l 1
 573 41 l 2
 590 41 596 37 596 25 c 0
 596 10 584 0 564 0 c 2
 408 0 l 2
 392 0 385 5 385 16 c 0
 385 32 397 41 417 41 c 2
 493 41 l 1
 468 188 l 1
462 229 m 1
 412 522 l 1
 397 522 l 1
 227 229 l 1
 462 229 l 1
449 811 m 0
 493 811 525 781 525 739 c 0
 525 683 470 630 410 630 c 0
 367 630 335 661 335 703 c 0
 335 758 391 811 449 811 c 0
442 778 m 0
 404 778 369 744 369 709 c 0
 369 683 390 663 417 663 c 0
 456 663 491 696 491 732 c 0
 491 759 470 778 442 778 c 0
EndSplineSet
EndChar
StartChar: AE
Encoding: 133 198 32767
OldEncoding: 198
Width: 600
Flags: W
HStem: 0 41<35 83 124 152 243 306 347 558> 189 41<216 337> 273 41<405 474> 522 41<253 318 357 407 448 639>
VStem: 14 159<16 25>
Fore
337 189 m 1
 196 189 l 1
 124 41 l 1
 150 41 l 2
 167 41 173 37 173 25 c 0
 173 10 161 0 141 0 c 2
 37 0 l 2
 21 0 14 5 14 16 c 0
 14 32 26 41 46 41 c 2
 83 41 l 1
 318 522 l 1
 255 522 l 2
 239 522 232 527 232 538 c 0
 232 554 244 563 264 563 c 2
 690 563 l 1
 658 411 l 2
 654 393 645 384 631 384 c 0
 622 384 615 391 615 399 c 0
 615 401 616 407 617 411 c 2
 640 522 l 1
 449 522 l 1
 405 314 l 1
 483 314 l 1
 488 335 490 369 515 369 c 0
 524 369 531 362 531 354 c 0
 531 351 531 350 529 342 c 1
 509 246 l 1
 505 228 496 219 483 219 c 0
 474 219 467 226 467 235 c 0
 467 246 472 262 474 273 c 1
 396 273 l 1
 347 41 l 1
 558 41 l 1
 578 134 l 1
 580 152 589 160 604 160 c 0
 613 160 620 153 620 144 c 1
 614 92 598 50 590 0 c 1
 245 0 l 2
 229 0 222 5 222 17 c 0
 222 32 234 41 254 41 c 2
 306 41 l 1
 337 189 l 1
346 230 m 1
 408 522 l 1
 358 522 l 1
 216 230 l 1
 346 230 l 1
EndSplineSet
EndChar
StartChar: Ccedilla
Encoding: 134 199 32767
OldEncoding: 199
Width: 600
Flags: W
HStem: -173 38<260 283> -16 41<313 335> 536 40<413 430>
VStem: 110 42<194 212>
Fore
314 -16 m 1
 307 -47 l 1
 343 -48 361 -63 361 -93 c 0
 361 -138 320 -173 267 -173 c 0
 230 -173 186 -154 186 -138 c 0
 186 -125 198 -114 210 -114 c 0
 215 -114 217 -115 225 -119 c 0
 244 -131 258 -135 273 -135 c 0
 302 -135 324 -121 324 -101 c 0
 324 -88 311 -81 283 -81 c 2
 262 -81 l 1
 277 -12 l 1
 235 -1 214 8 189 28 c 0
 140 67 110 130 110 196 c 0
 110 212 112 227 115 242 c 2
 132 325 l 1
 157 442 280 576 428 576 c 0
 494 576 549 552 586 507 c 1
 591 529 593 563 618 563 c 0
 628 563 635 557 635 548 c 0
 635 546 634 541 633 536 c 2
 609 424 l 1
 606 406 596 396 583 396 c 0
 577 396 571 400 566 408 c 1
 570 446 l 1
 570 449 546 486 538 494 c 0
 515 518 464 536 419 536 c 0
 309 536 197 438 172 319 c 2
 157 248 l 2
 154 233 152 217 152 203 c 0
 152 101 227 25 328 25 c 0
 397 25 454 51 522 115 c 0
 530 123 534 125 542 125 c 0
 551 125 558 119 558 111 c 0
 558 100 551 91 524 68 c 0
 465 17 388 -16 327 -16 c 2
 314 -16 l 1
EndSplineSet
EndChar
StartChar: Egrave
Encoding: 135 200 32767
OldEncoding: 200
Width: 600
Flags: W
HStem: 0 41<68 133 174 488> 272 41<232 368> 522 41<179 234 275 569>
Fore
223 272 m 1
 174 41 l 1
 488 41 l 1
 513 160 l 2
 517 178 526 187 540 187 c 0
 549 187 556 180 556 172 c 0
 556 169 555 165 554 160 c 2
 520 0 l 1
 70 0 l 2
 54 0 47 5 47 17 c 0
 47 32 59 41 79 41 c 2
 133 41 l 1
 235 522 l 1
 181 522 l 2
 165 522 158 527 158 539 c 0
 158 554 170 563 190 563 c 2
 619 563 l 1
 589 424 l 1
 586 406 577 397 563 397 c 0
 554 397 547 404 547 412 c 1
 550 453 563 484 569 522 c 1
 276 522 l 1
 232 313 l 1
 377 313 l 1
 386 358 l 1
 390 376 399 385 412 385 c 0
 422 385 429 378 429 370 c 0
 429 368 428 362 427 358 c 2
 399 227 l 1
 396 209 387 200 373 200 c 0
 364 200 357 207 357 215 c 1
 358 236 365 253 368 272 c 1
 223 272 l 1
383 780 m 2
 475 680 l 2
 480 674 485 668 484 666 c 0
 481 656 479 650 478 650 c 1
 474 644 465 640 459 640 c 0
 452 640 447 643 443 649 c 1
 350 749 l 2
 345 754 340 761 341 763 c 0
 346 782 353 789 366 789 c 0
 372 789 377 786 383 780 c 2
EndSplineSet
EndChar
StartChar: Eacute
Encoding: 136 201 32767
OldEncoding: 201
Width: 600
Flags: W
HStem: 0 41<68 133 174 488> 272 41<232 368> 522 41<179 234 275 569>
Fore
223 272 m 1
 174 41 l 1
 488 41 l 1
 513 160 l 2
 517 178 526 187 540 187 c 0
 549 187 556 180 556 172 c 0
 556 169 555 165 554 160 c 2
 520 0 l 1
 70 0 l 2
 54 0 47 5 47 17 c 0
 47 32 59 41 79 41 c 2
 133 41 l 1
 235 522 l 1
 181 522 l 2
 165 522 158 527 158 539 c 0
 158 554 170 563 190 563 c 2
 619 563 l 1
 589 424 l 1
 586 406 577 397 563 397 c 0
 554 397 547 404 547 412 c 1
 550 453 563 484 569 522 c 1
 276 522 l 1
 232 313 l 1
 377 313 l 1
 386 358 l 1
 390 376 399 385 412 385 c 0
 422 385 429 378 429 370 c 0
 429 368 428 362 427 358 c 2
 399 227 l 1
 396 209 387 200 373 200 c 0
 364 200 357 207 357 215 c 1
 358 236 365 253 368 272 c 1
 223 272 l 1
548 749 m 2
 414 649 l 2
 408 644 398 640 394 640 c 0
 383 640 376 647 376 657 c 0
 376 664 381 671 393 680 c 2
 528 780 l 2
 537 787 542 789 549 789 c 0
 558 789 565 781 565 772 c 0
 565 765 560 758 548 749 c 2
EndSplineSet
EndChar
StartChar: Ecircumflex
Encoding: 137 202 32767
OldEncoding: 202
Width: 600
Flags: W
HStem: 0 41<68 133 174 488> 272 41<232 368> 522 41<179 234 275 569>
Fore
223 272 m 1
 174 41 l 1
 488 41 l 1
 513 160 l 2
 517 178 526 187 540 187 c 0
 549 187 556 180 556 172 c 0
 556 169 555 165 554 160 c 2
 520 0 l 1
 70 0 l 2
 54 0 47 5 47 17 c 0
 47 32 59 41 79 41 c 2
 133 41 l 1
 235 522 l 1
 181 522 l 2
 165 522 158 527 158 539 c 0
 158 554 170 563 190 563 c 2
 619 563 l 1
 589 424 l 1
 586 406 577 397 563 397 c 0
 554 397 547 404 547 412 c 1
 550 453 563 484 569 522 c 1
 276 522 l 1
 232 313 l 1
 377 313 l 1
 386 358 l 1
 390 376 399 385 412 385 c 0
 422 385 429 378 429 370 c 0
 429 368 428 362 427 358 c 2
 399 227 l 1
 396 209 387 200 373 200 c 0
 364 200 357 207 357 215 c 1
 358 236 365 253 368 272 c 1
 223 272 l 1
457 789 m 1
 567 680 l 2
 576 672 577 670 577 664 c 0
 577 652 564 640 550 640 c 0
 546 640 542 642 536 648 c 2
 447 739 l 1
 322 648 l 2
 318 645 306 640 303 640 c 0
 294 640 286 647 286 656 c 0
 286 666 295 675 305 680 c 1
 457 789 l 1
EndSplineSet
EndChar
StartChar: Edieresis
Encoding: 138 203 32767
OldEncoding: 203
Width: 600
Flags: W
HStem: 0 41<68 133 174 488> 272 41<232 368> 522 41<179 234 275 569> 661 101<320 342 541 563>
VStem: 281 101<702 721> 502 101<702 721>
Fore
223 272 m 1
 174 41 l 1
 488 41 l 1
 513 160 l 2
 517 178 526 187 540 187 c 0
 549 187 556 180 556 172 c 0
 556 169 555 165 554 160 c 2
 520 0 l 1
 70 0 l 2
 54 0 47 5 47 17 c 0
 47 32 59 41 79 41 c 2
 133 41 l 1
 235 522 l 1
 181 522 l 2
 165 522 158 527 158 539 c 0
 158 554 170 563 190 563 c 2
 619 563 l 1
 589 424 l 1
 586 406 577 397 563 397 c 0
 554 397 547 404 547 412 c 1
 550 453 563 484 569 522 c 1
 276 522 l 1
 232 313 l 1
 377 313 l 1
 386 358 l 1
 390 376 399 385 412 385 c 0
 422 385 429 378 429 370 c 0
 429 368 428 362 427 358 c 2
 399 227 l 1
 396 209 387 200 373 200 c 0
 364 200 357 207 357 215 c 1
 358 236 365 253 368 272 c 1
 223 272 l 1
342 762 m 0
 365 762 382 745 382 721 c 0
 382 691 351 661 320 661 c 0
 299 661 281 680 281 702 c 0
 281 731 312 762 342 762 c 0
563 762 m 0
 586 762 603 745 603 721 c 0
 603 690 573 661 541 661 c 0
 520 661 502 680 502 702 c 0
 502 731 533 762 563 762 c 0
EndSplineSet
EndChar
StartChar: Igrave
Encoding: 139 204 32767
OldEncoding: 204
Width: 600
Flags: W
HStem: 0 41<138 288 329 470> 522 41<249 390 430 581>
Fore
431 522 m 1
 329 41 l 1
 468 41 l 2
 486 41 492 37 492 25 c 0
 492 10 479 0 460 0 c 2
 140 0 l 2
 124 0 117 5 117 16 c 0
 117 32 129 41 148 41 c 2
 288 41 l 1
 390 522 l 1
 251 522 l 2
 235 522 228 527 228 538 c 0
 228 554 240 563 259 563 c 2
 579 563 l 2
 597 563 603 559 603 547 c 0
 603 532 590 522 571 522 c 2
 431 522 l 1
398 780 m 2
 490 680 l 2
 495 674 500 668 499 666 c 0
 496 656 494 650 493 650 c 1
 489 644 480 640 474 640 c 0
 467 640 462 643 458 649 c 1
 365 749 l 2
 360 754 355 761 356 763 c 0
 361 782 368 789 381 789 c 0
 387 789 392 786 398 780 c 2
EndSplineSet
EndChar
StartChar: Iacute
Encoding: 140 205 32767
OldEncoding: 205
Width: 600
Flags: W
HStem: 0 41<138 288 329 470> 522 41<249 390 430 581>
Fore
431 522 m 1
 329 41 l 1
 468 41 l 2
 486 41 492 37 492 25 c 0
 492 10 479 0 460 0 c 2
 140 0 l 2
 124 0 117 5 117 16 c 0
 117 32 129 41 148 41 c 2
 288 41 l 1
 390 522 l 1
 251 522 l 2
 235 522 228 527 228 538 c 0
 228 554 240 563 259 563 c 2
 579 563 l 2
 597 563 603 559 603 547 c 0
 603 532 590 522 571 522 c 2
 431 522 l 1
555 749 m 2
 421 649 l 2
 415 644 405 640 401 640 c 0
 390 640 383 647 383 657 c 0
 383 664 388 671 400 680 c 2
 535 780 l 2
 544 787 549 789 556 789 c 0
 565 789 572 781 572 772 c 0
 572 765 567 758 555 749 c 2
EndSplineSet
EndChar
StartChar: Icircumflex
Encoding: 141 206 32767
OldEncoding: 206
Width: 600
Flags: W
HStem: 0 41<138 288 329 470> 522 41<249 390 430 580>
Fore
431 522 m 1
 329 41 l 1
 468 41 l 2
 486 41 492 37 492 25 c 0
 492 10 479 0 460 0 c 2
 140 0 l 2
 124 0 117 5 117 16 c 0
 117 32 129 41 148 41 c 2
 288 41 l 1
 390 522 l 1
 251 522 l 2
 235 522 228 527 228 538 c 0
 228 554 240 563 259 563 c 2
 579 563 l 2
 597 563 603 559 603 547 c 0
 603 532 590 522 571 522 c 2
 431 522 l 1
466 789 m 1
 576 680 l 2
 585 672 586 670 586 664 c 0
 586 652 573 640 559 640 c 0
 555 640 551 642 545 648 c 2
 456 739 l 1
 331 648 l 2
 327 645 315 640 312 640 c 0
 303 640 295 647 295 656 c 0
 295 666 304 675 314 680 c 1
 466 789 l 1
EndSplineSet
EndChar
StartChar: Idieresis
Encoding: 142 207 32767
OldEncoding: 207
Width: 600
Flags: W
HStem: 0 41<138 288 329 470> 522 41<249 390 430 581> 661 101<328 350 549 571>
VStem: 289 101<702 721> 510 101<702 721>
Fore
431 522 m 1
 329 41 l 1
 468 41 l 2
 486 41 492 37 492 25 c 0
 492 10 479 0 460 0 c 2
 140 0 l 2
 124 0 117 5 117 16 c 0
 117 32 129 41 148 41 c 2
 288 41 l 1
 390 522 l 1
 251 522 l 2
 235 522 228 527 228 538 c 0
 228 554 240 563 259 563 c 2
 579 563 l 2
 597 563 603 559 603 547 c 0
 603 532 590 522 571 522 c 2
 431 522 l 1
350 762 m 0
 373 762 390 745 390 721 c 0
 390 691 359 661 328 661 c 0
 307 661 289 680 289 702 c 0
 289 731 320 762 350 762 c 0
571 762 m 0
 594 762 611 745 611 721 c 0
 611 690 581 661 549 661 c 0
 528 661 510 680 510 702 c 0
 510 731 541 762 571 762 c 0
EndSplineSet
EndChar
StartChar: Eth
Encoding: 143 208 32767
OldEncoding: 208
Width: 600
Flags: W
HStem: 0 41<68 114 154 305> 272 41<83 162 212 376> 522 41<179 214 255 416>
VStem: 551 41<351 368>
Fore
162 272 m 1
 85 272 l 2
 69 272 62 277 62 288 c 0
 62 304 74 313 94 313 c 2
 171 313 l 1
 215 522 l 1
 181 522 l 2
 165 522 158 527 158 538 c 0
 158 554 170 563 190 563 c 2
 410 563 l 2
 516 563 592 481 592 366 c 0
 592 347 590 329 586 310 c 2
 574 254 l 2
 544 115 416 0 290 0 c 2
 70 0 l 2
 54 0 47 5 47 16 c 0
 47 32 59 41 79 41 c 2
 113 41 l 1
 162 272 l 1
256 522 m 1
 212 313 l 1
 374 313 l 2
 391 313 397 309 397 297 c 0
 397 282 385 272 365 272 c 2
 203 272 l 1
 154 41 l 1
 303 41 l 2
 398 41 509 140 531 245 c 1
 547 319 l 1
 550 331 551 345 551 357 c 0
 551 399 538 440 514 472 c 0
 488 507 453 522 399 522 c 2
 256 522 l 1
EndSplineSet
EndChar
StartChar: Ntilde
Encoding: 144 209 32767
OldEncoding: 209
Width: 600
Flags: W
HStem: 0 41<67 113 153 229> 522 41<158 214 495 571 611 657> 666 41<501 513> 714 41<388 399>
VStem: 46 205<16 25> 473 205<538 547>
Fore
501 0 m 1
 449 0 l 1
 251 504 l 1
 153 41 l 1
 227 41 l 2
 244 41 251 37 251 25 c 0
 251 10 238 0 219 0 c 2
 69 0 l 2
 53 0 46 5 46 17 c 0
 46 32 58 41 78 41 c 2
 112 41 l 1
 214 522 l 1
 160 522 l 2
 143 522 137 527 137 539 c 0
 137 554 149 563 169 563 c 2
 275 563 l 1
 473 59 l 1
 571 522 l 1
 497 522 l 2
 480 522 473 527 473 538 c 0
 473 554 485 563 505 563 c 2
 655 563 l 2
 672 563 678 559 678 547 c 0
 678 532 666 522 646 522 c 2
 612 522 l 1
 501 0 l 1
593 753 m 0
 602 753 610 746 610 738 c 0
 610 728 606 723 588 708 c 0
 554 678 529 666 504 666 c 0
 482 666 465 673 430 697 c 0
 413 709 402 714 390 714 c 0
 370 714 359 708 324 677 c 0
 319 672 311 669 305 669 c 0
 296 669 289 675 289 684 c 128
 289 693 296 703 315 718 c 0
 349 744 372 755 397 755 c 0
 418 755 429 751 457 732 c 0
 489 712 498 707 511 707 c 0
 527 707 539 714 576 745 c 0
 583 751 588 753 593 753 c 0
EndSplineSet
EndChar
StartChar: Ograve
Encoding: 145 210 32767
OldEncoding: 210
Width: 600
Flags: W
HStem: -16 41<293 311> 535 41<405 424>
VStem: 102 42<205 225> 574 42<335 359>
Fore
422 576 m 0
 536 576 616 486 616 357 c 0
 616 164 461 -16 296 -16 c 0
 181 -16 102 74 102 207 c 0
 102 396 258 576 422 576 c 0
415 535 m 0
 277 535 144 378 144 216 c 0
 144 106 211 25 302 25 c 0
 441 25 574 181 574 345 c 0
 574 455 507 535 415 535 c 0
391 780 m 2
 483 680 l 2
 488 674 493 668 492 666 c 0
 489 656 487 650 486 650 c 1
 482 644 473 640 467 640 c 0
 460 640 455 643 451 649 c 1
 358 749 l 2
 353 754 348 761 349 763 c 0
 354 782 361 789 374 789 c 0
 380 789 385 786 391 780 c 2
EndSplineSet
EndChar
StartChar: Oacute
Encoding: 146 211 32767
OldEncoding: 211
Width: 600
Flags: W
HStem: -16 41<293 311> 535 41<405 431>
VStem: 102 42<205 225> 574 42<335 359>
Fore
422 576 m 0
 536 576 616 486 616 357 c 0
 616 164 461 -16 296 -16 c 0
 181 -16 102 74 102 207 c 0
 102 396 258 576 422 576 c 0
415 535 m 0
 277 535 144 378 144 216 c 0
 144 106 211 25 302 25 c 0
 441 25 574 181 574 345 c 0
 574 455 507 535 415 535 c 0
563 749 m 2
 429 649 l 2
 423 644 413 640 409 640 c 0
 398 640 391 647 391 657 c 0
 391 664 396 671 408 680 c 2
 543 780 l 2
 552 787 557 789 564 789 c 0
 573 789 580 781 580 772 c 0
 580 765 575 758 563 749 c 2
EndSplineSet
EndChar
StartChar: Ocircumflex
Encoding: 147 212 32767
OldEncoding: 212
Width: 600
Flags: W
HStem: -16 41<292 315> 535 41<405 424>
VStem: 102 42<205 225> 574 42<335 359>
Fore
422 576 m 0
 536 576 616 486 616 357 c 0
 616 164 461 -16 296 -16 c 0
 181 -16 102 74 102 207 c 0
 102 396 258 576 422 576 c 0
415 535 m 0
 277 535 144 378 144 216 c 0
 144 106 211 25 302 25 c 0
 441 25 574 181 574 345 c 0
 574 455 507 535 415 535 c 0
465 789 m 1
 575 680 l 2
 584 672 585 670 585 664 c 0
 585 652 572 640 558 640 c 0
 554 640 550 642 544 648 c 2
 455 739 l 1
 330 648 l 2
 326 645 314 640 311 640 c 0
 302 640 294 647 294 656 c 0
 294 666 303 675 313 680 c 1
 465 789 l 1
EndSplineSet
EndChar
StartChar: Otilde
Encoding: 148 213 32767
OldEncoding: 213
Width: 600
Flags: W
HStem: -16 41<294 316> 535 41<404 425> 666 41<510 521> 714 41<396 408>
VStem: 103 42<205 225> 575 42<335 359>
Fore
423 576 m 0
 537 576 617 486 617 357 c 0
 617 164 462 -16 297 -16 c 0
 182 -16 103 74 103 207 c 0
 103 396 259 576 423 576 c 0
416 535 m 0
 278 535 145 378 145 216 c 0
 145 105 211 25 303 25 c 0
 442 25 575 181 575 345 c 0
 575 455 508 535 416 535 c 0
601 753 m 0
 610 753 618 746 618 737 c 128
 618 728 614 723 596 708 c 0
 561 678 537 666 512 666 c 0
 490 666 473 673 438 697 c 0
 421 709 410 714 398 714 c 0
 378 714 367 708 332 677 c 0
 327 672 319 669 313 669 c 0
 304 669 297 676 297 684 c 0
 297 693 304 703 323 718 c 0
 356 744 380 755 406 755 c 0
 426 755 438 750 465 732 c 0
 496 712 506 707 519 707 c 0
 536 707 547 714 584 745 c 0
 591 751 596 753 601 753 c 0
EndSplineSet
EndChar
StartChar: Odieresis
Encoding: 149 214 32767
OldEncoding: 214
Width: 600
Flags: W
HStem: -16 41<286 311> 535 41<405 424> 661 101<327 349 548 570>
VStem: 102 42<205 225> 288 101<702 721> 509 101<702 721> 574 42<335 359>
Fore
422 576 m 0
 536 576 616 486 616 357 c 0
 616 164 461 -16 296 -16 c 0
 181 -16 102 74 102 207 c 0
 102 396 258 576 422 576 c 0
415 535 m 0
 277 535 144 378 144 216 c 0
 144 106 211 25 302 25 c 0
 441 25 574 181 574 345 c 0
 574 455 507 535 415 535 c 0
349 762 m 0
 372 762 389 745 389 721 c 0
 389 691 358 661 327 661 c 0
 306 661 288 680 288 702 c 0
 288 731 319 762 349 762 c 0
570 762 m 0
 593 762 610 745 610 721 c 0
 610 690 580 661 548 661 c 0
 527 661 509 680 509 702 c 0
 509 731 540 762 570 762 c 0
EndSplineSet
EndChar
StartChar: multiply
Encoding: 150 215 32767
OldEncoding: 215
Width: 600
Flags: W
Fore
366 311 m 1
 539 453 l 2
 549 461 554 464 560 464 c 0
 570 464 577 457 577 447 c 0
 577 440 573 433 562 424 c 2
 389 282 l 1
 501 139 l 2
 505 134 508 128 508 124 c 0
 508 112 495 100 482 100 c 0
 476 100 472 103 466 110 c 2
 354 253 l 1
 181 110 l 2
 172 103 166 100 159 100 c 0
 150 100 143 107 143 116 c 0
 143 124 147 131 158 139 c 1
 331 282 l 1
 219 424 l 2
 215 429 212 436 212 440 c 0
 212 452 225 464 238 464 c 0
 243 464 248 461 254 453 c 2
 366 311 l 1
EndSplineSet
EndChar
StartChar: Oslash
Encoding: 151 216 32767
OldEncoding: 216
Width: 600
Flags: W
HStem: -16 41<289 307> 535 41<401 425>
VStem: 102 42<196 230> 574 42<340 358>
Fore
152 51 m 1
 69 -31 l 2
 60 -40 55 -43 48 -43 c 0
 40 -43 34 -37 34 -29 c 0
 34 -23 37 -18 46 -9 c 2
 134 78 l 1
 112 118 102 159 102 207 c 0
 102 396 259 576 423 576 c 0
 483 576 526 556 566 510 c 1
 650 593 l 2
 659 602 664 605 670 605 c 0
 679 605 685 599 685 591 c 0
 685 585 682 580 673 571 c 2
 585 483 l 1
 605 447 616 404 616 354 c 0
 616 164 460 -16 296 -16 c 0
 236 -16 187 7 152 51 c 1
167 112 m 1
 533 476 l 1
 502 515 462 535 416 535 c 0
 278 535 144 378 144 217 c 0
 144 178 151 145 167 112 c 1
551 449 m 1
 185 84 l 1
 215 46 256 25 302 25 c 0
 441 25 574 181 574 344 c 0
 574 383 566 418 551 449 c 1
EndSplineSet
EndChar
StartChar: Ugrave
Encoding: 152 217 32767
OldEncoding: 217
Width: 600
Flags: W
HStem: -16 41<295 313> 522 41<176 212 252 337 493 569 609 655>
VStem: 136 42<138 153> 155 204<538 547> 472 204<539 547>
Fore
610 522 m 1
 539 185 l 2
 515 72 409 -16 297 -16 c 0
 201 -16 136 47 136 140 c 0
 136 154 138 170 141 185 c 2
 212 522 l 1
 179 522 l 2
 162 522 155 527 155 538 c 0
 155 554 167 563 187 563 c 2
 337 563 l 2
 353 563 359 559 359 547 c 0
 359 532 347 522 328 522 c 2
 253 522 l 1
 182 185 l 1
 179 173 178 161 178 151 c 0
 178 76 230 25 305 25 c 0
 394 25 479 95 498 185 c 2
 569 522 l 1
 495 522 l 2
 478 522 472 527 472 539 c 0
 472 554 484 563 504 563 c 2
 653 563 l 2
 670 563 676 559 676 547 c 0
 676 532 664 522 644 522 c 2
 610 522 l 1
395 780 m 2
 487 680 l 2
 492 674 497 668 496 666 c 0
 493 656 491 650 490 650 c 1
 486 644 477 640 471 640 c 0
 464 640 459 643 455 649 c 1
 362 749 l 2
 357 754 352 761 353 763 c 0
 358 782 365 789 378 789 c 0
 384 789 389 786 395 780 c 2
EndSplineSet
EndChar
StartChar: Uacute
Encoding: 153 218 32767
OldEncoding: 218
Width: 600
Flags: W
HStem: -16 41<295 313> 522 41<176 212 252 337 493 569 609 655>
VStem: 136 42<138 153> 155 204<538 547> 472 204<539 547>
Fore
610 522 m 1
 539 185 l 2
 515 72 409 -16 297 -16 c 0
 201 -16 136 47 136 140 c 0
 136 154 138 170 141 185 c 2
 212 522 l 1
 179 522 l 2
 162 522 155 527 155 538 c 0
 155 554 167 563 187 563 c 2
 337 563 l 2
 353 563 359 559 359 547 c 0
 359 532 347 522 328 522 c 2
 253 522 l 1
 182 185 l 1
 179 173 178 161 178 151 c 0
 178 76 230 25 305 25 c 0
 394 25 479 95 498 185 c 2
 569 522 l 1
 495 522 l 2
 478 522 472 527 472 539 c 0
 472 554 484 563 504 563 c 2
 653 563 l 2
 670 563 676 559 676 547 c 0
 676 532 664 522 644 522 c 2
 610 522 l 1
560 749 m 2
 426 649 l 2
 420 644 410 640 406 640 c 0
 395 640 388 647 388 657 c 0
 388 664 393 671 405 680 c 2
 540 780 l 2
 549 787 554 789 561 789 c 0
 570 789 577 781 577 772 c 0
 577 765 572 758 560 749 c 2
EndSplineSet
EndChar
StartChar: Ucircumflex
Encoding: 154 219 32767
OldEncoding: 219
Width: 600
Flags: W
HStem: -16 41<293 316> 522 41<176 212 252 337 493 569 609 655>
VStem: 136 42<138 153> 155 204<538 547> 472 204<539 547>
Fore
610 522 m 1
 539 185 l 2
 515 72 409 -16 297 -16 c 0
 201 -16 136 47 136 140 c 0
 136 154 138 170 141 185 c 2
 212 522 l 1
 179 522 l 2
 162 522 155 527 155 538 c 0
 155 554 167 563 187 563 c 2
 337 563 l 2
 353 563 359 559 359 547 c 0
 359 532 347 522 328 522 c 2
 253 522 l 1
 182 185 l 1
 179 173 178 161 178 151 c 0
 178 76 230 25 305 25 c 0
 394 25 479 95 498 185 c 2
 569 522 l 1
 495 522 l 2
 478 522 472 527 472 539 c 0
 472 554 484 563 504 563 c 2
 653 563 l 2
 670 563 676 559 676 547 c 0
 676 532 664 522 644 522 c 2
 610 522 l 1
466 789 m 1
 576 680 l 2
 585 672 586 670 586 664 c 0
 586 652 573 640 559 640 c 0
 555 640 551 642 545 648 c 2
 456 739 l 1
 331 648 l 2
 327 645 315 640 312 640 c 0
 303 640 295 647 295 656 c 0
 295 666 304 675 314 680 c 1
 466 789 l 1
EndSplineSet
EndChar
StartChar: Udieresis
Encoding: 155 220 32767
OldEncoding: 220
Width: 600
Flags: W
HStem: -16 41<287 313> 522 41<176 212 252 337 493 569 609 655> 661 101<328 350 549 571>
VStem: 136 42<138 153> 155 204<538 547> 289 101<702 721> 472 204<539 547> 510 101<702 721>
Fore
610 522 m 1
 539 185 l 2
 515 72 409 -16 297 -16 c 0
 201 -16 136 47 136 140 c 0
 136 154 138 170 141 185 c 2
 212 522 l 1
 179 522 l 2
 162 522 155 527 155 538 c 0
 155 554 167 563 187 563 c 2
 337 563 l 2
 353 563 359 559 359 547 c 0
 359 532 347 522 328 522 c 2
 253 522 l 1
 182 185 l 1
 179 173 178 161 178 151 c 0
 178 76 230 25 305 25 c 0
 394 25 479 95 498 185 c 2
 569 522 l 1
 495 522 l 2
 478 522 472 527 472 539 c 0
 472 554 484 563 504 563 c 2
 653 563 l 2
 670 563 676 559 676 547 c 0
 676 532 664 522 644 522 c 2
 610 522 l 1
350 762 m 0
 373 762 390 745 390 721 c 0
 390 691 359 661 328 661 c 0
 307 661 289 680 289 702 c 0
 289 731 320 762 350 762 c 0
571 762 m 0
 594 762 611 745 611 721 c 0
 611 690 581 661 549 661 c 0
 528 661 510 680 510 702 c 0
 510 731 541 762 571 762 c 0
EndSplineSet
EndChar
StartChar: Yacute
Encoding: 156 221 32767
OldEncoding: 221
Width: 600
Flags: W
HStem: 0 41<174 290 331 438> 522 41<187 213 262 311 520 564 609 642>
VStem: 166 166<538 547> 499 166<538 546>
Fore
376 254 m 1
 331 41 l 1
 436 41 l 2
 453 41 459 36 459 25 c 0
 459 10 447 0 427 0 c 2
 176 0 l 2
 160 0 153 5 153 16 c 0
 153 32 165 41 185 41 c 2
 290 41 l 1
 335 254 l 1
 213 522 l 1
 189 522 l 2
 173 522 166 527 166 538 c 0
 166 554 178 563 198 563 c 2
 309 563 l 2
 326 563 332 559 332 547 c 0
 332 532 320 522 300 522 c 2
 262 522 l 1
 366 295 l 1
 564 522 l 1
 523 522 l 2
 506 522 499 527 499 538 c 0
 499 554 511 563 532 563 c 2
 642 563 l 2
 658 563 665 558 665 546 c 0
 665 532 652 522 633 522 c 2
 610 522 l 1
 376 254 l 1
560 749 m 2
 426 649 l 2
 420 644 410 640 406 640 c 0
 395 640 388 647 388 657 c 0
 388 664 393 671 405 680 c 2
 540 780 l 2
 549 787 554 789 561 789 c 0
 570 789 577 781 577 772 c 0
 577 765 572 758 560 749 c 2
EndSplineSet
EndChar
StartChar: Thorn
Encoding: 157 222 32767
OldEncoding: 222
Width: 600
Flags: W
HStem: 0 41<68 133 174 314> 131 41<202 338> 422 41<263 417> 522 41<179 235 275 425>
VStem: 524 42<319 333>
Fore
193 131 m 1
 174 41 l 1
 312 41 l 2
 329 41 336 36 336 25 c 0
 336 10 323 0 304 0 c 2
 70 0 l 2
 54 0 47 5 47 17 c 0
 47 32 59 41 79 41 c 2
 133 41 l 1
 235 522 l 1
 181 522 l 2
 165 522 158 527 158 539 c 0
 158 554 170 563 190 563 c 2
 423 563 l 2
 441 563 447 559 447 547 c 0
 447 532 435 522 415 522 c 2
 276 522 l 1
 263 463 l 1
 408 463 l 2
 500 463 566 408 566 331 c 0
 566 224 453 131 324 131 c 2
 193 131 l 1
202 172 m 1
 336 172 l 2
 434 172 524 243 524 321 c 0
 524 379 473 422 404 422 c 2
 255 422 l 1
 202 172 l 1
EndSplineSet
EndChar
StartChar: germandbls
Encoding: 158 223 32767
OldEncoding: 223
Width: 600
Flags: W
HStem: -16 41<359 373> 0 41<68 133 174 189> 334 41<344 368> 563 41<382 400>
VStem: 47 165<16 25> 278 42<69 85> 471 42<474 489> 497 42<191 208>
Fore
133 41 m 1
 225 476 l 2
 240 547 317 604 396 604 c 0
 465 604 513 556 513 487 c 0
 513 434 486 391 431 359 c 1
 504 326 539 276 539 206 c 0
 539 163 523 111 497 71 c 0
 460 14 413 -16 361 -16 c 0
 308 -16 278 18 278 79 c 0
 278 107 288 124 306 124 c 0
 315 124 322 118 322 109 c 0
 322 102 320 92 320 83 c 0
 320 45 338 25 371 25 c 0
 434 25 497 113 497 200 c 0
 497 274 431 334 350 334 c 2
 346 334 l 2
 328 334 322 339 322 350 c 0
 322 364 334 375 350 375 c 2
 355 375 l 2
 376 375 402 383 424 398 c 0
 455 418 471 446 471 480 c 0
 471 528 436 563 386 563 c 0
 329 563 277 525 267 476 c 1
 174 41 l 1
 189 41 l 2
 206 41 212 37 212 25 c 0
 212 10 199 0 180 0 c 2
 70 0 l 2
 54 0 47 5 47 16 c 0
 47 32 59 41 79 41 c 2
 133 41 l 1
EndSplineSet
EndChar
StartChar: agrave
Encoding: 159 224 32767
OldEncoding: 224
Width: 600
Flags: W
HStem: -16 41<218 238> 0 41<469 525> 217 41<311 366> 390 41<377 398>
VStem: 93 42<85 98> 486 42<319 333>
Fore
419 0 m 1
 433 67 l 1
 360 10 295 -16 225 -16 c 0
 143 -16 93 23 93 87 c 0
 93 184 200 258 338 258 c 0
 384 258 414 253 470 237 c 1
 485 308 l 2
 486 313 486 316 486 322 c 0
 486 363 444 390 379 390 c 0
 345 390 304 382 231 360 c 0
 226 359 223 358 220 358 c 0
 212 358 205 365 205 374 c 0
 205 384 211 392 223 397 c 0
 259 412 353 431 391 431 c 0
 472 431 528 390 528 331 c 0
 528 322 527 316 526 308 c 1
 469 41 l 1
 523 41 l 2
 540 41 546 37 546 25 c 0
 546 10 534 0 514 0 c 2
 419 0 l 1
443 112 m 1
 462 202 l 1
 427 211 382 217 337 217 c 0
 222 217 135 165 135 96 c 0
 135 51 170 25 231 25 c 0
 304 25 361 49 443 112 c 1
347 630 m 2
 439 530 l 1
 442 528 448 516 448 514 c 0
 448 502 434 490 422 490 c 0
 417 490 412 493 406 499 c 2
 313 599 l 2
 308 605 305 610 305 614 c 0
 305 627 317 639 331 639 c 0
 336 639 340 637 347 630 c 2
EndSplineSet
EndChar
StartChar: aacute
Encoding: 160 225 32767
OldEncoding: 225
Width: 600
Flags: W
HStem: -16 41<218 238> 0 41<469 525> 217 41<316 366> 390 41<377 398>
VStem: 93 42<85 98> 486 42<319 333>
Fore
419 0 m 1
 433 67 l 1
 360 10 295 -16 225 -16 c 0
 143 -16 93 23 93 87 c 0
 93 184 200 258 338 258 c 0
 384 258 414 253 470 237 c 1
 485 308 l 2
 486 313 486 316 486 322 c 0
 486 363 444 390 379 390 c 0
 345 390 304 382 231 360 c 0
 226 359 223 358 220 358 c 0
 212 358 205 365 205 374 c 0
 205 384 211 392 223 397 c 0
 259 412 353 431 391 431 c 0
 472 431 528 390 528 331 c 0
 528 322 527 316 526 308 c 1
 469 41 l 1
 523 41 l 2
 540 41 546 37 546 25 c 0
 546 10 534 0 514 0 c 2
 419 0 l 1
443 112 m 1
 462 202 l 1
 427 211 382 217 337 217 c 0
 222 217 135 165 135 96 c 0
 135 51 170 25 231 25 c 0
 304 25 361 49 443 112 c 1
514 599 m 2
 379 499 l 2
 370 493 364 490 359 490 c 0
 349 490 342 497 342 506 c 128
 342 515 346 520 359 530 c 2
 494 630 l 2
 504 637 509 639 515 639 c 0
 524 639 531 632 531 623 c 128
 531 614 527 608 514 599 c 2
EndSplineSet
EndChar
StartChar: acircumflex
Encoding: 161 226 32767
OldEncoding: 226
Width: 600
Flags: W
HStem: -16 41<218 238> 0 41<469 525> 217 41<316 366> 390 41<377 398>
VStem: 93 42<85 98> 486 42<319 333>
Fore
419 0 m 1
 433 67 l 1
 360 10 295 -16 225 -16 c 0
 143 -16 93 23 93 87 c 0
 93 184 200 258 338 258 c 0
 384 258 414 253 470 237 c 1
 485 308 l 2
 486 313 486 316 486 322 c 0
 486 363 444 390 379 390 c 0
 345 390 304 382 231 360 c 0
 226 359 223 358 220 358 c 0
 212 358 205 365 205 374 c 0
 205 384 211 392 223 397 c 0
 259 412 353 431 391 431 c 0
 472 431 528 390 528 331 c 0
 528 322 527 316 526 308 c 1
 469 41 l 1
 523 41 l 2
 540 41 546 37 546 25 c 0
 546 10 534 0 514 0 c 2
 419 0 l 1
443 112 m 1
 462 202 l 1
 427 211 382 217 337 217 c 0
 222 217 135 165 135 96 c 0
 135 51 170 25 231 25 c 0
 304 25 361 49 443 112 c 1
426 639 m 1
 535 531 l 1
 542 523 544 520 544 515 c 0
 544 502 532 490 519 490 c 0
 514 490 509 493 503 498 c 2
 415 586 l 1
 288 498 l 2
 281 493 274 490 269 490 c 0
 260 490 253 497 253 506 c 128
 253 515 261 525 271 530 c 1
 426 639 l 1
EndSplineSet
EndChar
StartChar: atilde
Encoding: 162 227 32767
OldEncoding: 227
Width: 600
Flags: W
HStem: -16 41<218 249> 0 41<469 525> 217 41<316 366> 390 41<377 398> 516 41<461 473> 564 41<348 359>
VStem: 93 42<85 98> 486 42<319 333>
Fore
419 0 m 1
 433 67 l 1
 360 10 295 -16 225 -16 c 0
 143 -16 93 23 93 87 c 0
 93 184 200 258 338 258 c 0
 384 258 414 253 470 237 c 1
 485 308 l 2
 486 313 486 316 486 322 c 0
 486 363 444 390 379 390 c 0
 345 390 304 382 231 360 c 0
 226 359 223 358 220 358 c 0
 212 358 205 365 205 374 c 0
 205 384 211 392 223 397 c 0
 259 412 353 431 391 431 c 0
 472 431 528 390 528 331 c 0
 528 322 527 316 526 308 c 1
 469 41 l 1
 523 41 l 2
 540 41 546 37 546 25 c 0
 546 10 534 0 514 0 c 2
 419 0 l 1
443 112 m 1
 462 202 l 1
 427 211 382 217 337 217 c 0
 222 217 135 165 135 96 c 0
 135 51 170 25 231 25 c 0
 304 25 361 49 443 112 c 1
553 603 m 0
 562 603 570 596 570 587 c 128
 570 578 566 573 548 558 c 0
 513 528 489 516 464 516 c 0
 442 516 425 523 390 547 c 0
 373 559 362 564 350 564 c 0
 330 564 319 558 284 527 c 0
 279 522 271 519 265 519 c 0
 256 519 249 525 249 534 c 128
 249 543 257 553 275 568 c 0
 309 594 333 605 357 605 c 0
 377 605 389 600 417 582 c 0
 449 561 458 557 471 557 c 0
 487 557 499 564 536 595 c 0
 543 601 548 603 553 603 c 0
EndSplineSet
EndChar
StartChar: adieresis
Encoding: 163 228 32767
OldEncoding: 228
Width: 600
Flags: W
HStem: -16 41<218 248> 0 41<469 525> 217 41<310 366> 390 41<377 398> 511 100<288 309 509 530>
VStem: 93 42<85 98> 248 102<551 571> 469 102<551 571> 486 42<319 333>
Fore
419 0 m 1
 433 67 l 1
 360 10 295 -16 225 -16 c 0
 143 -16 93 23 93 87 c 0
 93 184 200 258 338 258 c 0
 384 258 414 253 470 237 c 1
 485 308 l 2
 486 313 486 316 486 322 c 0
 486 363 444 390 379 390 c 0
 345 390 304 382 231 360 c 0
 226 359 223 358 220 358 c 0
 212 358 205 365 205 374 c 0
 205 384 211 392 223 397 c 0
 259 412 353 431 391 431 c 0
 472 431 528 390 528 331 c 0
 528 322 527 316 526 308 c 1
 469 41 l 1
 523 41 l 2
 540 41 546 37 546 25 c 0
 546 10 534 0 514 0 c 2
 419 0 l 1
443 112 m 1
 462 202 l 1
 427 211 382 217 337 217 c 0
 222 217 135 165 135 96 c 0
 135 51 170 25 231 25 c 0
 304 25 361 49 443 112 c 1
309 611 m 0
 333 611 350 594 350 571 c 0
 350 540 320 511 288 511 c 0
 265 511 248 528 248 551 c 0
 248 581 278 611 309 611 c 0
530 611 m 0
 554 611 571 594 571 571 c 0
 571 540 541 511 509 511 c 0
 486 511 469 528 469 551 c 0
 469 581 499 611 530 611 c 0
EndSplineSet
EndChar
StartChar: aring
Encoding: 164 229 32767
OldEncoding: 229
Width: 600
Flags: W
HStem: -16 41<218 238> 0 41<469 525> 217 41<314 366> 390 41<377 400> 480 33<389 402> 628 33<417 434>
VStem: 93 42<85 98> 316 34<550 561> 472 34<575 591> 486 42<319 333>
Fore
419 0 m 1
 433 67 l 1
 360 10 295 -16 225 -16 c 0
 143 -16 93 23 93 87 c 0
 93 184 200 258 338 258 c 0
 384 258 414 253 470 237 c 1
 485 308 l 2
 486 313 486 316 486 322 c 0
 486 363 444 390 379 390 c 0
 345 390 304 382 231 360 c 0
 226 359 223 358 220 358 c 0
 212 358 205 365 205 374 c 0
 205 384 211 392 223 397 c 0
 259 412 353 431 391 431 c 0
 472 431 528 390 528 331 c 0
 528 322 527 316 526 308 c 1
 469 41 l 1
 523 41 l 2
 540 41 546 37 546 25 c 0
 546 10 534 0 514 0 c 2
 419 0 l 1
443 112 m 1
 462 202 l 1
 427 211 382 217 337 217 c 0
 222 217 135 165 135 96 c 0
 135 51 170 25 231 25 c 0
 304 25 361 49 443 112 c 1
430 661 m 0
 474 661 506 631 506 589 c 0
 506 533 451 480 392 480 c 0
 348 480 316 511 316 552 c 0
 316 608 372 661 430 661 c 0
423 628 m 0
 386 628 350 594 350 559 c 0
 350 533 371 513 399 513 c 0
 437 513 472 546 472 582 c 0
 472 609 451 628 423 628 c 0
EndSplineSet
EndChar
StartChar: ae
Encoding: 165 230 32767
OldEncoding: 230
Width: 600
Flags: W
HStem: -16 41<149 167 439 453> 199 41<370 586> 216 41<227 261> 390 41<273 286 510 523>
VStem: 36 44<86 112> 589 41<271 307>
Fore
521 431 m 0
 590 431 630 380 630 296 c 0
 630 263 627 240 619 199 c 1
 361 199 l 1
 359 181 358 165 358 154 c 0
 358 79 397 25 451 25 c 0
 481 25 506 38 563 82 c 0
 567 85 573 87 577 87 c 0
 586 87 593 80 593 70 c 0
 593 61 587 54 565 38 c 0
 517 2 475 -16 441 -16 c 0
 394 -16 356 11 333 61 c 1
 328 41 326 0 300 0 c 0
 291 0 284 7 284 15 c 1
 285 29 288 40 291 52 c 1
 242 5 200 -16 156 -16 c 0
 83 -16 36 29 36 99 c 0
 36 136 48 166 71 190 c 0
 110 230 181 257 249 257 c 0
 277 257 305 253 332 245 c 1
 345 305 l 1
 346 311 347 319 347 322 c 0
 347 362 317 390 275 390 c 0
 247 390 211 380 185 365 c 0
 177 361 170 358 165 358 c 0
 158 358 150 366 150 374 c 0
 150 387 160 396 185 406 c 0
 226 423 260 431 290 431 c 0
 340 431 378 397 385 347 c 1
 421 399 473 431 521 431 c 0
303 110 m 1
 323 203 l 1
 297 211 269 216 246 216 c 0
 190 216 122 190 98 159 c 0
 88 145 80 120 80 100 c 0
 80 55 114 25 165 25 c 0
 204 25 243 49 303 110 c 1
370 240 m 1
 586 240 l 1
 588 262 589 274 589 288 c 0
 589 354 562 390 512 390 c 0
 452 390 405 340 370 240 c 1
EndSplineSet
EndChar
StartChar: ccedilla
Encoding: 166 231 32767
OldEncoding: 231
Width: 600
Flags: W
HStem: -173 38<258 280> 391 40<391 411>
VStem: 122 42<146 164>
Fore
311 -16 m 1
 305 -47 l 1
 340 -48 359 -63 359 -93 c 0
 359 -138 318 -173 265 -173 c 0
 228 -173 184 -154 184 -138 c 0
 184 -125 196 -114 208 -114 c 0
 213 -114 216 -115 223 -119 c 0
 243 -131 256 -135 271 -135 c 0
 300 -135 322 -121 322 -101 c 0
 322 -88 308 -81 280 -81 c 2
 260 -81 l 1
 274 -14 l 1
 242 -9 228 -5 209 4 c 0
 155 29 122 87 122 154 c 0
 122 303 253 431 406 431 c 0
 468 431 516 412 551 376 c 1
 555 395 559 417 580 417 c 0
 589 417 596 410 596 402 c 0
 596 399 595 395 594 389 c 1
 575 298 l 2
 571 280 562 270 549 270 c 0
 542 270 537 273 532 282 c 1
 535 318 l 1
 535 323 510 353 498 362 c 0
 477 379 434 391 393 391 c 0
 323 391 259 360 217 306 c 0
 184 264 164 209 164 162 c 0
 164 81 226 24 313 24 c 0
 388 24 460 50 519 97 c 0
 527 104 534 108 539 108 c 0
 546 108 555 99 555 91 c 0
 555 75 515 43 463 19 c 0
 417 -3 370 -13 311 -16 c 1
EndSplineSet
EndChar
StartChar: egrave
Encoding: 167 232 32767
OldEncoding: 232
Width: 600
Flags: W
HStem: -16 41<295 322> 199 41<155 529> 390 41<359 393>
VStem: 104 41<159 179> 530 40<250 264>
Fore
562 199 m 1
 146 199 l 1
 145 189 145 181 145 177 c 0
 145 87 213 25 310 25 c 0
 373 25 450 47 498 79 c 0
 507 84 511 86 516 86 c 0
 525 86 531 79 531 70 c 0
 531 58 521 48 491 32 c 0
 437 2 364 -16 300 -16 c 0
 184 -16 104 60 104 171 c 0
 104 309 235 431 383 431 c 0
 492 431 570 361 570 262 c 0
 570 248 567 224 562 199 c 1
155 240 m 1
 529 240 l 1
 530 245 530 250 530 252 c 0
 530 333 466 390 375 390 c 0
 277 390 192 332 155 240 c 1
362 630 m 2
 454 530 l 1
 457 528 463 516 463 514 c 0
 463 502 449 490 437 490 c 0
 432 490 427 493 421 499 c 2
 328 599 l 2
 323 605 320 610 320 614 c 0
 320 627 332 639 346 639 c 0
 351 639 355 637 362 630 c 2
EndSplineSet
EndChar
StartChar: eacute
Encoding: 168 233 32767
OldEncoding: 233
Width: 600
Flags: W
HStem: -16 41<295 312> 199 41<155 529> 390 41<359 395>
VStem: 104 41<159 179> 530 40<250 264>
Fore
562 199 m 1
 146 199 l 1
 145 189 145 181 145 177 c 0
 145 87 213 25 310 25 c 0
 373 25 450 47 498 79 c 0
 507 84 511 86 516 86 c 0
 525 86 531 79 531 70 c 0
 531 58 521 48 491 32 c 0
 437 2 364 -16 300 -16 c 0
 184 -16 104 60 104 171 c 0
 104 309 235 431 383 431 c 0
 492 431 570 361 570 262 c 0
 570 248 567 224 562 199 c 1
155 240 m 1
 529 240 l 1
 530 245 530 250 530 252 c 0
 530 333 466 390 375 390 c 0
 277 390 192 332 155 240 c 1
529 599 m 2
 394 499 l 2
 385 493 379 490 374 490 c 0
 364 490 357 497 357 506 c 128
 357 515 361 520 374 530 c 2
 509 630 l 2
 519 637 524 639 530 639 c 0
 539 639 546 632 546 623 c 128
 546 614 542 608 529 599 c 2
EndSplineSet
EndChar
StartChar: ecircumflex
Encoding: 169 234 32767
OldEncoding: 234
Width: 600
Flags: W
HStem: -16 41<295 312> 199 41<155 529> 390 41<359 393>
VStem: 104 41<159 179> 530 40<250 264>
Fore
562 199 m 1
 146 199 l 1
 145 189 145 181 145 177 c 0
 145 87 213 25 310 25 c 0
 373 25 450 47 498 79 c 0
 507 84 511 86 516 86 c 0
 525 86 531 79 531 70 c 0
 531 58 521 48 491 32 c 0
 437 2 364 -16 300 -16 c 0
 184 -16 104 60 104 171 c 0
 104 309 235 431 383 431 c 0
 492 431 570 361 570 262 c 0
 570 248 567 224 562 199 c 1
155 240 m 1
 529 240 l 1
 530 245 530 250 530 252 c 0
 530 333 466 390 375 390 c 0
 277 390 192 332 155 240 c 1
441 639 m 1
 550 531 l 1
 557 523 559 520 559 515 c 0
 559 502 547 490 534 490 c 0
 529 490 524 493 518 498 c 2
 430 586 l 1
 303 498 l 2
 296 493 289 490 284 490 c 0
 275 490 268 497 268 506 c 128
 268 515 276 525 286 530 c 1
 441 639 l 1
EndSplineSet
EndChar
StartChar: edieresis
Encoding: 170 235 32767
OldEncoding: 235
Width: 600
Flags: W
HStem: -16 41<295 326> 199 41<155 530> 390 41<359 393> 511 100<303 324 524 545>
VStem: 104 41<159 179> 263 102<551 571> 484 102<551 571>
Fore
563 199 m 1
 146 199 l 1
 145 189 145 181 145 177 c 0
 145 87 213 25 310 25 c 0
 373 25 451 47 498 79 c 0
 507 84 511 86 516 86 c 0
 525 86 531 79 531 70 c 0
 531 58 521 48 491 32 c 0
 437 2 364 -16 300 -16 c 0
 184 -16 104 60 104 171 c 0
 104 309 235 431 383 431 c 0
 492 431 570 361 570 262 c 0
 570 248 567 224 563 199 c 1
155 240 m 1
 530 240 l 1
 528 287 520 311 501 335 c 0
 471 372 429 390 374 390 c 0
 277 390 192 332 155 240 c 1
324 611 m 0
 348 611 365 594 365 571 c 0
 365 540 335 511 303 511 c 0
 280 511 263 528 263 551 c 0
 263 581 293 611 324 611 c 0
545 611 m 0
 569 611 586 594 586 571 c 0
 586 540 556 511 524 511 c 0
 501 511 484 528 484 551 c 0
 484 581 514 611 545 611 c 0
EndSplineSet
EndChar
StartChar: igrave
Encoding: 171 236 32767
OldEncoding: 236
Width: 600
Flags: W
HStem: 0 41<117 288 329 491> 376 41<239 359>
Fore
409 417 m 1
 329 41 l 1
 489 41 l 2
 506 41 513 36 513 25 c 0
 513 10 500 0 481 0 c 2
 119 0 l 2
 103 0 96 5 96 16 c 0
 96 32 108 41 127 41 c 2
 288 41 l 1
 359 376 l 1
 241 376 l 2
 225 376 218 381 218 393 c 0
 218 408 230 417 250 417 c 2
 409 417 l 1
351 630 m 2
 443 530 l 1
 446 528 452 516 452 514 c 0
 452 502 438 490 426 490 c 0
 421 490 416 493 410 499 c 2
 317 599 l 2
 312 605 309 610 309 614 c 0
 309 627 321 639 335 639 c 0
 340 639 344 637 351 630 c 2
EndSplineSet
EndChar
StartChar: iacute
Encoding: 172 237 32767
OldEncoding: 237
Width: 600
Flags: W
HStem: 0 41<117 288 329 491> 376 41<239 359>
Fore
409 417 m 1
 329 41 l 1
 489 41 l 2
 506 41 513 36 513 25 c 0
 513 10 500 0 481 0 c 2
 119 0 l 2
 103 0 96 5 96 16 c 0
 96 32 108 41 127 41 c 2
 288 41 l 1
 359 376 l 1
 241 376 l 2
 225 376 218 381 218 393 c 0
 218 408 230 417 250 417 c 2
 409 417 l 1
518 599 m 2
 383 499 l 2
 374 493 368 490 363 490 c 0
 353 490 346 497 346 506 c 128
 346 515 350 520 363 530 c 2
 498 630 l 2
 508 637 513 639 519 639 c 0
 528 639 535 632 535 623 c 128
 535 614 531 608 518 599 c 2
EndSplineSet
EndChar
StartChar: icircumflex
Encoding: 173 238 32767
OldEncoding: 238
Width: 600
Flags: W
HStem: 0 41<116 287 328 490> 376 41<238 358>
Fore
408 417 m 1
 328 41 l 1
 488 41 l 2
 505 41 512 36 512 25 c 0
 512 10 499 0 480 0 c 2
 118 0 l 2
 102 0 95 5 95 16 c 0
 95 32 107 41 126 41 c 2
 287 41 l 1
 358 376 l 1
 240 376 l 2
 224 376 217 381 217 393 c 0
 217 408 229 417 249 417 c 2
 408 417 l 1
418 639 m 1
 527 531 l 1
 534 523 536 520 536 515 c 0
 536 502 524 490 511 490 c 0
 506 490 501 493 495 498 c 2
 407 586 l 1
 280 498 l 2
 273 493 266 490 261 490 c 0
 252 490 245 497 245 506 c 128
 245 515 253 525 263 530 c 1
 418 639 l 1
EndSplineSet
EndChar
StartChar: idieresis
Encoding: 174 239 32767
OldEncoding: 239
Width: 600
Flags: W
HStem: 0 41<117 288 329 491> 376 41<239 359> 511 100<284 305 506 527>
VStem: 244 102<551 571> 466 102<551 571>
Fore
409 417 m 1
 329 41 l 1
 489 41 l 2
 506 41 513 36 513 25 c 0
 513 10 500 0 480 0 c 2
 119 0 l 2
 103 0 96 5 96 16 c 0
 96 32 108 41 127 41 c 2
 288 41 l 1
 359 376 l 1
 241 376 l 2
 225 376 218 381 218 393 c 0
 218 408 230 417 250 417 c 2
 409 417 l 1
305 611 m 0
 329 611 346 594 346 571 c 0
 346 540 316 511 284 511 c 0
 261 511 244 528 244 551 c 0
 244 581 274 611 305 611 c 0
527 611 m 0
 551 611 568 594 568 571 c 0
 568 540 538 511 506 511 c 0
 483 511 466 528 466 551 c 0
 466 581 496 611 527 611 c 0
EndSplineSet
EndChar
StartChar: eth
Encoding: 175 240 32767
OldEncoding: 240
Width: 600
Flags: W
HStem: -17 42<286 314> 390 40<381 400>
VStem: 111 43<158 176> 536 46<244 286>
Fore
562 577 m 2
 480 543 l 1
 545 474 582 380 582 286 c 0
 582 208 551 128 501 75 c 0
 444 16 370 -17 296 -17 c 0
 187 -17 111 57 111 161 c 0
 111 300 246 430 390 430 c 0
 444 430 478 416 524 377 c 1
 503 441 470 495 434 525 c 1
 335 483 l 1
 328 482 l 2
 319 482 312 490 312 500 c 128
 312 510 317 518 324 521 c 2
 393 549 l 1
 360 565 338 572 302 580 c 0
 291 582 286 586 286 594 c 0
 286 608 298 620 312 620 c 0
 338 620 397 600 450 572 c 1
 553 614 l 1
 560 615 l 2
 568 615 575 608 575 599 c 0
 575 589 570 580 562 577 c 2
383 390 m 0
 265 390 154 284 154 171 c 0
 154 85 217 25 306 25 c 0
 425 25 536 130 536 244 c 0
 536 331 474 390 383 390 c 0
EndSplineSet
EndChar
StartChar: ntilde
Encoding: 176 241 32767
OldEncoding: 241
Width: 600
Flags: W
HStem: 0 41<79 135 176 223 403 448 489 524> 376 41<170 206> 390 41<391 426> 516 41<462 473> 564 41<344 359>
VStem: 57 187<16 25> 382 164<16 25> 502 43<303 321>
Fore
256 417 m 1
 241 348 l 1
 313 412 353 431 414 431 c 0
 493 431 545 387 545 319 c 0
 545 309 544 303 543 295 c 1
 489 41 l 1
 523 41 l 2
 540 41 546 37 546 25 c 0
 546 10 533 0 514 0 c 2
 405 0 l 2
 389 0 382 5 382 16 c 0
 382 32 394 41 414 41 c 2
 448 41 l 1
 500 288 l 1
 502 295 502 298 502 308 c 0
 502 329 493 349 478 364 c 0
 458 384 440 390 403 390 c 0
 339 390 309 373 230 294 c 1
 176 41 l 1
 221 41 l 2
 238 41 244 37 244 25 c 0
 244 10 232 0 212 0 c 2
 81 0 l 2
 64 0 57 5 57 16 c 0
 57 32 69 41 89 41 c 2
 135 41 l 1
 206 376 l 1
 172 376 l 2
 156 376 149 381 149 392 c 0
 149 408 161 417 181 417 c 2
 256 417 l 1
553 603 m 0
 562 603 570 596 570 587 c 128
 570 578 566 573 548 558 c 0
 513 528 489 516 464 516 c 0
 442 516 425 523 390 547 c 0
 373 559 362 564 350 564 c 0
 330 564 319 558 284 527 c 0
 279 522 271 519 265 519 c 0
 256 519 249 525 249 534 c 128
 249 543 257 553 275 568 c 0
 309 594 333 605 357 605 c 0
 377 605 389 600 417 582 c 0
 449 561 458 557 471 557 c 0
 487 557 499 564 536 595 c 0
 543 601 548 603 553 603 c 0
EndSplineSet
EndChar
StartChar: ograve
Encoding: 177 242 32767
OldEncoding: 242
Width: 600
Flags: W
HStem: -16 41<286 308> 390 41<380 400>
VStem: 111 42<159 177> 535 42<239 257>
Fore
391 431 m 0
 501 431 577 358 577 252 c 0
 577 113 441 -16 296 -16 c 0
 187 -16 111 58 111 162 c 0
 111 301 247 431 391 431 c 0
382 390 m 0
 264 390 153 284 153 171 c 0
 153 85 216 25 305 25 c 0
 424 25 535 130 535 244 c 0
 535 331 473 390 382 390 c 0
364 630 m 2
 456 530 l 1
 459 528 465 516 465 514 c 0
 465 502 451 490 439 490 c 0
 434 490 429 493 423 499 c 2
 330 599 l 2
 325 605 322 610 322 614 c 0
 322 627 334 639 348 639 c 0
 353 639 357 637 364 630 c 2
EndSplineSet
EndChar
StartChar: oacute
Encoding: 178 243 32767
OldEncoding: 243
Width: 600
Flags: W
HStem: -16 41<286 308> 390 41<369 400>
VStem: 111 42<159 177> 535 42<239 257>
Fore
391 431 m 0
 501 431 577 358 577 252 c 0
 577 113 441 -16 296 -16 c 0
 187 -16 111 58 111 162 c 0
 111 301 247 431 391 431 c 0
382 390 m 0
 264 390 153 284 153 171 c 0
 153 85 216 25 305 25 c 0
 424 25 535 130 535 244 c 0
 535 331 473 390 382 390 c 0
525 599 m 2
 390 499 l 2
 381 493 375 490 370 490 c 0
 360 490 353 497 353 506 c 128
 353 515 357 520 370 530 c 2
 505 630 l 2
 515 637 520 639 526 639 c 0
 535 639 542 632 542 623 c 128
 542 614 538 608 525 599 c 2
EndSplineSet
EndChar
StartChar: ocircumflex
Encoding: 179 244 32767
OldEncoding: 244
Width: 600
Flags: W
HStem: -16 41<286 308> 390 41<380 400>
VStem: 111 42<159 177> 535 42<239 257>
Fore
391 431 m 0
 501 431 577 358 577 252 c 0
 577 113 441 -16 296 -16 c 0
 187 -16 111 58 111 162 c 0
 111 301 247 431 391 431 c 0
382 390 m 0
 264 390 153 284 153 171 c 0
 153 85 216 25 305 25 c 0
 424 25 535 130 535 244 c 0
 535 331 473 390 382 390 c 0
436 639 m 1
 545 531 l 1
 552 523 554 520 554 515 c 0
 554 502 542 490 529 490 c 0
 524 490 519 493 513 498 c 2
 425 586 l 1
 298 498 l 2
 291 493 284 490 279 490 c 0
 270 490 263 497 263 506 c 128
 263 515 271 525 281 530 c 1
 436 639 l 1
EndSplineSet
EndChar
StartChar: otilde
Encoding: 180 245 32767
OldEncoding: 245
Width: 600
Flags: W
HStem: -16 41<286 308> 390 41<371 400> 516 41<478 489> 564 41<364 375>
VStem: 111 42<159 177> 535 42<239 257>
Fore
391 431 m 0
 501 431 577 358 577 252 c 0
 577 113 441 -16 296 -16 c 0
 187 -16 111 58 111 162 c 0
 111 301 247 431 391 431 c 0
382 390 m 0
 264 390 153 284 153 171 c 0
 153 85 216 25 305 25 c 0
 424 25 535 130 535 244 c 0
 535 331 473 390 382 390 c 0
569 603 m 0
 578 603 586 596 586 587 c 128
 586 578 582 573 564 558 c 0
 529 528 505 516 480 516 c 0
 458 516 441 523 406 547 c 0
 389 559 378 564 366 564 c 0
 346 564 335 558 300 527 c 0
 295 522 287 519 281 519 c 0
 272 519 265 525 265 534 c 128
 265 543 273 553 291 568 c 0
 325 594 349 605 373 605 c 0
 393 605 405 600 433 582 c 0
 465 561 474 557 487 557 c 0
 503 557 515 564 552 595 c 0
 559 601 564 603 569 603 c 0
EndSplineSet
EndChar
StartChar: odieresis
Encoding: 181 246 32767
OldEncoding: 246
Width: 600
Flags: W
HStem: -16 41<286 319> 390 41<380 400> 511 100<298 319 519 540>
VStem: 111 42<159 177> 258 102<551 571> 479 102<551 571> 535 42<239 257>
Fore
391 431 m 0
 501 431 577 358 577 252 c 0
 577 113 441 -16 296 -16 c 0
 187 -16 111 58 111 162 c 0
 111 301 247 431 391 431 c 0
382 390 m 0
 264 390 153 284 153 171 c 0
 153 85 216 25 305 25 c 0
 424 25 535 130 535 244 c 0
 535 331 473 390 382 390 c 0
319 611 m 0
 343 611 360 594 360 571 c 0
 360 540 330 511 298 511 c 0
 275 511 258 528 258 551 c 0
 258 581 288 611 319 611 c 0
540 611 m 0
 564 611 581 594 581 571 c 0
 581 540 551 511 519 511 c 0
 496 511 479 528 479 551 c 0
 479 581 509 611 540 611 c 0
EndSplineSet
EndChar
StartChar: divide
Encoding: 182 247 32767
OldEncoding: 247
Width: 600
Flags: W
HStem: 25 99<305 326> 262 40<152 566> 441 99<393 415>
VStem: 265 102<64 84> 354 101<480 500>
Fore
556 262 m 2
 154 262 l 2
 138 262 131 267 131 278 c 0
 131 293 143 302 163 302 c 2
 565 302 l 2
 581 302 588 297 588 286 c 0
 588 271 576 262 556 262 c 2
326 124 m 0
 350 124 367 108 367 84 c 0
 367 54 337 25 305 25 c 0
 282 25 265 42 265 64 c 0
 265 95 295 124 326 124 c 0
415 540 m 0
 438 540 455 524 455 500 c 0
 455 470 425 441 393 441 c 0
 371 441 354 458 354 480 c 0
 354 511 384 540 415 540 c 0
EndSplineSet
EndChar
StartChar: oslash
Encoding: 183 248 32767
OldEncoding: 248
Width: 600
Flags: W
HStem: -16 41<286 308> 390 41<381 400>
VStem: 111 42<160 182> 535 42<243 262>
Fore
161 35 m 1
 80 -33 l 2
 71 -41 67 -43 61 -43 c 0
 53 -43 47 -37 47 -29 c 0
 47 -22 51 -17 61 -8 c 2
 141 59 l 1
 121 90 111 123 111 162 c 0
 111 302 246 431 392 431 c 0
 446 431 490 415 525 382 c 1
 603 448 l 2
 613 456 617 458 623 458 c 0
 631 458 637 452 637 444 c 0
 637 437 633 432 623 423 c 2
 545 358 l 1
 567 326 577 294 577 254 c 0
 577 113 442 -16 296 -16 c 0
 241 -16 197 1 161 35 c 1
511 329 m 1
 197 65 l 1
 224 39 261 25 305 25 c 0
 425 25 535 131 535 245 c 0
 535 277 527 304 511 329 c 1
176 89 m 1
 490 352 l 1
 461 378 426 390 383 390 c 0
 263 390 153 285 153 171 c 0
 153 140 161 113 176 89 c 1
EndSplineSet
EndChar
StartChar: ugrave
Encoding: 184 249 32767
OldEncoding: 249
Width: 600
Flags: W
HStem: -16 41<251 272> 0 21G<439 514> 376 41<148 204 443 519>
VStem: 145 43<81 99>
Fore
439 0 m 1
 453 66 l 1
 387 11 320 -16 253 -16 c 0
 187 -16 145 22 145 82 c 0
 145 93 146 104 149 115 c 1
 204 376 l 1
 150 376 l 2
 134 376 127 381 127 392 c 0
 127 408 139 417 159 417 c 2
 254 417 l 1
 190 115 l 1
 188 109 188 105 188 97 c 0
 188 55 218 25 261 25 c 0
 329 25 395 54 464 115 c 1
 519 376 l 1
 445 376 l 2
 428 376 421 381 421 392 c 0
 421 408 433 417 454 417 c 2
 569 417 l 1
 489 41 l 1
 523 41 l 2
 540 41 546 37 546 25 c 0
 546 10 534 0 514 0 c 2
 439 0 l 1
356 630 m 2
 448 530 l 1
 451 528 457 516 457 514 c 0
 457 502 443 490 431 490 c 0
 426 490 421 493 415 499 c 2
 322 599 l 2
 317 605 314 610 314 614 c 0
 314 627 326 639 340 639 c 0
 345 639 349 637 356 630 c 2
EndSplineSet
EndChar
StartChar: uacute
Encoding: 185 250 32767
OldEncoding: 250
Width: 600
Flags: W
HStem: -16 41<251 272> 0 21G<439 514> 376 41<148 204 443 519>
VStem: 145 43<81 99>
Fore
439 0 m 1
 453 66 l 1
 387 11 320 -16 253 -16 c 0
 187 -16 145 22 145 82 c 0
 145 93 146 104 149 115 c 1
 204 376 l 1
 150 376 l 2
 134 376 127 381 127 392 c 0
 127 408 139 417 159 417 c 2
 254 417 l 1
 190 115 l 1
 188 109 188 105 188 97 c 0
 188 55 218 25 261 25 c 0
 329 25 395 54 464 115 c 1
 519 376 l 1
 445 376 l 2
 428 376 421 381 421 392 c 0
 421 408 433 417 454 417 c 2
 569 417 l 1
 489 41 l 1
 523 41 l 2
 540 41 546 37 546 25 c 0
 546 10 534 0 514 0 c 2
 439 0 l 1
510 599 m 2
 375 499 l 2
 366 493 360 490 355 490 c 0
 345 490 338 497 338 506 c 128
 338 515 342 520 355 530 c 2
 490 630 l 2
 500 637 505 639 511 639 c 0
 520 639 527 632 527 623 c 128
 527 614 523 608 510 599 c 2
EndSplineSet
EndChar
StartChar: ucircumflex
Encoding: 186 251 32767
OldEncoding: 251
Width: 600
Flags: W
HStem: -16 41<251 275> 0 21G<439 514> 376 41<148 204 443 519>
VStem: 145 43<81 99>
Fore
439 0 m 1
 453 66 l 1
 387 11 320 -16 253 -16 c 0
 187 -16 145 22 145 82 c 0
 145 93 146 104 149 115 c 1
 204 376 l 1
 150 376 l 2
 134 376 127 381 127 392 c 0
 127 408 139 417 159 417 c 2
 254 417 l 1
 190 115 l 1
 188 109 188 105 188 97 c 0
 188 55 218 25 261 25 c 0
 329 25 395 54 464 115 c 1
 519 376 l 1
 445 376 l 2
 428 376 421 381 421 392 c 0
 421 408 433 417 454 417 c 2
 569 417 l 1
 489 41 l 1
 523 41 l 2
 540 41 546 37 546 25 c 0
 546 10 534 0 514 0 c 2
 439 0 l 1
428 639 m 1
 537 531 l 1
 544 523 546 520 546 515 c 0
 546 502 534 490 521 490 c 0
 516 490 511 493 505 498 c 2
 417 586 l 1
 290 498 l 2
 283 493 276 490 271 490 c 0
 262 490 255 497 255 506 c 128
 255 515 263 525 273 530 c 1
 428 639 l 1
EndSplineSet
EndChar
StartChar: udieresis
Encoding: 187 252 32767
OldEncoding: 252
Width: 600
Flags: W
HStem: -16 41<248 272> 0 21G<439 514> 376 41<148 204 443 519> 511 100<290 311 511 532>
VStem: 145 43<81 99> 250 102<551 571> 471 102<551 571>
Fore
439 0 m 1
 453 66 l 1
 387 11 320 -16 253 -16 c 0
 187 -16 145 22 145 82 c 0
 145 93 146 104 149 115 c 1
 204 376 l 1
 150 376 l 2
 134 376 127 381 127 392 c 0
 127 408 139 417 159 417 c 2
 254 417 l 1
 190 115 l 1
 188 109 188 105 188 97 c 0
 188 55 218 25 261 25 c 0
 329 25 395 54 464 115 c 1
 519 376 l 1
 445 376 l 2
 428 376 421 381 421 392 c 0
 421 408 433 417 454 417 c 2
 569 417 l 1
 489 41 l 1
 523 41 l 2
 540 41 546 37 546 25 c 0
 546 10 534 0 514 0 c 2
 439 0 l 1
311 611 m 0
 335 611 352 594 352 571 c 0
 352 540 322 511 290 511 c 0
 267 511 250 528 250 551 c 0
 250 581 280 611 311 611 c 0
532 611 m 0
 556 611 573 594 573 571 c 0
 573 540 543 511 511 511 c 0
 488 511 471 528 471 551 c 0
 471 581 501 611 532 611 c 0
EndSplineSet
EndChar
StartChar: yacute
Encoding: 188 253 32767
OldEncoding: 253
Width: 600
Flags: W
HStem: -186 41<43 180 222 288> 376 41<157 175 221 284 490 546 588 613>
VStem: 135 170<392 401>
Fore
282 0 m 1
 175 376 l 1
 159 376 l 2
 142 376 135 381 135 392 c 0
 135 408 147 417 167 417 c 2
 282 417 l 2
 298 417 305 412 305 401 c 0
 305 386 293 376 273 376 c 2
 221 376 l 1
 315 45 l 1
 546 376 l 1
 492 376 l 2
 476 376 469 381 469 393 c 0
 469 407 481 417 501 417 c 2
 611 417 l 2
 627 417 634 412 634 401 c 0
 634 386 622 376 602 376 c 2
 589 376 l 1
 222 -145 l 1
 286 -145 l 2
 304 -145 310 -149 310 -161 c 0
 310 -176 297 -186 278 -186 c 2
 45 -186 l 2
 29 -186 22 -181 22 -170 c 0
 22 -154 34 -145 54 -145 c 2
 180 -145 l 1
 282 0 l 1
560 599 m 2
 425 499 l 2
 416 493 410 490 405 490 c 0
 395 490 388 497 388 506 c 128
 388 515 392 520 405 530 c 2
 540 630 l 2
 550 637 555 639 561 639 c 0
 570 639 577 632 577 623 c 128
 577 614 573 608 560 599 c 2
EndSplineSet
EndChar
StartChar: thorn
Encoding: 189 254 32767
OldEncoding: 254
Width: 600
Flags: W
HStem: -186 41<8 73 114 213> 10 41<322 340> 390 41<402 420> 549 41<164 220>
VStem: 551 42<245 267>
Fore
270 590 m 1
 216 335 l 1
 283 404 339 431 415 431 c 0
 523 431 593 365 593 264 c 0
 593 131 466 10 326 10 c 0
 249 10 199 40 167 106 c 1
 114 -145 l 1
 211 -145 l 2
 229 -145 235 -149 235 -161 c 0
 235 -177 223 -186 203 -186 c 2
 10 -186 l 2
 -6 -186 -13 -181 -13 -170 c 0
 -13 -154 -1 -145 19 -145 c 2
 73 -145 l 1
 220 549 l 1
 166 549 l 2
 150 549 143 554 143 565 c 0
 143 581 155 590 175 590 c 2
 270 590 l 1
405 390 m 0
 292 390 188 292 188 187 c 0
 188 107 248 51 333 51 c 0
 447 51 551 149 551 255 c 0
 551 335 491 390 405 390 c 0
EndSplineSet
EndChar
StartChar: ydieresis
Encoding: 190 255 32767
OldEncoding: 255
Width: 600
Flags: W
HStem: -186 41<43 180 222 288> 376 41<157 175 221 284 490 546 588 613> 511 100<298 319 519 540>
VStem: 135 170<392 401> 258 102<551 571> 479 102<551 571>
Fore
282 0 m 1
 175 376 l 1
 159 376 l 2
 142 376 135 381 135 392 c 0
 135 408 147 417 167 417 c 2
 282 417 l 2
 298 417 305 412 305 401 c 0
 305 386 293 376 273 376 c 2
 221 376 l 1
 315 45 l 1
 546 376 l 1
 492 376 l 2
 476 376 469 381 469 393 c 0
 469 407 481 417 501 417 c 2
 611 417 l 2
 627 417 634 412 634 401 c 0
 634 386 622 376 602 376 c 2
 589 376 l 1
 222 -145 l 1
 286 -145 l 2
 304 -145 310 -149 310 -161 c 0
 310 -176 297 -186 278 -186 c 2
 45 -186 l 2
 29 -186 22 -181 22 -170 c 0
 22 -154 34 -145 54 -145 c 2
 180 -145 l 1
 282 0 l 1
319 611 m 0
 343 611 360 594 360 571 c 0
 360 540 330 511 298 511 c 0
 275 511 258 528 258 551 c 0
 258 581 288 611 319 611 c 0
540 611 m 0
 564 611 581 594 581 571 c 0
 581 540 551 511 519 511 c 0
 496 511 479 528 479 551 c 0
 479 581 509 611 540 611 c 0
EndSplineSet
EndChar
StartChar: uni0E01
Encoding: 191 3585 32767
OldEncoding: 3585
Width: 600
Flags: W
HStem: 0 21G<63 123 398 458> 385 60<334 356>
VStem: 459 61<298 306>
Fore
354 445 m 0
 462 445 520 373 520 304 c 0
 520 296 519 288 517 280 c 10
 458 0 l 25
 398 0 l 25
 457 280 l 18
 459 287 459 294 459 300 c 0
 459 358 400 385 342 385 c 8
 273 385 207 366 163 330 c 1
 223 330 l 1
 212 280 l 1
 183 266 174 241 168 214 c 10
 123 0 l 25
 63 0 l 25
 108 214 l 18
 114 241 135 273 152 280 c 1
 92 280 l 1
 103 330 l 1
 166 411 263 445 354 445 c 0
EndSplineSet
Comment: "Thai Gogai" 
EndChar
StartChar: uni0E02
Encoding: 192 3586 32767
OldEncoding: 3586
Width: 600
Flags: W
HStem: 0 60<131 192 252 417> 278 42<237 248>
VStem: 174 40<340 352> 352 67<326 356>
Fore
263 400 m 0
 241 400 219 382 215 360 c 0
 214 357 214 354 214 352 c 0
 214 334 227 320 246 320 c 0
 268 320 290 338 295 360 c 0
 295 363 295 366 295 368 c 0
 295 386 282 400 263 400 c 0
176 359 m 8
 186 404 229 436 273 446 c 0
 288 450 303 452 315 452 c 0
 345 452 369 442 391 420 c 0
 410 401 419 381 419 356 c 0
 419 346 417 336 415 324 c 1
 398 243 290 240 270 144 c 1
 263 112 252 60 252 60 c 25
 417 60 l 25
 499 445 l 25
 559 445 l 25
 464 0 l 17
 119 0 l 9
 132 60 l 25
 192 60 l 25
 214 164 l 18
 228 230 265 238 298 264 c 9
 318 284 346 290 351 316 c 16
 352 320 352 323 352 326 c 0
 352 339 345 347 337 362 c 1
 337 361 337 359 337 357 c 0
 337 330 287 278 237 278 c 0
 199 278 174 306 174 341 c 0
 174 347 175 353 176 359 c 8
EndSplineSet
EndChar
StartChar: uni0E03
Encoding: 193 3587 32767
OldEncoding: 3587
Width: 600
Flags: W
HStem: 0 60<125 186 246 411> 204 49<145 158> 310 66<308 308.34>
VStem: 83 40<283 293> 204 45<293 311>
Fore
173 333 m 0
 151 333 129 315 124 293 c 0
 123 290 123 288 123 285 c 0
 123 267 137 253 156 253 c 0
 178 253 199 271 204 293 c 0
 205 296 205 299 205 302 c 0
 205 320 192 333 173 333 c 0
83 285 m 8
 83 333 110 380 152 402 c 0
 177 415 210 446 245 446 c 0
 248 446 252 446 255 445 c 8
 291 438 308 376 308 376 c 1
 308 376 328 437 360 445 c 16
 362 446 365 446 367 446 c 0
 385 446 397 423 401 417 c 0
 413 401 417 387 417 371 c 0
 417 357 413 342 409 324 c 0
 389 230 281 225 264 144 c 2
 246 60 l 25
 411 60 l 25
 493 445 l 25
 553 445 l 25
 459 0 l 17
 114 0 l 9
 126 60 l 25
 186 60 l 25
 208 164 l 18
 222 230 259 238 293 264 c 1
 317 284 355 288 355 316 c 0
 355 316 l 0
 355 326 358 368 358 368 c 1
 310 310 l 1
 275 310 l 1
 266 326 261 367 241 378 c 1
 229 373 210 366 210 366 c 1
 236 356 249 337 249 307 c 0
 249 297 247 285 244 272 c 8
 235 230 175 204 146 204 c 0
 102 204 83 242 83 285 c 0
 83 285 l 8
EndSplineSet
EndChar
StartChar: uni0E04
Encoding: 194 3588 32767
OldEncoding: 3588
Width: 600
Flags: W
HStem: 0 21G<8 68 397 457> 150 35<268 281> 265 35<292 303> 385 60<311 336>
VStem: 325 50<227 243>
Fore
294 265 m 0
 272 265 249 247 245 225 c 0
 244 222 244 220 244 217 c 0
 244 199 258 185 277 185 c 0
 299 185 320 203 325 225 c 0
 325 234 l 0
 325 252 313 265 294 265 c 0
334 445 m 16
 427 445 519 395 519 307 c 0
 519 298 518 288 516 278 c 10
 457 0 l 25
 397 0 l 25
 456 278 l 18
 457 283 457 288 457 293 c 0
 457 348 389 385 321 385 c 8
 242 385 141 344 127 278 c 10
 90 107 l 17
 189 221 l 2
 223 261 253 300 301 300 c 16
 342 300 376 277 376 241 c 0
 376 236 376 232 375 227 c 8
 365 181 315 150 270 150 c 16
 241 150 223 163 217 176 c 9
 68 0 l 25
 8 0 l 25
 67 278 l 18
 88 376 222 445 334 445 c 16
EndSplineSet
EndChar
StartChar: uni0E05
Encoding: 195 3589 32767
OldEncoding: 3589
Width: 600
Flags: W
HStem: 0 21G<10 70 399 459> 150 35<271 287> 265 35<295 306>
VStem: 464 62<311 334>
Fore
297 265 m 0
 275 265 253 247 248 225 c 0
 248 222 248 219 248 217 c 0
 248 199 261 185 280 185 c 0
 302 185 324 203 328 225 c 0
 329 228 329 231 329 233 c 0
 329 251 316 265 297 265 c 0
304 300 m 16
 350 300 379 279 379 243 c 0
 379 238 378 233 377 227 c 8
 367 181 318 150 272 150 c 16
 244 150 224 163 218 176 c 9
 70 0 l 25
 10 0 l 25
 73 300 l 18
 100 424 248 446 248 446 c 1
 322 398 l 1
 413 446 l 1
 413 446 526 434 526 334 c 0
 526 324 525 312 522 300 c 10
 459 0 l 25
 399 0 l 25
 462 300 l 18
 463 304 464 308 464 312 c 0
 464 360 398 372 398 372 c 1
 340 338 l 1
 285 338 l 1
 233 372 l 1
 233 372 146 358 133 300 c 10
 92 107 l 17
 189 221 l 2
 222 261 253 300 304 300 c 16
EndSplineSet
EndChar
StartChar: uni0E06
Encoding: 196 3590 32767
OldEncoding: 3590
Width: 600
Flags: W
HStem: -4 46<150 164> 0 21G<387 449> 132 52<152 162> 205 41<125 137>
VStem: 62 39<271 287> 78 43<72 98> 329 68<329 368>
Fore
151 326 m 0
 129 326 106 308 102 286 c 0
 101 283 101 281 101 278 c 0
 101 260 115 246 134 246 c 0
 156 246 177 264 182 286 c 0
 182 289 183 292 183 295 c 0
 183 313 170 326 151 326 c 0
272 267 m 24
 294 291 329 299 329 328 c 16
 329 329 l 0
 329 341 327 369 327 369 c 1
 282 307 l 1
 251 307 l 1
 251 307 238 368 220 379 c 1
 207 374 189 367 189 367 c 1
 215 357 227 338 227 308 c 0
 227 298 226 286 223 273 c 8
 214 231 155 205 125 205 c 0
 81 205 62 243 62 286 c 0
 62 286 l 8
 62 334 92 375 131 403 c 0
 154 420 194 446 234 446 c 24
 265 446 288 398 288 398 c 1
 288 398 314 442 339 446 c 16
 342 446 l 0
 362 446 375 424 380 417 c 0
 392 400 397 385 397 368 c 0
 397 355 394 341 388 325 c 8
 370 273 311 230 292 212 c 0
 278 197 268 169 253 142 c 17
 402 60 l 9
 484 445 l 25
 544 445 l 25
 449 0 l 17
 387 0 l 1
 238 82 l 1
 238 82 230 39 210 22 c 16
 191 6 172 -4 153 -4 c 0
 146 -4 140 -3 133 0 c 0
 96 14 78 45 78 84 c 0
 78 94 79 105 82 116 c 0
 87 139 112 168 143 180 c 16
 150 183 157 184 163 184 c 0
 179 184 193 177 200 170 c 9
 208 186 209 195 220 210 c 24
 237 235 251 245 272 267 c 24
193 96 m 0
 188 114 173 132 155 132 c 0
 149 132 144 130 138 126 c 0
 122 115 121 99 121 84 c 0
 121 81 121 77 121 74 c 0
 121 62 138 42 159 42 c 0
 163 42 166 42 170 44 c 0
 187 51 195 68 195 84 c 0
 195 88 194 92 193 96 c 0
EndSplineSet
EndChar
StartChar: uni0E07
Encoding: 197 3591 32767
OldEncoding: 3591
Width: 600
Flags: W
HStem: 0 21G<370 467> 278 46<428 439> 404 41<453 471>
VStem: 368 35<343 358>
Fore
454 404 m 0
 432 404 409 386 404 364 c 0
 404 361 403 359 403 356 c 0
 403 338 417 324 437 324 c 0
 459 324 479 342 484 364 c 0
 485 367 485 370 485 373 c 0
 485 391 473 404 454 404 c 0
471 445 m 16
 510 445 550 429 550 397 c 0
 550 394 550 391 549 388 c 10
 467 0 l 25
 370 0 l 25
 142 293 l 25
 199 338 l 25
 418 54 l 25
 469 294 l 17
 457 284 444 278 429 278 c 0
 424 278 419 279 414 280 c 0
 383 289 368 313 368 344 c 0
 368 351 369 358 370 365 c 8
 380 410 426 445 471 445 c 16
EndSplineSet
EndChar
StartChar: uni0E08
Encoding: 198 3592 32767
OldEncoding: 3592
Width: 600
Flags: W
HStem: 0 21G<406 466> 290 42<310 339> 385 60<341 365>
VStem: 233 27<233 245>
Fore
310 290 m 0
 288 290 266 272 261 250 c 0
 260 247 260 245 260 242 c 0
 260 224 274 210 293 210 c 0
 315 210 336 228 341 250 c 0
 341 253 342 256 342 259 c 0
 342 277 329 290 310 290 c 0
363 445 m 0
 472 445 533 392 533 328 c 0
 533 321 532 313 531 306 c 10
 466 0 l 25
 406 0 l 25
 358 198 l 17
 341 179 326 168 304 168 c 16
 264 168 233 195 233 234 c 0
 233 239 234 244 235 250 c 8
 245 297 306 332 339 332 c 8
 362 332 375 324 388 309 c 24
 401 296 399 282 406 264 c 25
 436 142 l 25
 471 305 l 18
 471 309 472 312 472 315 c 0
 472 360 408 385 351 385 c 8
 291 385 260 366 197 318 c 9
 163 360 l 17
 233 408 285 445 363 445 c 0
EndSplineSet
EndChar
StartChar: uni0E09
Encoding: 199 3593 32767
OldEncoding: 3593
Width: 600
Flags: W
HStem: 0 34<397 421> 105 54<446 461> 146 35<143 155> 385 60<279 313>
VStem: 91 27<204 220> 408 61<308 327>
Fore
437 104 m 0
 415 98 400 92 396 70 c 0
 395 66 394 62 394 59 c 0
 394 43 403 34 421 34 c 0
 443 34 464 52 468 74 c 0
 469 77 469 79 469 82 c 0
 469 96 460 105 446 105 c 0
 443 105 440 105 437 104 c 0
168 261 m 0
 146 261 123 243 119 221 c 0
 118 218 118 216 118 213 c 0
 118 195 132 181 151 181 c 0
 173 181 194 199 199 221 c 0
 199 224 200 227 200 230 c 0
 200 248 187 261 168 261 c 0
297 445 m 16
 402 445 469 398 469 325 c 0
 469 316 468 306 466 296 c 10
 436 155 l 17
 443 157 452 159 461 159 c 0
 471 159 481 157 489 150 c 0
 502 138 508 124 508 108 c 0
 508 98 505 87 501 76 c 0
 479 18 442 0 397 0 c 24
 366 0 355 60 355 60 c 1
 212 0 l 9
 154 0 l 25
 186 152 l 17
 170 152 158 146 145 146 c 0
 140 146 135 147 130 150 c 0
 106 163 91 179 91 205 c 0
 91 210 91 215 92 220 c 8
 102 265 141 299 187 306 c 16
 193 307 198 307 203 307 c 0
 237 307 258 288 269 252 c 1
 253 174 245 140 230 68 c 1
 371 131 l 9
 406 296 l 18
 407 303 408 309 408 315 c 0
 408 371 345 385 287 385 c 8
 222 385 164 355 117 323 c 9
 88 373 l 17
 145 412 216 445 297 445 c 16
EndSplineSet
EndChar
StartChar: uni0E0A
Encoding: 200 3594 32767
OldEncoding: 3594
Width: 600
Flags: W
HStem: 0 60<64 125 185 350> 278 41<171 185>
VStem: 107 39<342 353> 227 43<359 361> 285 67<326 357>
Fore
197 399 m 0
 175 399 152 381 147 359 c 0
 147 356 146 354 146 351 c 0
 146 333 160 319 180 319 c 0
 202 319 222 337 227 359 c 0
 228 362 228 365 228 368 c 0
 228 386 216 399 197 399 c 0
109 359 m 8
 119 404 160 436 204 446 c 0
 219 450 234 451 247 451 c 0
 277 451 301 442 324 420 c 0
 343 402 352 382 352 357 c 0
 352 347 350 336 348 324 c 8
 330 242 220 225 202 144 c 1
 193 120 185 60 185 60 c 25
 350 60 l 17
 395 274 l 2
 396 276 396 278 396 280 c 0
 396 303 367 314 348 324 c 1
 410 379 423 440 443 500 c 9
 503 500 l 17
 487 424 453 358 419 328 c 1
 448 320 457 306 457 289 c 0
 457 284 456 279 455 274 c 1
 397 0 l 1
 52 0 l 9
 65 60 l 25
 125 60 l 25
 147 164 l 18
 161 230 197 238 231 264 c 9
 252 284 279 290 284 316 c 16
 285 320 285 323 285 326 c 0
 285 339 278 347 270 362 c 1
 270 360 270 359 270 357 c 0
 270 329 222 278 172 278 c 0
 134 278 107 306 107 342 c 0
 107 348 108 353 109 359 c 8
EndSplineSet
EndChar
StartChar: uni0E0B
Encoding: 201 3595 32767
OldEncoding: 3595
Width: 600
Flags: W
HStem: 0 60<120 181 241 406> 204 38<139 152>
VStem: 447 60<253 266>
Fore
167 322 m 0
 145 322 122 304 118 282 c 0
 117 279 117 277 117 274 c 0
 117 256 131 242 150 242 c 0
 172 242 193 260 198 282 c 0
 198 285 199 288 199 291 c 0
 199 309 186 322 167 322 c 0
77 285 m 8
 77 333 105 380 146 402 c 0
 170 415 204 446 238 446 c 0
 242 446 246 446 249 445 c 8
 286 437 299 370 299 370 c 1
 299 370 321 436 354 445 c 16
 357 446 359 446 361 446 c 0
 379 446 391 423 395 417 c 0
 407 401 411 387 411 371 c 0
 411 357 408 342 404 324 c 0
 384 230 276 225 258 144 c 2
 241 60 l 25
 406 60 l 17
 447 253 l 2
 447 256 448 259 448 262 c 0
 448 286 426 305 404 324 c 1
 451 356 489 452 499 500 c 9
 559 500 l 17
 548 447 515 347 464 324 c 1
 489 309 508 289 508 264 c 0
 508 260 507 257 507 253 c 2
 453 0 l 1
 108 0 l 9
 121 60 l 25
 181 60 l 25
 203 164 l 18
 217 230 253 238 287 264 c 9
 307 284 340 290 340 316 c 16
 340 326 343 368 343 368 c 1
 298 307 l 1
 272 307 l 1
 272 307 254 367 235 378 c 1
 223 373 205 366 205 366 c 1
 231 356 243 337 243 307 c 0
 243 297 242 285 239 272 c 8
 230 230 169 204 140 204 c 0
 96 204 77 242 77 285 c 0
 77 285 l 8
EndSplineSet
EndChar
StartChar: uni0E0C
Encoding: 202 3596 32767
OldEncoding: 3596
Width: 600
Flags: W
HStem: 0 53<100 122> 98 40<264 278> 113 40<135 154> 385 60<237 276>
VStem: 159 33<89 106> 205 27<53 67> 324 61<342 354>
Fore
271 98 m 0
 254 98 237 84 233 67 c 0
 233 65 232 63 232 61 c 0
 232 47 243 36 257 36 c 0
 274 36 291 50 295 67 c 0
 295 69 296 71 296 73 c 0
 296 87 285 98 271 98 c 0
135 113 m 0
 118 113 102 100 98 83 c 0
 98 81 98 78 98 76 c 0
 98 63 107 53 122 53 c 0
 139 53 155 66 158 83 c 0
 159 85 159 88 159 90 c 0
 159 103 149 113 135 113 c 0
260 445 m 0
 338 445 385 410 385 352 c 0
 385 343 384 334 382 325 c 2
 339 124 l 1
 409 60 l 1
 490 444 l 1
 550 444 l 1
 456 0 l 1
 392 0 l 1
 325 60 l 1
 325 60 320 19 299 8 c 16
 288 2 277 0 266 0 c 0
 253 0 241 3 230 9 c 0
 212 19 205 35 205 55 c 0
 205 64 206 73 208 83 c 0
 213 105 219 114 238 126 c 0
 253 137 268 138 276 138 c 0
 278 138 280 138 281 138 c 128
 282 138 282 138 282 138 c 1
 322 325 l 2
 323 332 324 338 324 344 c 0
 324 380 292 385 248 385 c 8
 201 385 167 365 130 330 c 1
 186 330 l 1
 175 280 l 1
 151 266 139 250 133 224 c 2
 117 145 l 1
 117 145 137 153 154 153 c 0
 160 153 165 152 169 150 c 0
 185 140 192 125 192 106 c 0
 192 99 191 91 189 83 c 0
 181 44 144 0 100 0 c 0
 66 0 37 17 37 46 c 0
 37 49 37 53 38 56 c 9
 73 224 l 18
 79 251 99 273 115 280 c 1
 55 280 l 1
 66 330 l 1
 123 411 183 445 260 445 c 0
EndSplineSet
EndChar
StartChar: uni0E0D
Encoding: 203 3597 32767
OldEncoding: 3597
Width: 600
Flags: W
HStem: 0 53<128 140> 0 60<343 426> 385 60<245 268>
VStem: 242 27<-106 -104> 323 24<-94 -82> 340 61<330 340>
Fore
152 113 m 0
 135 113 120 100 116 83 c 0
 116 81 115 78 115 76 c 0
 115 63 125 53 140 53 c 0
 157 53 172 66 176 83 c 0
 176 85 177 88 177 90 c 0
 177 103 167 113 152 113 c 0
313 -77 m 0
 310 -76 307 -76 304 -76 c 0
 289 -76 272 -85 269 -100 c 0
 269 -101 269 -103 269 -104 c 0
 269 -116 282 -124 295 -124 c 0
 298 -124 300 -123 302 -123 c 8
 312 -121 319 -113 321 -104 c 16
 322 -100 323 -96 323 -93 c 0
 323 -85 320 -79 313 -77 c 0
318 -55 m 8
 333 -55 342 -61 346 -75 c 16
 347 -77 347 -79 347 -82 c 0
 347 -94 339 -107 333 -116 c 9
 403 -56 l 25
 435 -93 l 17
 399 -125 369 -166 322 -166 c 16
 282 -166 241 -151 241 -115 c 0
 241 -112 241 -108 242 -104 c 8
 249 -72 287 -55 318 -55 c 8
266 445 m 16
 338 445 401 394 401 340 c 0
 401 335 400 330 399 325 c 2
 343 60 l 1
 426 60 l 1
 508 444 l 1
 568 444 l 1
 473 0 l 1
 270 0 l 0
 270 0 l 0
 270 5 339 325 339 325 c 2
 340 327 340 330 340 332 c 0
 340 362 295 385 253 385 c 8
 209 385 181 365 143 330 c 1
 203 330 l 1
 193 280 l 1
 169 266 160 268 151 224 c 2
 134 145 l 1
 134 145 145 150 161 150 c 0
 170 150 181 149 193 144 c 0
 207 138 212 127 212 114 c 0
 212 105 209 94 207 83 c 0
 197 36 169 0 129 0 c 0
 93 0 54 19 54 48 c 0
 54 51 55 53 55 56 c 9
 91 224 l 18
 97 251 116 273 133 280 c 1
 73 280 l 1
 83 330 l 1
 141 411 190 445 266 445 c 16
EndSplineSet
EndChar
StartChar: uni0E0E
Encoding: 204 3598 32767
OldEncoding: 3598
Width: 600
Flags: W
HStem: -166 37<188 213> 0 50<109 125> 110 49<127 138> 385 60<374 394>
VStem: 57 36<61 80> 125 43<-110 -98> 483 62<324 345>
Fore
130 110 m 4
 113 110 97 97 93 80 c 4
 93 78 93 75 93 73 c 4
 93 60 102 50 117 50 c 4
 134 50 150 63 153 80 c 4
 154 82 154 85 154 87 c 4
 154 100 145 110 130 110 c 4
259 -94 m 29
 251 -85 249 -79 238 -71 c 4
 230 -64 220 -58 209 -58 c 4
 203 -58 196 -60 190 -64 c 4
 176 -72 167 -87 167 -101 c 4
 167 -104 167 -107 168 -110 c 4
 172 -124 184 -129 199 -129 c 4
 203 -129 208 -129 212 -128 c 12
 233 -124 241 -107 259 -94 c 29
389 445 m 4
 470 445 545 407 545 343 c 4
 545 337 544 331 543 325 c 14
 438 -167 l 29
 378 -167 l 21
 299 -113 l 5
 299 -113 270 -144 262 -150 c 4
 251 -158 225 -166 201 -166 c 4
 188 -166 176 -164 166 -159 c 4
 142 -148 125 -132 125 -107 c 4
 125 -102 126 -97 127 -92 c 12
 136 -56 176 -29 204 -24 c 4
 218 -22 229 -21 239 -21 c 4
 266 -21 281 -28 290 -36 c 5
 350 40 l 5
 386 20 l 5
 329 -60 l 5
 391 -107 l 5
 483 325 l 6
 483 329 484 333 484 337 c 4
 484 380 423 385 376 385 c 12
 321 385 271 365 234 330 c 5
 294 330 l 5
 283 280 l 5
 259 266 250 268 241 224 c 14
 206 60 l 21
 201 35 156 -0 119 -0 c 4
 113 0 l 4
 78 0 57 29 57 62 c 4
 57 68 57 74 58 80 c 4
 65 111 79 136 110 152 c 20
 119 157 130 159 139 159 c 4
 152 159 162 156 165 150 c 5
 181 224 l 6
 187 251 206 273 223 280 c 5
 163 280 l 5
 174 330 l 5
 231 411 312 445 389 445 c 4
EndSplineSet
EndChar
StartChar: uni0E0F
Encoding: 205 3599 32767
OldEncoding: 3599
Width: 600
Flags: W
HStem: -166 37<116 139> 0 50<116 133> 385 60<381 400>
VStem: 47 44<-108 -98> 63 37<61 73> 490 62<324 345>
Fore
137 110 m 0
 120 110 104 97 100 80 c 0
 100 78 100 75 100 73 c 0
 100 60 109 50 124 50 c 0
 141 50 157 63 160 80 c 0
 161 82 161 85 161 87 c 0
 161 100 152 110 137 110 c 0
189 -96 m 25
 177 -83 175 -69 157 -62 c 16
 149 -59 141 -56 133 -56 c 0
 126 -56 119 -58 111 -64 c 0
 98 -73 90 -86 90 -98 c 0
 90 -102 90 -105 91 -108 c 0
 97 -123 111 -129 128 -129 c 0
 136 -129 144 -128 152 -126 c 8
 169 -122 174 -108 189 -96 c 25
396 445 m 0
 477 445 552 407 552 343 c 0
 552 337 551 331 550 325 c 10
 445 -167 l 25
 385 -167 l 17
 321 -102 l 1
 274 -150 l 1
 221 -113 l 1
 221 -113 192 -144 184 -150 c 0
 173 -158 147 -166 123 -166 c 0
 110 -166 98 -164 88 -159 c 0
 64 -148 47 -131 47 -106 c 0
 47 -102 48 -97 49 -92 c 8
 57 -56 98 -29 126 -24 c 0
 140 -22 151 -21 161 -21 c 0
 188 -21 203 -28 212 -36 c 1
 272 40 l 1
 308 20 l 1
 251 -60 l 1
 286 -90 l 1
 334 -42 l 1
 398 -107 l 1
 490 325 l 2
 490 329 491 333 491 337 c 0
 491 380 430 385 383 385 c 8
 328 385 278 365 241 330 c 1
 301 330 l 1
 290 280 l 1
 266 266 257 268 248 224 c 10
 213 60 l 17
 208 34 159 0 120 0 c 16
 85 0 63 28 63 62 c 0
 63 68 64 74 65 80 c 0
 72 111 86 136 117 152 c 16
 126 157 137 159 147 159 c 0
 159 159 169 156 172 150 c 1
 188 224 l 2
 194 251 213 273 230 280 c 1
 171 280 l 1
 182 330 l 1
 239 411 319 445 396 445 c 0
EndSplineSet
EndChar
StartChar: uni0E10
Encoding: 206 3600 32767
OldEncoding: 3600
Width: 600
Flags: W
HStem: -193 87<406 414> -189 35<74.3342 90> -44 28<421 431> 0 21G<423 483> 99 38<304 316> 217 46<323 342> 390 55<383 414>
VStem: 9 37<-129 -120> 242 32<162 178> 353 32<-88 -74> 447 32<-75 -63> 469 59<216 242>
Fore
323 217 m 0
 301 217 280 199 275 177 c 0
 274 174 274 171 274 169 c 0
 274 151 287 137 306 137 c 0
 328 137 350 155 355 177 c 0
 355 180 356 183 356 185 c 0
 356 203 343 217 323 217 c 0
423 -44 m 0
 406 -44 389 -58 385 -75 c 0
 385 -81 l 0
 385 -95 395 -106 410 -106 c 0
 427 -106 444 -92 447 -75 c 0
 448 -73 448 -71 448 -69 c 0
 448 -55 438 -44 423 -44 c 0
431 -16 m 0
 460 -16 479 -38 479 -66 c 0
 479 -71 478 -75 477 -80 c 0
 474 -95 451 -193 451 -193 c 1
 451 -193 404 -193 386 -193 c 1
 386 -193 354 -168 331 -154 c 24
 313 -142 283 -125 283 -125 c 1
 235 -173 l 1
 183 -136 l 1
 183 -136 154 -167 145 -173 c 0
 134 -181 109 -189 85 -189 c 0
 72 -189 60 -187 50 -182 c 0
 26 -171 9 -154 9 -129 c 0
 9 -125 10 -120 11 -115 c 8
 18 -79 60 -52 88 -47 c 0
 102 -45 113 -44 123 -44 c 0
 150 -44 164 -51 174 -59 c 1
 234 17 l 1
 270 -3 l 1
 213 -83 l 1
 248 -113 l 1
 295 -65 l 1
 392 -136 l 17
 388 -130 353 -104 353 -81 c 0
 353 -80 l 8
 353 -45 401 -16 431 -16 c 0
148 -120 m 25
 134 -107 132 -93 115 -86 c 16
 106 -82 96 -78 87 -78 c 0
 80 -78 73 -80 65 -86 c 0
 53 -95 46 -108 46 -120 c 0
 46 -125 47 -130 49 -134 c 0
 56 -148 69 -154 85 -154 c 0
 93 -154 102 -152 111 -150 c 8
 128 -146 133 -132 148 -120 c 25
408 445 m 0
 490 445 569 411 569 411 c 1
 543 356 l 1
 543 356 457 390 396 390 c 24
 369 390 327 384 327 384 c 1
 327 384 410 378 453 355 c 1
 482 339 528 296 528 229 c 0
 528 218 527 207 525 195 c 10
 483 0 l 25
 423 0 l 25
 361 129 l 17
 344 110 329 99 307 99 c 16
 268 99 242 127 242 164 c 0
 242 169 242 175 244 181 c 8
 253 226 309 263 342 263 c 8
 364 263 374 254 388 240 c 24
 401 226 403 217 409 195 c 9
 443 94 l 25
 464 194 l 18
 467 208 469 220 469 230 c 0
 469 279 439 291 411 307 c 0
 383 324 365 330 315 330 c 0
 285 330 255 329 215 324 c 9
 226 374 l 17
 272 406 305 445 408 445 c 0
EndSplineSet
EndChar
StartChar: uni0E11
Encoding: 207 3601 32767
OldEncoding: 3601
Width: 600
Flags: W
HStem: 0 21G<118 208 392 453> 204 40<89 100>
VStem: 27 38<270 284>
Fore
115 324 m 0
 93 324 71 306 66 284 c 0
 65 281 65 279 65 276 c 0
 65 258 79 244 98 244 c 0
 120 244 141 262 146 284 c 0
 147 287 147 290 147 293 c 0
 147 311 134 324 115 324 c 0
208 0 m 9
 118 0 l 1
 152 164 l 18
 166 230 203 238 237 264 c 9
 257 284 290 290 290 316 c 16
 290 326 293 368 293 368 c 1
 249 308 l 1
 220 308 l 1
 220 308 204 366 185 378 c 1
 173 373 154 366 154 366 c 1
 180 356 193 337 193 307 c 0
 193 297 191 285 188 272 c 8
 179 230 119 204 90 204 c 0
 46 204 27 242 27 285 c 0
 27 285 l 8
 27 333 54 380 96 402 c 0
 121 415 154 446 189 446 c 0
 192 446 196 446 199 445 c 8
 231 439 249 386 249 386 c 1
 249 386 275 439 304 445 c 16
 306 445 307 445 309 445 c 0
 328 445 341 423 345 417 c 0
 357 401 361 387 361 371 c 0
 361 357 357 342 353 324 c 0
 332 224 228 238 208 144 c 2
 192 68 l 17
 390 320 l 1
 390 320 420 363 467 417 c 0
 476 428 493 433 507 433 c 0
 525 433 541 426 541 411 c 0
 541 410 540 409 540 407 c 0
 533 372 516 296 516 296 c 1
 453 0 l 9
 392 0 l 1
 432 188 l 1
 461 327 l 1
 208 0 l 9
EndSplineSet
EndChar
StartChar: uni0E12
Encoding: 208 3602 32767
OldEncoding: 3602
Width: 600
Flags: W
HStem: 0 42<258 268> 114 37<274 286>
VStem: 135 40<208 219> 208 30<55 72> 350 62<313 336>
Fore
224 265 m 0
 202 265 180 247 175 225 c 0
 175 222 175 219 175 217 c 0
 175 199 188 185 207 185 c 0
 229 185 251 203 255 225 c 0
 256 228 256 231 256 233 c 0
 256 251 243 265 224 265 c 0
313 87 m 1
 302 97 292 114 275 114 c 0
 273 114 270 114 267 113 c 0
 249 107 238 90 238 73 c 0
 238 72 l 0
 238 55 250 42 266 42 c 0
 272 42 l 8
 293 45 300 72 313 87 c 1
262 398 m 1
 312 443 l 1
 312 443 412 434 412 336 c 0
 412 325 411 313 408 300 c 2
 372 130 l 1
 437 66 l 1
 517 445 l 1
 577 445 l 1
 483 0 l 1
 423 0 l 1
 352 66 l 1
 328 40 298 0 257 0 c 16
 226 0 208 25 208 56 c 0
 208 62 209 68 210 74 c 8
 218 108 239 133 272 148 c 16
 276 150 281 151 286 151 c 0
 300 151 315 144 315 144 c 1
 348 300 l 2
 349 305 350 310 350 314 c 0
 350 360 297 372 297 372 c 1
 267 339 l 1
 235 339 l 1
 213 372 l 1
 213 372 143 358 130 300 c 10
 85 87 l 17
 167 154 l 1
 167 154 135 170 135 209 c 0
 135 214 135 220 137 226 c 0
 148 278 190 307 234 307 c 16
 269 307 291 282 291 247 c 0
 291 240 290 233 289 226 c 0
 273 154 214 119 203 110 c 9
 67 0 l 25
 7 0 l 25
 70 300 l 18
 97 424 228 446 228 446 c 1
 262 398 l 1
EndSplineSet
EndChar
StartChar: uni0E13
Encoding: 209 3603 32767
OldEncoding: 3603
Width: 600
Flags: W
HStem: 0 53<93 104> 385 60<210 232>
VStem: 141 34<90 110> 304 60<325 339> 392 55<44 55> 503 32<82 102>
Fore
117 113 m 0
 100 113 84 100 80 83 c 0
 80 81 80 78 80 76 c 0
 80 63 89 53 104 53 c 0
 121 53 137 66 140 83 c 0
 141 85 141 88 141 90 c 0
 141 103 131 113 117 113 c 0
461 96 m 1
 458 80 447 60 447 46 c 0
 447 40 450 34 458 32 c 0
 459 31 461 31 463 31 c 0
 481 31 498 54 502 74 c 0
 503 77 503 80 503 83 c 0
 503 94 498 103 487 106 c 0
 486 106 485 107 483 107 c 0
 476 107 470 99 461 96 c 1
230 445 m 0
 312 445 365 387 365 338 c 0
 365 334 365 329 364 325 c 2
 307 60 l 1
 407 117 l 1
 476 444 l 1
 536 444 l 1
 473 146 l 1
 473 146 485 149 497 149 c 0
 508 149 519 147 523 140 c 0
 532 128 535 115 535 102 c 0
 535 79 525 56 511 37 c 8
 489 8 459 0 428 0 c 0
 394 0 392 42 392 55 c 0
 392 57 392 58 392 58 c 1
 294 0 l 1
 235 0 l 17
 235 0 l 0
 235 5 304 325 304 325 c 2
 304 327 305 330 305 332 c 0
 305 362 260 385 218 385 c 8
 174 385 145 365 108 330 c 1
 166 330 l 1
 155 280 l 1
 131 266 125 268 115 224 c 2
 99 145 l 1
 99 145 108 155 127 155 c 0
 133 155 141 154 151 150 c 0
 168 143 175 129 175 110 c 0
 175 101 173 93 171 83 c 0
 162 40 134 0 94 0 c 0
 58 0 19 19 19 48 c 0
 19 51 19 53 20 56 c 9
 55 224 l 18
 61 251 81 273 97 280 c 1
 37 280 l 1
 48 330 l 1
 105 411 153 445 230 445 c 0
EndSplineSet
EndChar
StartChar: uni0E14
Encoding: 210 3604 32767
OldEncoding: 3604
Width: 600
Flags: W
HStem: 0 21G<22 82 405 465> 266 46<300 311> 385 60<310 342>
VStem: 197 56<205 220> 335 47<232 243> 469 62<306 325>
Fore
302 266 m 0
 280 266 258 248 254 226 c 0
 253 223 253 220 253 218 c 0
 253 200 266 186 285 186 c 0
 307 186 329 204 334 226 c 0
 334 229 335 232 335 234 c 0
 335 252 321 266 302 266 c 0
328 385 m 0
 220 385 156 348 145 300 c 10
 97 70 l 17
 226 143 l 1
 226 143 197 164 197 206 c 0
 197 212 197 219 199 226 c 0
 210 278 262 312 312 312 c 16
 353 312 382 281 382 243 c 0
 382 238 381 232 380 226 c 0
 362 143 283 110 283 110 c 9
 82 0 l 25
 22 0 l 25
 85 300 l 18
 107 399 226 445 340 445 c 0
 461 445 531 397 531 325 c 0
 531 317 530 309 528 300 c 10
 465 0 l 25
 405 0 l 25
 468 300 l 18
 469 302 469 305 469 307 c 0
 469 338 435 385 328 385 c 0
EndSplineSet
EndChar
StartChar: uni0E15
Encoding: 211 3605 32767
OldEncoding: 3605
Width: 600
Flags: W
HStem: 0 21G<24 84 407 467>
VStem: 199 57<206 220> 337 46<226 243> 472 62<311 333>
Fore
305 266 m 0
 283 266 261 248 257 226 c 0
 256 223 256 220 256 218 c 0
 256 200 269 186 288 186 c 0
 310 186 332 204 337 226 c 0
 337 229 338 232 338 234 c 0
 338 252 324 266 305 266 c 0
333 398 m 1
 420 441 l 1
 420 441 534 434 534 333 c 0
 534 323 533 312 530 300 c 10
 467 0 l 25
 407 0 l 25
 470 300 l 18
 471 304 472 308 472 312 c 0
 472 360 406 372 406 372 c 1
 347 338 l 1
 292 338 l 1
 244 372 l 1
 244 372 160 358 147 300 c 10
 98 70 l 17
 227 143 l 1
 227 143 199 167 199 207 c 0
 199 213 199 219 201 226 c 0
 212 278 265 312 315 312 c 16
 356 312 384 281 384 243 c 0
 384 238 384 232 383 226 c 0
 367 154 297 119 286 110 c 9
 84 0 l 25
 24 0 l 25
 87 300 l 18
 114 424 259 446 259 446 c 1
 333 398 l 1
EndSplineSet
EndChar
StartChar: uni0E16
Encoding: 212 3606 32767
OldEncoding: 3606
Width: 600
Flags: W
HStem: 0 43<175 191> 123 40<197.857 212> 387 60<349 373>
VStem: 239 42<90 109> 482 60<327 339>
Fore
207 123 m 0
 185 123 163 105 158 83 c 0
 158 80 157 77 157 75 c 0
 157 57 170 43 190 43 c 0
 212 43 233 61 238 83 c 0
 239 86 239 89 239 91 c 0
 239 109 226 123 207 123 c 0
371 447 m 0
 467 447 543 386 543 337 c 0
 543 333 543 330 542 327 c 2
 542 327 472 0 471 0 c 1
 412 0 l 17
 412 0 l 0
 412 5 482 327 482 327 c 2
 482 329 483 330 483 332 c 0
 483 363 416 387 358 387 c 8
 289 387 225 365 183 330 c 1
 252 330 l 1
 241 280 l 1
 211 266 198 258 189 214 c 2
 177 159 l 1
 177 159 190 163 209 163 c 0
 222 163 238 161 255 156 c 0
 274 149 281 131 281 109 c 0
 281 101 280 93 278 84 c 0
 267 32 223 0 176 0 c 0
 137 0 94 21 94 51 c 0
 94 53 94 56 95 58 c 9
 128 214 l 18
 134 241 156 273 172 280 c 1
 112 280 l 1
 123 330 l 1
 185 411 285 447 371 447 c 0
EndSplineSet
EndChar
StartChar: uni0E17
Encoding: 213 3607 32767
OldEncoding: 3607
Width: 600
Flags: W
HStem: 0 21G<134 190 412 472> 278 42<148 163> 382 66<431 450>
VStem: 97 34<339 355> 485 62<351 367>
Fore
180 400 m 0
 158 400 137 382 132 360 c 0
 131 357 131 354 131 352 c 0
 131 334 144 320 163 320 c 0
 185 320 207 338 212 360 c 0
 212 363 213 366 213 368 c 0
 213 386 200 400 180 400 c 0
432 382 m 0
 400 382 379 352 368 334 c 1
 190 0 l 9
 134 0 l 25
 198 300 l 17
 179 293 164 278 148 278 c 0
 146 278 143 279 140 280 c 0
 111 289 97 311 97 340 c 0
 97 346 97 353 99 360 c 8
 109 407 152 442 201 448 c 16
 204 448 207 449 210 449 c 0
 246 449 276 425 276 396 c 0
 276 394 275 391 275 388 c 1
 239 218 l 25
 329 380 l 17
 357 418 413 448 446 448 c 0
 491 448 547 437 547 367 c 0
 547 356 545 344 542 330 c 2
 472 0 l 25
 412 0 l 17
 482 330 l 2
 484 338 485 345 485 351 c 0
 485 376 469 382 432 382 c 0
EndSplineSet
EndChar
StartChar: uni0E18
Encoding: 214 3608 32767
OldEncoding: 3608
Width: 600
Flags: W
HStem: 0 60<130 190 250 415> 387 58<347 387>
Fore
387 445 m 0
 273 445 204 420 139 335 c 9
 126 275 l 17
 148 275 195 279 248 279 c 0
 287 279 329 277 366 270 c 0
 420 260 448 252 448 220 c 0
 448 216 447 210 446 204 c 2
 415 60 l 25
 250 60 l 17
 284 220 l 1
 224 220 l 1
 190 60 l 1
 130 60 l 1
 118 0 l 9
 118 0 461 0 463 0 c 1
 506 204 l 2
 509 216 510 227 510 238 c 0
 510 296 468 320 405 332 c 0
 376 338 347 340 319 340 c 0
 273 340 232 335 199 335 c 1
 254 382 291 387 348 387 c 24
 419 387 522 356 522 356 c 1
 548 411 l 1
 548 411 469 445 387 445 c 0
EndSplineSet
EndChar
StartChar: uni0E19
Encoding: 215 3609 32767
OldEncoding: 3609
Width: 600
Flags: W
HStem: 0 54<424 446> 134 65<461 467> 290 28<149 177>
VStem: 82 35<341 352> 357 57<84 94>
Fore
463 134 m 0
 441 134 419 116 415 94 c 0
 414 91 414 88 414 86 c 0
 414 68 427 54 446 54 c 0
 468 54 490 72 495 94 c 0
 495 97 496 100 496 102 c 0
 496 120 482 134 463 134 c 0
166 398 m 0
 144 398 122 380 118 358 c 0
 117 355 117 352 117 350 c 0
 117 332 130 318 149 318 c 0
 171 318 193 336 198 358 c 0
 198 361 199 364 199 366 c 0
 199 384 185 398 166 398 c 0
178 444 m 16
 184 445 190 445 195 445 c 0
 228 445 249 426 261 390 c 1
 244 312 197 89 197 89 c 1
 374 182 l 9
 430 445 l 1
 490 445 l 9
 437 195 l 17
 444 197 455 199 465 199 c 0
 477 199 489 197 498 190 c 0
 520 175 533 156 533 130 c 0
 533 123 533 117 531 110 c 0
 519 52 478 0 424 0 c 16
 376 0 357 64 357 94 c 0
 357 98 357 101 358 103 c 1
 174 0 l 9
 116 0 l 25
 177 290 l 17
 162 290 149 284 136 284 c 0
 131 284 126 285 121 288 c 0
 97 301 82 317 82 343 c 0
 82 348 83 353 84 358 c 8
 93 403 133 437 178 444 c 16
EndSplineSet
EndChar
StartChar: uni0E1A
Encoding: 216 3610 32767
OldEncoding: 3610
Width: 600
Flags: W
HStem: 0 21G<162 455> 290 28<148 176>
VStem: 81 35<341 352>
Fore
165 398 m 0
 143 398 121 380 117 358 c 0
 116 355 116 352 116 350 c 0
 116 332 129 318 148 318 c 0
 170 318 192 336 197 358 c 0
 197 361 198 364 198 366 c 0
 198 384 184 398 165 398 c 0
177 444 m 8
 219 444 245 432 258 390 c 1
 241 312 203 132 187 60 c 1
 407 60 l 9
 489 445 l 1
 549 445 l 9
 455 0 l 17
 455 0 279 0 162 0 c 0
 104 0 60 1 60 0 c 1
 72 60 l 1
 127 60 l 9
 176 290 l 17
 161 290 148 284 135 284 c 0
 130 284 125 285 120 288 c 0
 97 301 81 317 81 343 c 0
 81 348 82 353 83 358 c 8
 92 403 137 444 177 444 c 8
EndSplineSet
EndChar
StartChar: uni0E1B
Encoding: 217 3611 32767
OldEncoding: 3611
Width: 600
Flags: W
HStem: 0 60<57 112 172 392> 284 34<121 130> 398 46<147 162> 595 20G<510 570>
VStem: 66 32<341 352>
Fore
147 398 m 0
 125 398 103 380 99 358 c 0
 98 355 98 352 98 350 c 0
 98 332 111 318 130 318 c 0
 152 318 174 336 179 358 c 0
 179 361 180 364 180 366 c 0
 180 384 166 398 147 398 c 0
162 444 m 8
 204 444 229 432 243 390 c 1
 226 312 188 132 172 60 c 1
 392 60 l 9
 510 615 l 1
 570 615 l 9
 440 0 l 17
 440 0 396 0 337 0 c 0
 220 0 45 0 45 0 c 1
 57 60 l 1
 112 60 l 9
 161 290 l 17
 146 290 133 284 120 284 c 0
 115 284 110 285 105 288 c 0
 82 300 66 317 66 343 c 0
 66 348 67 353 68 358 c 8
 77 403 122 444 162 444 c 8
EndSplineSet
EndChar
StartChar: uni0E1C
Encoding: 218 3612 32767
OldEncoding: 3612
Width: 600
Flags: W
HStem: 0 21G<70 164 366 465> 277 46<219 234> 403 43<243 253>
Fore
251 403 m 0
 229 403 207 385 203 363 c 0
 202 360 202 357 202 355 c 0
 202 337 215 323 234 323 c 0
 256 323 278 341 283 363 c 0
 283 366 284 369 284 371 c 0
 284 389 270 403 251 403 c 0
246 446 m 16
 285 446 309 419 309 382 c 0
 309 376 308 370 307 363 c 0
 298 324 279 302 245 284 c 16
 236 279 227 277 219 277 c 0
 209 277 199 280 190 282 c 9
 142 60 l 17
 281 220 l 9
 341 220 l 25
 417 60 l 1
 499 445 l 25
 559 445 l 25
 465 0 l 17
 366 0 l 1
 300 158 l 1
 164 0 l 1
 70 0 l 9
 152 386 l 17
 172 426 206 446 246 446 c 16
EndSplineSet
EndChar
StartChar: uni0E1D
Encoding: 219 3613 32767
OldEncoding: 3613
Width: 600
Flags: W
HStem: 0 21G<52 146 348 447> 277 46<201 220> 403 43<227 239> 590 20G<517 577>
Fore
237 403 m 0
 215 403 193 385 188 363 c 0
 188 360 187 357 187 355 c 0
 187 337 201 323 220 323 c 0
 242 323 264 341 268 363 c 0
 269 366 269 369 269 371 c 0
 269 389 256 403 237 403 c 0
229 446 m 16
 267 446 291 419 291 382 c 0
 291 376 291 370 289 363 c 0
 281 324 261 302 228 284 c 16
 218 279 210 277 201 277 c 0
 191 277 181 280 172 282 c 9
 125 60 l 17
 264 220 l 9
 324 220 l 25
 400 60 l 1
 517 610 l 25
 577 610 l 25
 447 0 l 17
 348 0 l 1
 283 158 l 1
 146 0 l 1
 52 0 l 9
 134 386 l 17
 155 426 189 446 229 446 c 16
EndSplineSet
EndChar
StartChar: uni0E1E
Encoding: 220 3614 32767
OldEncoding: 3614
Width: 600
Flags: W
HStem: 0 21G<68 162 335 463> 277 46<95 108> 403 43<119 141>
VStem: 43 27<338 355>
Fore
119 403 m 0
 97 403 75 385 71 363 c 0
 70 360 70 357 70 355 c 0
 70 337 83 323 102 323 c 0
 124 323 146 341 151 363 c 0
 151 366 152 369 152 371 c 0
 152 389 138 403 119 403 c 0
141 446 m 8
 181 446 211 426 211 386 c 9
 151 105 l 17
 327 445 l 9
 387 445 l 25
 425 105 l 1
 497 445 l 25
 557 445 l 25
 463 0 l 17
 463 0 434 0 335 0 c 1
 335 330 l 1
 162 0 l 1
 68 0 68 0 68 0 c 9
 128 282 l 17
 117 280 107 277 97 277 c 0
 89 277 81 279 74 284 c 0
 54 298 43 314 43 339 c 0
 43 346 44 354 46 363 c 0
 56 409 96 446 141 446 c 8
EndSplineSet
EndChar
StartChar: uni0E1F
Encoding: 221 3615 32767
OldEncoding: 3615
Width: 600
Flags: W
HStem: 0 21G<55 149 322 450> 277 46<83 96> 403 43<108 129> 590 20G<520 580>
VStem: 31 27<338 357>
Fore
108 403 m 0
 86 403 64 385 59 363 c 0
 59 360 58 357 58 355 c 0
 58 337 72 323 91 323 c 0
 113 323 135 341 139 363 c 0
 140 366 140 369 140 371 c 0
 140 389 127 403 108 403 c 0
129 446 m 8
 169 446 198 426 198 386 c 9
 138 105 l 17
 315 445 l 9
 375 445 l 25
 412 105 l 1
 520 610 l 25
 580 610 l 25
 450 0 l 17
 450 0 421 0 322 0 c 1
 322 330 l 1
 149 0 l 1
 55 0 55 0 55 0 c 9
 115 282 l 17
 105 280 94 277 85 277 c 128
 76 277 69 279 62 284 c 0
 41 298 31 314 31 339 c 0
 31 346 31 354 33 363 c 0
 43 409 84 446 129 446 c 8
EndSplineSet
EndChar
StartChar: uni0E20
Encoding: 222 3616 32767
OldEncoding: 3616
Width: 600
Flags: W
HStem: 0 38<47 63> 385 60<354 391>
VStem: -10 32<61 78> 492 62<324 344>
Fore
72 118 m 0
 50 118 28 100 23 78 c 0
 23 75 22 72 22 70 c 0
 22 52 36 38 55 38 c 0
 77 38 99 56 103 78 c 0
 104 81 104 84 104 86 c 0
 104 104 91 118 72 118 c 0
375 445 m 0
 471 445 554 406 554 342 c 0
 554 336 553 331 552 325 c 10
 483 0 l 25
 423 0 l 25
 492 325 l 18
 493 328 493 332 493 335 c 0
 493 380 416 385 356 385 c 8
 290 385 230 365 187 330 c 1
 255 330 l 1
 244 280 l 1
 214 266 202 258 192 214 c 10
 159 60 l 17
 154 34 103 0 61 0 c 16
 18 0 -10 29 -10 64 c 0
 -10 68 -10 73 -9 78 c 0
 -2 109 12 135 47 152 c 16
 59 157 72 159 84 159 c 0
 99 159 112 156 117 150 c 1
 130 214 l 2
 136 241 159 273 176 280 c 1
 107 280 l 1
 118 330 l 1
 182 411 284 445 375 445 c 0
EndSplineSet
EndChar
StartChar: uni0E21
Encoding: 223 3617 32767
OldEncoding: 3617
Width: 600
Flags: W
HStem: -4 49<158 173> 0 21G<399 461> 400 46<226 244>
VStem: 90 35<80 88> 144 34<341 354>
Fore
227 400 m 0
 205 400 183 382 179 360 c 0
 178 357 178 354 178 352 c 0
 178 334 191 320 210 320 c 0
 232 320 254 338 259 360 c 0
 259 363 259 366 259 368 c 0
 259 386 246 400 227 400 c 0
244 446 m 16
 292 446 315 422 315 386 c 1
 265 150 l 17
 416 72 l 9
 496 445 l 25
 556 445 l 25
 461 0 l 17
 399 0 l 1
 250 82 l 1
 250 82 242 39 222 22 c 16
 203 6 184 -4 165 -4 c 0
 158 -4 152 -3 145 0 c 0
 108 14 90 45 90 84 c 0
 90 94 91 105 94 116 c 0
 99 139 124 168 155 180 c 16
 162 183 170 184 176 184 c 0
 193 184 207 177 214 170 c 9
 236 274 l 1
 236 274 232 274 226 274 c 0
 212 274 189 275 177 284 c 0
 157 300 144 317 144 342 c 0
 144 348 144 354 146 360 c 0
 155 404 198 446 244 446 c 16
205 96 m 1
 195 109 187 133 166 133 c 0
 164 133 162 133 159 132 c 8
 139 127 130 108 126 88 c 16
 126 87 125 86 125 85 c 0
 125 71 143 45 166 45 c 0
 168 45 170 45 173 46 c 0
 194 51 205 75 205 94 c 0
 205 95 205 95 205 96 c 1
EndSplineSet
EndChar
StartChar: uni0E22
Encoding: 224 3618 32767
OldEncoding: 3618
Width: 600
Flags: W
HStem: 0 60<201 418> 155 50<221 232> 277 46<278 295> 403 43<302 314>
VStem: 182 61<245 257>
Fore
312 403 m 0
 290 403 268 385 264 363 c 0
 263 360 263 357 263 355 c 0
 263 337 276 323 295 323 c 0
 317 323 339 341 344 363 c 0
 344 366 345 369 345 371 c 0
 345 389 331 403 312 403 c 0
305 446 m 16
 344 446 368 419 368 382 c 0
 368 376 367 370 366 363 c 0
 357 324 338 302 304 284 c 16
 295 279 286 277 278 277 c 0
 268 277 258 280 249 282 c 1
 243 257 l 18
 243 251 l 0
 243 231 262 205 292 205 c 1
 282 155 l 1
 222 155 l 9
 201 60 l 1
 418 60 l 1
 500 445 l 25
 560 445 l 25
 466 0 l 17
 364 0 129 0 129 0 c 1
 162 155 l 18
 171 199 219 205 230 205 c 0
 231 205 232 205 232 205 c 1
 213 210 182 218 182 247 c 0
 182 250 182 253 183 257 c 10
 211 386 l 1
 231 426 265 446 305 446 c 16
EndSplineSet
EndChar
StartChar: uni0E23
Encoding: 225 3619 32767
OldEncoding: 3619
Width: 600
Flags: W
HStem: 0 42<367 386> 122 47<392 412> 387 58<350 390>
VStem: 309 34<65 76>
Fore
393 122 m 0
 371 122 349 104 344 82 c 0
 344 79 343 76 343 74 c 0
 343 56 356 42 376 42 c 0
 398 42 419 60 424 82 c 0
 425 85 425 88 425 90 c 0
 425 108 412 122 393 122 c 0
390 445 m 0
 472 445 551 411 551 411 c 1
 525 356 l 1
 525 356 422 387 351 387 c 24
 294 387 257 382 202 335 c 1
 235 335 276 340 322 340 c 0
 350 340 379 338 408 332 c 0
 471 320 513 296 513 238 c 0
 513 227 512 216 509 204 c 2
 483 82 l 1
 483 82 469 54 453 39 c 24
 427 16 400 0 376 0 c 0
 336 0 309 28 309 65 c 0
 309 71 310 76 311 82 c 0
 324 143 373 169 412 169 c 8
 425 169 428 162 439 157 c 25
 449 204 l 2
 450 210 451 216 451 220 c 0
 451 252 423 260 369 270 c 0
 332 277 290 279 251 279 c 0
 198 279 151 275 129 275 c 9
 142 335 l 17
 207 420 276 445 390 445 c 0
EndSplineSet
EndChar
StartChar: uni0E24
Encoding: 226 3620 32767
OldEncoding: 3620
Width: 600
Flags: W
HStem: 0 44<193 209> 124 39<215.909 230> 387 60<367 397>
VStem: 258 41<92 109> 500 60<327 339>
Fore
225 124 m 0
 203 124 182 106 177 84 c 0
 176 81 176 78 176 76 c 0
 176 58 189 44 208 44 c 0
 230 44 252 62 257 84 c 0
 257 87 258 90 258 92 c 0
 258 110 245 124 225 124 c 0
388 447 m 0
 485 447 561 386 561 337 c 0
 561 333 560 330 560 327 c 2
 560 327 455 -165 454 -165 c 1
 395 -165 l 17
 395 -165 l 0
 395 -160 500 327 500 327 c 2
 500 329 500 330 500 332 c 0
 500 363 433 387 375 387 c 8
 306 387 243 365 200 330 c 1
 269 330 l 1
 259 280 l 1
 229 266 216 258 207 214 c 2
 195 159 l 1
 195 159 207 163 227 163 c 0
 240 163 255 161 272 156 c 0
 292 149 299 131 299 109 c 0
 299 101 298 93 296 84 c 0
 285 32 241 0 194 0 c 0
 154 0 112 21 112 51 c 0
 112 53 112 56 112 58 c 9
 146 214 l 18
 151 241 173 273 190 280 c 1
 130 280 l 1
 140 330 l 1
 202 411 302 447 388 447 c 0
EndSplineSet
EndChar
StartChar: uni0E25
Encoding: 227 3621 32767
OldEncoding: 3621
Width: 600
Flags: W
HStem: 0 43<147 172> 123 39<179 193> 387 60<328 353>
VStem: 80 59<73 83> 221 20<90 110>
Fore
189 123 m 0
 167 123 145 105 140 83 c 0
 140 80 139 77 139 75 c 0
 139 57 152 43 172 43 c 0
 194 43 215 61 220 83 c 0
 221 86 221 89 221 91 c 0
 221 109 208 123 189 123 c 0
343 447 m 0
 424 447 522 416 522 339 c 0
 522 332 522 325 520 318 c 2
 452 0 l 1
 394 0 l 17
 394 0 382 214 280 214 c 0
 234 214 200 208 181 195 c 0
 158 179 156 157 156 157 c 1
 156 157 167 162 184 162 c 0
 194 162 205 161 217 156 c 0
 234 149 241 131 241 110 c 0
 241 101 240 92 238 83 c 0
 227 31 188 0 147 0 c 0
 99 0 80 44 80 75 c 0
 80 81 81 86 82 90 c 1
 92 138 98 166 98 166 c 2
 104 195 135 278 294 278 c 0
 398 278 429 163 429 163 c 1
 462 318 l 2
 463 321 463 324 463 326 c 0
 463 368 389 387 330 387 c 8
 260 387 193 350 150 322 c 9
 128 371 l 17
 135 383 266 447 343 447 c 0
EndSplineSet
EndChar
StartChar: uni0E26
Encoding: 228 3622 32767
OldEncoding: 3622
Width: 600
Flags: W
HStem: 0 38<110 122> 118 41<131 146> 385 60<381 404>
VStem: 63 19<61 72> 491 60<329 346>
Fore
131 118 m 0
 109 118 87 100 83 78 c 0
 82 75 82 72 82 70 c 0
 82 52 95 38 114 38 c 0
 136 38 158 56 163 78 c 0
 163 81 164 84 164 86 c 0
 164 104 150 118 131 118 c 0
402 445 m 0
 483 445 551 407 551 344 c 0
 551 338 551 332 549 325 c 10
 445 -165 l 25
 385 -165 l 25
 489 325 l 18
 490 329 491 333 491 337 c 0
 491 380 430 385 383 385 c 8
 328 385 278 365 240 330 c 1
 300 330 l 1
 290 280 l 1
 266 266 255 258 246 214 c 10
 213 60 l 17
 207 34 159 0 120 0 c 16
 85 0 63 27 63 61 c 0
 63 67 64 72 65 78 c 0
 71 109 85 135 117 152 c 16
 126 157 137 159 146 159 c 0
 159 159 169 156 172 150 c 1
 186 214 l 2
 191 241 213 273 230 280 c 1
 170 280 l 1
 180 330 l 1
 238 411 325 445 402 445 c 0
EndSplineSet
EndChar
StartChar: uni0E27
Encoding: 229 3623 32767
OldEncoding: 3623
Width: 600
Flags: W
HStem: 0 43<373 384> 123 47<390 402> 385 60<341 361>
VStem: 310 33<69 83> 468 62<302 310>
Fore
393 123 m 0
 371 123 349 105 344 83 c 0
 344 80 343 77 343 75 c 0
 343 57 357 43 376 43 c 0
 398 43 420 61 424 83 c 0
 425 86 425 89 425 91 c 0
 425 109 412 123 393 123 c 0
199 368 m 17
 199 368 271 445 359 445 c 0
 466 445 530 375 530 307 c 0
 530 300 529 292 527 285 c 10
 484 83 l 17
 485 82 l 0
 485 71 431 -0 375 0 c 0
 333 0 310 31 310 71 c 0
 310 83 l 8
 315 121 344 149 382 166 c 16
 388 169 395 170 402 170 c 0
 421 170 440 162 440 162 c 9
 466 285 l 18
 468 292 468 298 468 304 c 0
 468 362 405 385 347 385 c 8
 298 385 269 360 225 325 c 9
 199 368 l 17
EndSplineSet
EndChar
StartChar: uni0E28
Encoding: 230 3624 32767
OldEncoding: 3624
Width: 600
Flags: W
HStem: 0 21G<16 76 405 465> 150 35<276 289> 265 35<300 310> 385 60<319 343>
VStem: 334 51<232 243>
Fore
302 265 m 0
 280 265 257 247 253 225 c 0
 252 222 252 220 252 217 c 0
 252 199 266 185 285 185 c 0
 307 185 328 203 333 225 c 0
 333 228 334 231 334 234 c 0
 334 252 321 265 302 265 c 0
341 445 m 16
 368 445 396 441 420 433 c 1
 432 454 438 476 438 500 c 9
 498 500 l 17
 491 465 479 437 464 412 c 1
 502 389 527 354 527 307 c 0
 527 298 526 288 524 278 c 10
 465 0 l 25
 405 0 l 25
 464 278 l 18
 465 283 466 288 466 293 c 0
 466 349 397 385 329 385 c 8
 250 385 149 344 135 278 c 10
 99 107 l 17
 185 211 l 2
 218 251 256 300 310 300 c 16
 355 300 385 278 385 242 c 0
 385 237 384 232 383 227 c 8
 373 181 324 150 278 150 c 16
 249 150 231 163 224 176 c 9
 76 0 l 25
 16 0 l 25
 75 278 l 18
 96 376 230 445 341 445 c 16
EndSplineSet
EndChar
StartChar: uni0E29
Encoding: 231 3625 32767
OldEncoding: 3625
Width: 600
Flags: W
HStem: 0 60<71 127 187 407> 154 55<324 365> 290 28<148 176>
VStem: 81 35<341 352> 249 43<232 248>
Fore
341 289 m 0
 319 289 297 271 293 249 c 0
 292 246 292 243 292 241 c 0
 292 223 305 209 324 209 c 0
 346 209 368 227 373 249 c 0
 373 252 374 255 374 257 c 0
 374 275 360 289 341 289 c 0
165 398 m 0
 143 398 121 380 117 358 c 0
 116 355 116 352 116 350 c 0
 116 332 129 318 148 318 c 0
 170 318 192 336 197 358 c 0
 197 361 198 364 198 366 c 0
 198 384 184 398 165 398 c 0
177 444 m 8
 219 444 245 432 258 390 c 1
 241 312 203 132 187 60 c 1
 407 60 l 1
 430 166 l 1
 406 158 386 154 365 154 c 0
 347 154 329 157 308 162 c 0
 276 170 249 196 249 232 c 0
 249 237 249 242 250 248 c 8
 261 295 304 338 352 338 c 16
 385 338 394 329 407 309 c 16
 417 295 420 284 420 269 c 0
 420 259 418 247 415 231 c 1
 425 231 436 235 446 240 c 1
 489 445 l 1
 549 445 l 1
 517 294 l 1
 532 309 545 323 555 333 c 9
 590 285 l 17
 555 247 530 220 497 198 c 1
 455 0 l 1
 60 0 l 1
 72 60 l 1
 127 60 l 9
 176 290 l 17
 161 290 148 284 135 284 c 0
 130 284 125 285 120 288 c 0
 97 301 81 317 81 343 c 0
 81 348 82 353 83 358 c 8
 92 403 137 444 177 444 c 8
EndSplineSet
EndChar
StartChar: uni0E2A
Encoding: 232 3626 32767
OldEncoding: 3626
Width: 600
Flags: W
HStem: 0 43<142 166> 123 39<173 188> 387 60<322 348>
VStem: 75 59<73 83> 215 21<91 110>
Fore
183 123 m 0
 161 123 139 105 135 83 c 0
 134 80 134 77 134 75 c 0
 134 57 147 43 166 43 c 0
 188 43 210 61 215 83 c 0
 215 86 215 89 215 91 c 0
 215 109 202 123 183 123 c 0
337 447 m 0
 363 447 390 444 416 437 c 1
 430 456 443 476 443 500 c 9
 503 500 l 17
 497 470 482 442 466 417 c 1
 496 399 517 374 517 339 c 0
 517 332 516 325 514 318 c 2
 447 0 l 1
 389 0 l 17
 389 0 376 214 274 214 c 0
 228 214 194 208 175 195 c 0
 152 179 150 157 150 157 c 1
 150 157 162 162 179 162 c 0
 188 162 199 161 211 156 c 0
 229 149 236 131 236 110 c 0
 236 101 234 92 233 83 c 0
 221 31 183 0 142 0 c 0
 93 0 75 44 75 75 c 0
 75 81 75 86 76 90 c 1
 86 138 92 166 92 166 c 2
 98 195 129 278 288 278 c 0
 392 278 424 163 424 163 c 1
 456 318 l 2
 457 321 457 324 457 326 c 0
 457 368 383 387 324 387 c 8
 255 387 187 350 144 322 c 9
 123 371 l 17
 129 383 260 447 337 447 c 0
EndSplineSet
EndChar
StartChar: uni0E2B
Encoding: 233 3627 32767
OldEncoding: 3627
Width: 600
Flags: W
HStem: 0 21G<119 175 397 457> 277 43<140 149> 400 48<165 186 448 459>
VStem: 82 35<339 354> 352 49<336 354> 443 61<222 237>
Fore
450 400 m 0
 428 400 407 382 402 360 c 0
 401 357 401 354 401 352 c 0
 401 334 414 320 433 320 c 0
 455 320 477 338 482 360 c 0
 483 363 483 366 483 368 c 0
 483 386 470 400 450 400 c 0
166 400 m 0
 144 400 123 382 118 360 c 0
 117 357 117 354 117 352 c 0
 117 334 130 320 149 320 c 0
 171 320 193 338 198 360 c 0
 199 363 199 366 199 368 c 0
 199 386 186 400 166 400 c 0
175 0 m 9
 119 0 l 25
 183 300 l 17
 171 285 155 277 140 277 c 0
 135 277 130 278 125 280 c 0
 97 289 82 311 82 340 c 0
 82 346 82 353 84 360 c 8
 94 407 139 448 186 448 c 16
 223 448 261 426 261 396 c 0
 261 393 260 391 260 388 c 1
 202 116 l 17
 372 290 l 1
 356 298 352 319 352 337 c 0
 352 346 353 354 354 360 c 0
 364 409 412 448 461 448 c 0
 503 448 532 419 532 379 c 0
 532 373 531 366 530 360 c 0
 524 331 508 299 478 292 c 1
 495 281 504 261 504 235 c 0
 504 225 503 215 501 204 c 2
 457 0 l 9
 397 0 l 17
 441 204 l 2
 442 211 443 217 443 224 c 0
 443 241 438 257 429 272 c 1
 175 0 l 9
EndSplineSet
EndChar
StartChar: uni0E2C
Encoding: 234 3628 32767
OldEncoding: 3628
Width: 600
Flags: W
HStem: 0 21G<48 142 315 443> 277 46<76 89> 403 43<100 122> 446 51<449 478> 577 51<466 490>
VStem: 24 27<338 355> 387 30<521 533>
Fore
466 577 m 0
 444 577 422 560 418 538 c 0
 417 535 417 532 417 530 c 0
 417 511 430 497 449 497 c 0
 471 497 493 516 498 538 c 0
 498 541 498 544 498 546 c 0
 498 564 485 577 466 577 c 0
100 403 m 0
 78 403 56 385 51 363 c 0
 51 360 51 357 51 355 c 0
 51 337 64 323 83 323 c 0
 105 323 127 341 131 363 c 0
 132 366 132 369 132 371 c 0
 132 389 119 403 100 403 c 0
122 446 m 8
 162 446 191 426 191 386 c 9
 132 105 l 17
 308 445 l 9
 368 445 l 25
 406 105 l 1
 478 446 l 1
 468 446 458 449 446 452 c 0
 415 460 387 485 387 522 c 0
 387 527 387 532 389 538 c 8
 399 585 443 628 490 628 c 16
 523 628 532 619 546 599 c 16
 555 585 558 573 558 559 c 0
 558 549 556 536 553 521 c 1
 611 527 663 594 694 623 c 9
 728 575 l 17
 678 521 648 489 584 462 c 16
 568 455 553 451 538 448 c 1
 443 0 l 1
 443 0 414 0 315 0 c 1
 315 330 l 1
 142 0 l 1
 48 0 48 0 48 0 c 9
 108 282 l 17
 98 280 87 277 78 277 c 128
 69 277 62 279 55 284 c 0
 34 298 24 314 24 339 c 0
 24 346 25 354 26 363 c 0
 36 409 77 446 122 446 c 8
EndSplineSet
EndChar
StartChar: uni0E2D
Encoding: 235 3629 32767
OldEncoding: 3629
Width: 600
Flags: W
HStem: 0 56<191 411> 239 39<259 270> 387 60<370 387>
VStem: 301 29<205 216> 469 60<327 341>
Fore
268 239 m 0
 246 239 224 221 220 199 c 0
 219 196 219 193 219 191 c 0
 219 173 232 159 251 159 c 0
 273 159 295 177 300 199 c 0
 300 202 301 205 301 207 c 0
 301 225 287 239 268 239 c 0
385 447 m 0
 467 447 530 388 530 338 c 0
 530 334 530 331 529 327 c 2
 459 0 l 1
 119 0 l 9
 162 199 l 17
 180 240 217 278 261 278 c 16
 297 278 330 252 330 214 c 0
 330 210 329 205 328 200 c 8
 318 155 281 125 235 112 c 16
 232 111 229 111 227 111 c 0
 217 111 210 116 205 122 c 9
 191 56 l 17
 411 56 l 1
 431 149 469 327 469 327 c 2
 469 329 470 331 470 333 c 0
 470 364 418 387 372 387 c 8
 313 387 257 369 219 334 c 9
 193 378 l 17
 193 378 l 0
 193 381 287 447 385 447 c 0
EndSplineSet
EndChar
StartChar: uni0E2E
Encoding: 236 3630 32767
OldEncoding: 3630
Width: 600
Flags: W
HStem: 0 56<189 409> 239 39<256 268> 387 60<367 384>
VStem: 298 29<205 216> 467 61<331 341>
Fore
266 239 m 0
 244 239 222 221 217 199 c 0
 217 196 216 193 216 191 c 0
 216 173 229 159 249 159 c 0
 271 159 292 177 297 199 c 0
 298 202 298 205 298 207 c 0
 298 225 285 239 266 239 c 0
382 447 m 0
 417 447 449 436 473 420 c 1
 486 442 496 465 503 500 c 9
 563 500 l 17
 553 454 534 417 512 383 c 1
 522 368 528 353 528 338 c 0
 528 334 527 331 526 327 c 2
 457 0 l 1
 117 0 l 9
 159 199 l 17
 177 240 214 278 258 278 c 16
 294 278 327 252 327 214 c 0
 327 210 326 205 325 200 c 8
 316 155 278 125 233 112 c 16
 230 111 227 111 224 111 c 0
 215 111 208 116 203 122 c 9
 189 56 l 17
 409 56 l 1
 429 149 466 327 466 327 c 2
 467 329 467 331 467 333 c 0
 467 364 415 387 369 387 c 8
 310 387 254 369 217 334 c 9
 190 378 l 17
 190 378 l 0
 190 381 284 447 382 447 c 0
EndSplineSet
EndChar
StartChar: uni0E2F
Encoding: 237 3631 32767
OldEncoding: 3631
Width: 600
Flags: W
HStem: 0 21G<286 352> 269 71<159 188> 420 31<174 185>
VStem: 208 46<380 390>
Fore
176 420 m 0
 154 420 133 402 128 380 c 0
 127 377 127 374 127 372 c 0
 127 354 140 340 159 340 c 0
 181 340 203 358 208 380 c 0
 208 383 209 386 209 388 c 0
 209 406 196 420 176 420 c 0
185 451 m 16
 218 451 227 443 241 423 c 16
 250 409 254 397 254 383 c 0
 254 372 251 360 248 344 c 1
 292 349 314 359 354 380 c 24
 389 399 437 445 437 445 c 9
 497 445 l 17
 476 350 416 67 416 67 c 1
 412 67 401 14 352 0 c 1
 286 0 l 1
 332 28 351 50 356 67 c 1
 356 67 403 288 417 354 c 1
 417 354 388 329 368 318 c 24
 335 300 317 295 280 285 c 0
 244 276 217 269 188 269 c 0
 173 269 158 271 142 275 c 0
 110 283 82 308 82 345 c 0
 82 350 83 355 84 361 c 8
 94 408 138 451 185 451 c 16
EndSplineSet
EndChar
StartChar: uni0E30
Encoding: 238 3632 32767
OldEncoding: 3632
Width: 600
Flags: W
HStem: 41 75<189 225> 196 29<201 214> 262 75<236 272> 417 29<251 261>
VStem: 237 44<156 166> 284 44<377 387>
Fore
206 196 m 0
 184 196 162 178 157 156 c 0
 157 153 156 150 156 148 c 0
 156 130 170 116 189 116 c 0
 211 116 233 134 237 156 c 0
 238 159 238 162 238 164 c 0
 238 182 225 196 206 196 c 0
212 225 m 16
 245 225 254 216 268 196 c 16
 277 182 281 170 281 156 c 0
 281 146 279 133 275 118 c 1
 334 124 385 191 416 220 c 9
 451 172 l 17
 400 118 371 85 307 59 c 16
 275 47 250 41 225 41 c 0
 207 41 189 44 169 49 c 0
 137 57 109 82 109 119 c 0
 109 124 110 129 111 135 c 8
 121 182 165 225 212 225 c 16
253 417 m 0
 231 417 209 399 204 377 c 0
 204 374 203 371 203 369 c 0
 203 351 217 337 236 337 c 0
 258 337 280 355 284 377 c 0
 285 380 285 383 285 385 c 0
 285 403 272 417 253 417 c 0
259 446 m 16
 292 446 301 437 315 417 c 16
 324 403 328 391 328 377 c 0
 328 367 326 354 322 339 c 1
 381 345 432 412 463 441 c 9
 498 393 l 17
 447 339 418 306 354 280 c 16
 322 268 297 262 272 262 c 0
 254 262 236 265 216 270 c 0
 184 278 156 303 156 340 c 0
 156 345 157 350 158 356 c 8
 168 403 212 446 259 446 c 16
EndSplineSet
EndChar
StartChar: uni0E31
Encoding: 239 3633 8
OldEncoding: 3633
Width: 600
Flags: W
HStem: 500 63<434 472> 642 29<449 459>
VStem: 483 43<603 612>
Fore
451 642 m 4
 429 642 407 624 403 602 c 4
 402 599 402 597 402 594 c 4
 402 576 415 563 434 563 c 4
 456 563 478 582 483 604 c 4
 483 607 483 608 483 610 c 4
 483 628 470 642 451 642 c 4
457 671 m 20
 490 671 499 662 513 642 c 20
 522 628 526 618 526 604 c 4
 526 594 524 578 520 563 c 5
 579 569 630 638 661 667 c 13
 696 618 l 21
 645 564 616 540 554 517 c 20
 523 505 497 500 472 500 c 4
 454 500 436 502 416 507 c 4
 384 515 355 535 355 568 c 4
 355 572 355 576 356 581 c 12
 366 628 410 671 457 671 c 20
EndSplineSet
EndChar
StartChar: uni0E32
Encoding: 240 3634 32767
OldEncoding: 3634
Width: 600
Flags: W
HStem: 0 21G<358 418> 385 60<296 314>
VStem: 421 60<302 310>
Fore
312 445 m 0
 242 445 214 418 169 386 c 9
 198 342 l 17
 198 342 259 385 299 385 c 16
 358 385 421 362 421 304 c 0
 421 298 420 292 419 285 c 10
 358 0 l 25
 418 0 l 25
 479 285 l 18
 480 292 481 300 481 308 c 0
 481 375 419 445 312 445 c 0
EndSplineSet
EndChar
StartChar: uni0E33
Encoding: 241 3635 32767
OldEncoding: 3635
Width: 600
Flags: W
HStem: 0 21G<331 391> 385 60<263 287> 444 43<171 185>
VStem: 104 44<510 521> 394 60<302 310>
Fore
197 567 m 0
 175 567 154 549 149 527 c 0
 148 524 148 521 148 519 c 0
 148 501 161 487 180 487 c 0
 202 487 224 505 229 527 c 0
 230 530 230 533 230 535 c 0
 230 553 217 567 197 567 c 0
208 612 m 0
 248 612 276 583 276 545 c 0
 276 540 275 534 274 528 c 0
 264 482 218 444 172 444 c 0
 132 444 104 473 104 511 c 0
 104 516 105 522 106 528 c 0
 116 574 162 612 208 612 c 0
171 342 m 17
 171 342 232 385 272 385 c 16
 331 385 394 362 394 304 c 0
 394 298 393 292 392 285 c 10
 331 0 l 25
 391 0 l 25
 452 285 l 18
 453 292 454 300 454 308 c 0
 454 375 392 445 285 445 c 0
 215 445 187 418 142 386 c 9
 171 342 l 17
EndSplineSet
EndChar
StartChar: uni0E34
Encoding: 242 3636 9
OldEncoding: 3636
Width: 600
Flags: W
HStem: 500 55<297 517> 607 59<416 435>
Fore
420 607 m 20
 378 607 315 603 297 555 c 13
 517 555 l 21
 511 593 467 607 420 607 c 20
433 666 m 4
 518 666 572 640 572 557 c 4
 572 540 570 521 565 500 c 13
 225 500 l 21
 250 614 321 666 433 666 c 4
EndSplineSet
EndChar
StartChar: uni0E35
Encoding: 243 3637 10
OldEncoding: 3637
Width: 600
Flags: W
HStem: 500 55<249 409> 612 56<323 343>
Fore
331 612 m 28
 296 612 268 598 249 555 c 13
 409 555 l 21
 405 585 372 612 331 612 c 28
341 668 m 4
 431 668 470 621 504 555 c 13
 527 665 l 29
 584 665 l 29
 549 500 l 29
 164 500 l 21
 187 608 232 668 341 668 c 4
EndSplineSet
EndChar
StartChar: uni0E36
Encoding: 244 3638 32767
OldEncoding: 3638
Width: 600
Flags: W
HStem: 500 54<290 456> 612 54<376 394> 634 32<552 570>
VStem: 595 29<589 606>
Fore
560 634 m 4
 535 634 511 614 505 589 c 4
 505 586 504 583 504 579 c 4
 504 559 519 544 541 544 c 4
 566 544 590 564 595 589 c 4
 596 592 596 595 596 599 c 4
 596 619 582 634 560 634 c 4
380 612 m 4
 344 612 315 590 290 554 c 13
 456 554 l 21
 447 594 420 612 380 612 c 4
388 666 m 20
 434 666 489 616 489 616 c 5
 489 616 530 666 560 666 c 20
 599 666 624 641 624 604 c 4
 624 598 624 590 622 584 c 4
 615 548 595 538 568 518 c 28
 552 506 539 507 520 500 c 29
 217 500 l 21
 240 606 305 666 388 666 c 20
EndSplineSet
EndChar
StartChar: uni0E37
Encoding: 245 3639 11
OldEncoding: 3639
Width: 600
Flags: W
HStem: 500 60<246 361 480 522> 614 54<300 319>
Fore
301 614 m 12
 274 611 254 596 246 560 c 13
 361 560 l 21
 354 588 339 614 308 614 c 4
 306 614 304 614 301 614 c 12
315 668 m 20
 375 668 409 620 430 560 c 13
 452 665 l 29
 502 665 l 29
 480 560 l 29
 522 560 l 29
 544 665 l 29
 594 665 l 29
 559 500 l 29
 174 500 l 21
 197 606 238 668 315 668 c 20
EndSplineSet
EndChar
StartChar: uni0E38
Encoding: 246 3640 32767
OldEncoding: 3640
Width: 600
Flags: W
HStem: -139 21<351 362 368 370> -62 22<373 388>
VStem: 316 23<-104 -95>
Fore
374 -62 m 4
 359 -62 343 -75 340 -90 c 4
 339 -92 339 -94 339 -95 c 4
 339 -108 349 -118 362 -118 c 4
 377 -118 393 -105 396 -90 c 4
 396 -88 396 -86 396 -85 c 4
 396 -72 387 -62 374 -62 c 4
388 -40 m 20
 424 -40 441 -52 450 -83 c 13
 427 -194 l 29
 369 -194 l 29
 381 -136 l 21
 370 -136 360 -139 352 -139 c 4
 346 -139 341 -138 335 -134 c 4
 324 -126 316 -116 316 -103 c 4
 316 -98 317 -93 319 -87 c 12
 332 -58 359 -40 388 -40 c 20
EndSplineSet
EndChar
StartChar: uni0E39
Encoding: 247 3641 32767
OldEncoding: 3641
Width: 600
Flags: W
HStem: -222 56<322 380> -163 24<249 259>
VStem: 215 19<-126 -114>
Fore
265 -88 m 4
 251 -88 237 -99 234 -114 c 4
 234 -116 234 -118 234 -119 c 4
 234 -131 242 -139 254 -139 c 4
 269 -139 282 -128 285 -114 c 4
 286 -112 286 -110 286 -108 c 4
 286 -96 278 -88 265 -88 c 4
276 -64 m 20
 308 -64 325 -76 337 -98 c 13
 322 -166 l 29
 380 -166 l 29
 402 -64 l 29
 454 -64 l 29
 420 -222 l 29
 256 -222 l 29
 270 -158 l 21
 263 -161 257 -163 251 -163 c 4
 243 -163 235 -159 228 -153 c 4
 220 -146 215 -139 215 -125 c 4
 215 -120 216 -115 217 -108 c 12
 223 -82 250 -64 276 -64 c 20
EndSplineSet
EndChar
StartChar: uni0E3A
Encoding: 248 3642 32767
OldEncoding: 3642
Width: 600
Flags: W
Fore
298 -108 m 4
 327 -108 346 -128 346 -155 c 4
 346 -160 346 -164 345 -168 c 4
 338 -201 305 -228 272 -228 c 4
 243 -228 224 -208 224 -181 c 4
 224 -176 224 -172 225 -168 c 4
 232 -135 265 -108 298 -108 c 4
EndSplineSet
EndChar
StartChar: uni0E3F
Encoding: 253 3647 32767
OldEncoding: 3647
Width: 600
Flags: W
HStem: 0 41<7 72 113 210 262 333> 272 41<171 269 320.125 342.18> 522 41<118 173 214 322 373 390>
VStem: 474 42<169 184> 488 42<433 447>
Fore
269 272 m 1
 162 272 l 1
 113 41 l 1
 220 41 l 1
 269 272 l 1
322 522 m 1
 215 522 l 1
 171 313 l 1
 278 313 l 1
 322 522 l 1
211 0 m 1
 9 0 l 2
 -7 0 -15 5 -15 16 c 0
 -15 17 -14 19 -14 21 c 0
 -11 34 -0 41 18 41 c 2
 72 41 l 1
 174 522 l 1
 120 522 l 2
 104 522 96 527 96 538 c 0
 96 539 97 541 97 543 c 0
 100 556 111 563 129 563 c 2
 331 563 l 1
 346 636 l 1
 388 636 l 1
 373 563 l 1
 387 563 l 2
 473 563 530 514 530 445 c 0
 530 436 529 426 527 417 c 0
 516 366 482 330 416 298 c 1
 482 272 516 234 516 182 c 0
 516 173 515 163 513 153 c 0
 495 69 406 0 315 0 c 2
 253 0 l 1
 240 -62 l 1
 198 -62 l 1
 211 0 l 1
262 41 m 1
 321 41 l 2
 392 41 458 91 472 153 c 0
 473 159 474 165 474 171 c 0
 474 200 459 228 432 246 c 0
 404 265 372 272 311 272 c 1
 262 41 l 1
364 522 m 1
 320 313 l 1
 404 313 473 355 486 417 c 0
 487 423 488 431 488 437 c 0
 488 486 444 522 379 522 c 2
 364 522 l 1
EndSplineSet
EndChar
StartChar: uni0E40
Encoding: 254 3648 32767
OldEncoding: 3648
Width: 600
Flags: W
HStem: 0 44<324 345> 124 46<360 368>
Fore
362 124 m 0
 340 124 318 106 314 84 c 0
 313 81 313 78 313 75 c 0
 313 57 326 44 345 44 c 0
 367 44 389 62 394 84 c 0
 394 87 395 89 395 91 c 0
 395 110 381 124 362 124 c 0
334 445 m 25
 394 445 l 25
 334 160 l 25
 347 164 354 170 366 170 c 16
 400 170 424 139 424 102 c 0
 424 96 423 90 422 84 c 8
 412 39 369 0 324 0 c 24
 284 0 260 18 252 60 c 9
 334 445 l 25
EndSplineSet
EndChar
StartChar: uni0E41
Encoding: 255 3649 32767
OldEncoding: 3649
Width: 600
Flags: W
HStem: 0 44<147 168 372 393> 124 46<183 191 408 416>
Fore
410 124 m 0
 388 124 366 106 362 84 c 0
 361 81 361 78 361 75 c 0
 361 57 374 44 393 44 c 0
 415 44 437 62 442 84 c 0
 442 87 443 89 443 91 c 0
 443 110 429 124 410 124 c 0
382 445 m 25
 442 445 l 25
 382 160 l 25
 395 164 402 170 414 170 c 16
 448 170 472 139 472 102 c 0
 472 96 471 90 470 84 c 8
 460 39 417 0 372 0 c 24
 332 0 308 18 300 60 c 9
 382 445 l 25
185 124 m 0
 163 124 141 106 137 84 c 0
 136 81 136 78 136 75 c 0
 136 57 149 44 168 44 c 0
 190 44 212 62 217 84 c 0
 217 87 218 89 218 91 c 0
 218 110 204 124 185 124 c 0
157 445 m 25
 217 445 l 25
 157 160 l 25
 170 164 177 170 189 170 c 16
 223 170 247 139 247 102 c 0
 247 96 246 90 245 84 c 8
 235 39 192 0 147 0 c 24
 107 0 83 18 75 60 c 9
 157 445 l 25
EndSplineSet
EndChar
StartChar: uni0E42
Encoding: 256 3650 32767
OldEncoding: 3650
Width: 600
Flags: W
HStem: 0 39<294 310> 119 45<322 330> 611 58<311 351>
VStem: 223 55<63 78>
Fore
327 119 m 0
 305 119 283 101 279 79 c 0
 278 76 278 73 278 70 c 0
 278 52 291 39 310 39 c 0
 332 39 354 57 359 79 c 0
 359 82 360 84 360 86 c 0
 360 105 346 119 327 119 c 0
224 83 m 9
 297 428 l 2
 299 439 301 448 301 455 c 0
 301 477 286 482 239 492 c 0
 202 500 175 502 153 502 c 0
 128 502 110 499 90 499 c 9
 103 559 l 17
 168 644 237 669 351 669 c 0
 433 669 512 635 512 635 c 1
 486 580 l 1
 486 580 383 611 312 611 c 24
 255 611 218 606 163 559 c 1
 174 559 183 559 191 559 c 0
 223 559 238 558 270 552 c 0
 330 541 362 521 362 469 c 0
 362 457 360 443 357 428 c 2
 298 153 l 1
 298 153 314 164 324 164 c 16
 369 164 391 136 391 99 c 0
 391 93 391 85 389 78 c 8
 380 35 338 0 295 0 c 16
 251 0 223 38 223 71 c 0
 223 75 223 79 224 83 c 9
EndSplineSet
EndChar
